<?xml version="1.0" encoding="utf-8"?>
<!-- Generator: Adobe Illustrator 28.0.0, SVG Export Plug-In . SVG Version: 6.00 Build 0)  -->
<svg version="1.1" id="Layer_1" xmlns="http://www.w3.org/2000/svg" xmlns:xlink="http://www.w3.org/1999/xlink" x="0px" y="0px"
	 width="150px" height="150px" viewBox="0 0 150 150" style="enable-background:new 0 0 150 150;" xml:space="preserve">
<g>
	<g>
		<path style="fill:#D7E5EC;" d="M80.394,57.705c0.516-0.798,0.908-1.692,1.109-2.678c0.575-2.83-0.481-5.597-2.493-7.396
			c-0.193-0.67-0.4-1.332-0.687-1.973c1.478-7.312-3.262-14.466-10.575-15.951c-5.025-1.021-9.932,0.941-13.023,4.613l-0.489-0.099
			c-1.414-4.587-5.166-8.307-10.191-9.328c-7.316-1.486-14.475,3.257-15.962,10.573c-0.503,0.473-0.942,0.996-1.375,1.531
			c-2.565,0.867-4.627,3.006-5.204,5.846c-0.2,0.986-0.187,1.962-0.024,2.898c-0.515,0.798-0.908,1.693-1.108,2.679
			c-0.2,0.986-0.188,1.962-0.024,2.898c-0.515,0.798-0.908,1.692-1.108,2.678c-0.2,0.986-0.187,1.963-0.024,2.899
			c-0.515,0.798-0.908,1.693-1.108,2.678s-0.187,1.962-0.024,2.898c-0.515,0.798-0.908,1.693-1.108,2.679
			c-0.476,2.344,0.178,4.639,1.549,6.388c0.203,0.964,0.574,1.892,1.119,2.714c1.141,1.728,2.957,2.954,4.987,3.367
			c1.861,0.378,3.688,0.029,5.244-0.804c0.836,0.416,1.712,0.764,2.665,0.958l25.125,5.103c0.967,0.196,1.924,0.214,2.869,0.153
			c1.109,1.383,2.66,2.422,4.528,2.802c2.051,0.417,4.142,0.011,5.907-1.154c0.841-0.559,1.546-1.266,2.104-2.073
			c1.936-1.077,3.426-2.93,3.901-5.267c0.2-0.986,0.187-1.963,0.024-2.899c0.516-0.798,0.908-1.692,1.109-2.678
			c0.2-0.986,0.187-1.963,0.024-2.899c0.516-0.798,0.909-1.692,1.109-2.678c0.2-0.986,0.187-1.962,0.024-2.898
			c0.515-0.798,0.908-1.692,1.108-2.677C80.571,59.618,80.558,58.641,80.394,57.705z"/>
		<g>
			<path style="fill:#FB980D;" d="M31.852,52.489c0.688-3.387,3.75-5.629,6.836-5.003l25.127,5.103
				c3.084,0.626,5.029,3.885,4.341,7.273l-2.52,12.406c-0.688,3.387-3.75,5.629-6.834,5.003l-25.127-5.103
				c-3.085-0.627-5.031-3.886-4.343-7.273L31.852,52.489z"/>
			<path style="fill-rule:evenodd;clip-rule:evenodd;fill:#5C594D;" d="M29.148,44.649c0.501-2.468,1.964-4.637,4.064-6.028
				c2.1-1.391,4.666-1.891,7.135-1.389c7.627,1.549,18.369,3.731,25.997,5.28c2.469,0.501,4.637,1.963,6.028,4.063
				c1.391,2.1,1.89,4.667,1.389,7.135c-1.705,8.395-4.088,20.127-5.047,24.849c-0.113,0.555-0.441,1.042-0.912,1.354
				c-0.471,0.313-1.049,0.425-1.604,0.312c-1.154-0.234-1.901-1.361-1.667-2.516c0.67-3.301,1.982-9.76,2.807-13.82
				c0.405-1.992-0.882-3.934-2.873-4.339c-6.943-1.41-22.093-4.487-29.036-5.897c-1.991-0.404-3.935,0.882-4.339,2.874
				c-0.825,4.06-2.136,10.519-2.807,13.82c-0.235,1.155-1.36,1.901-2.516,1.667c-0.553-0.112-1.041-0.441-1.353-0.913
				c-0.313-0.472-0.426-1.049-0.313-1.603C25.06,64.776,27.443,53.044,29.148,44.649z"/>
			<circle style="fill-rule:evenodd;clip-rule:evenodd;fill:#5C594D;" cx="69.28" cy="75.77" r="2.134"/>
			<circle style="fill-rule:evenodd;clip-rule:evenodd;fill:#5C594D;" cx="70.413" cy="70.194" r="2.134"/>
			<circle style="fill-rule:evenodd;clip-rule:evenodd;fill:#5C594D;" cx="71.546" cy="64.617" r="2.134"/>
			<circle style="fill-rule:evenodd;clip-rule:evenodd;fill:#5C594D;" cx="72.678" cy="59.04" r="2.134"/>
			<circle style="fill-rule:evenodd;clip-rule:evenodd;fill:#5C594D;" cx="69.28" cy="75.77" r="2.134"/>
			<circle style="fill-rule:evenodd;clip-rule:evenodd;fill:#5C594D;" cx="70.413" cy="70.194" r="2.134"/>
			<circle style="fill-rule:evenodd;clip-rule:evenodd;fill:#5C594D;" cx="71.546" cy="64.617" r="2.134"/>
			<circle style="fill-rule:evenodd;clip-rule:evenodd;fill:#5C594D;" cx="72.678" cy="59.04" r="2.134"/>
			<circle style="fill-rule:evenodd;clip-rule:evenodd;fill:#5C594D;" cx="73.811" cy="53.464" r="2.134"/>
			<circle style="fill-rule:evenodd;clip-rule:evenodd;fill:#5C594D;" cx="24.667" cy="66.71" r="2.134"/>
			<circle style="fill-rule:evenodd;clip-rule:evenodd;fill:#5C594D;" cx="25.8" cy="61.133" r="2.134"/>
			<circle style="fill-rule:evenodd;clip-rule:evenodd;fill:#5C594D;" cx="26.933" cy="55.556" r="2.134"/>
			<circle style="fill-rule:evenodd;clip-rule:evenodd;fill:#5C594D;" cx="28.065" cy="49.98" r="2.134"/>
			<circle style="fill-rule:evenodd;clip-rule:evenodd;fill:#5C594D;" cx="29.198" cy="44.403" r="2.134"/>
			
				<rect x="40.496" y="38.862" transform="matrix(0.199 -0.98 0.98 0.199 -6.3491 77.7806)" style="fill-rule:evenodd;clip-rule:evenodd;fill:#49473E;" width="7.824" height="7.824"/>
			<circle style="fill-rule:evenodd;clip-rule:evenodd;fill:#49473E;" cx="41.353" cy="38.162" r="7.824"/>
			<path style="fill-rule:evenodd;clip-rule:evenodd;fill:#DE8B82;" d="M42.301,33.491c2.579,0.524,4.247,3.042,3.723,5.62
				c-0.524,2.578-3.041,4.246-5.62,3.722c-2.578-0.524-4.245-3.041-3.722-5.619C37.206,34.635,39.724,32.967,42.301,33.491z"/>
			
				<rect x="56.529" y="42.118" transform="matrix(0.199 -0.98 0.98 0.199 3.3017 96.1007)" style="fill-rule:evenodd;clip-rule:evenodd;fill:#49473E;" width="7.824" height="7.824"/>
			<circle style="fill-rule:evenodd;clip-rule:evenodd;fill:#49473E;" cx="65.053" cy="42.975" r="7.824"/>
			<path style="fill-rule:evenodd;clip-rule:evenodd;fill:#DE8B82;" d="M66.002,38.304c-2.578-0.524-5.095,1.144-5.619,3.722
				c-0.524,2.578,1.144,5.096,3.722,5.619c2.579,0.524,5.097-1.144,5.62-3.722C70.249,41.346,68.581,38.828,66.002,38.304z"/>
			<path style="fill-rule:evenodd;clip-rule:evenodd;fill:#071C1C;" d="M41.899,57.691c0.132-0.649-0.288-1.283-0.937-1.415
				l-3.526-0.716c-0.649-0.132-1.283,0.288-1.415,0.937l-1.53,7.532c-0.132,0.649,0.288,1.283,0.937,1.415l3.526,0.716
				c0.649,0.132,1.283-0.288,1.415-0.937L41.899,57.691z"/>
			<path style="fill-rule:evenodd;clip-rule:evenodd;fill:#071C1C;" d="M62.811,61.938c0.132-0.649-0.288-1.283-0.937-1.415
				l-3.526-0.716c-0.649-0.132-1.283,0.288-1.415,0.937l-1.53,7.532c-0.132,0.649,0.288,1.283,0.937,1.415l3.526,0.716
				c0.649,0.132,1.283-0.288,1.415-0.937L62.811,61.938z"/>
			<path style="fill-rule:evenodd;clip-rule:evenodd;fill:#071C1C;" d="M38.35,55.698c0.313-1.539-0.683-3.042-2.222-3.355
				L33.5,51.809c-1.538-0.312-3.042,0.683-3.355,2.222c-0.313,1.539,0.684,3.042,2.222,3.355l2.628,0.534
				C36.535,58.232,38.038,57.237,38.35,55.698z"/>
			<path style="fill:#071C1C;" d="M35.669,54.497c0.442-2.177,2.569-3.586,4.747-3.144l2.391,0.486
				c2.178,0.442,3.586,2.569,3.144,4.746c-0.442,2.178-2.569,3.586-4.747,3.144l-2.391-0.486
				C36.636,58.801,35.227,56.674,35.669,54.497z"/>
			<path style="fill-rule:evenodd;clip-rule:evenodd;fill:#071C1C;" d="M44.37,55.469c0.469-2.308,2.725-3.802,5.032-3.333
				l2.788,0.566c2.309,0.469,3.802,2.724,3.333,5.032c-0.469,2.308-2.723,3.802-5.032,3.333l-2.788-0.566
				C45.396,60.032,43.902,57.777,44.37,55.469z"/>
			<path style="fill-rule:evenodd;clip-rule:evenodd;fill:#071C1C;" d="M60.979,60.293c0.313-1.539,1.815-2.535,3.355-2.222
				l2.627,0.533c1.539,0.313,2.535,1.816,2.222,3.355c-0.313,1.539-1.815,2.535-3.355,2.222l-2.627-0.533
				C61.662,63.335,60.666,61.832,60.979,60.293z"/>
			<path style="fill:#071C1C;" d="M63.916,60.234c0.442-2.177-0.967-4.304-3.144-4.746l-2.391-0.486
				c-2.178-0.442-4.304,0.966-4.747,3.144c-0.442,2.178,0.967,4.304,3.144,4.746l2.391,0.486
				C61.347,63.82,63.474,62.411,63.916,60.234z"/>
		</g>
	</g>
	<g>
		<path style="fill:#D7E5EC;" d="M132.393,91.92c-1.745-4.313-5.977-6.852-10.378-6.713l-0.402-0.993l-1.316-3.252
			c-1.251-3.093-3.633-5.512-6.695-6.807c-1.747-0.742-3.644-1.014-5.525-0.917c-3.311-1.92-7.417-2.396-11.232-0.853L67.146,84.4
			l2.144,5.299c0.275,0.679,0.624,1.303,1.022,1.884c-0.179,0.346-0.403,0.66-0.556,1.023c-1.538,3.627-1.572,7.636-0.094,11.288
			l4.611,11.397l0.012-0.005c0.016,0.042,0.02,0.086,0.037,0.128c1.986,4.91,7.192,7.55,12.205,6.514
			c4.004,3.35,9.653,4.494,14.833,2.399l17.808-7.204c5.18-2.096,8.444-6.847,8.993-12.039
			C132.477,102.34,134.378,96.827,132.393,91.92z"/>
		<g>
			<g>
				<path style="fill:#01A3EF;" d="M120.459,91.25c2.609-1.055,5.58,0.204,6.636,2.813c1.056,2.609-0.205,5.58-2.814,6.636
					c-2.61,1.056-5.58-0.204-6.636-2.813C116.59,95.277,117.849,92.306,120.459,91.25"/>
				<path style="fill:#0189C6;" d="M121.73,94.393c0.873-0.353,1.869,0.068,2.223,0.942c0.353,0.874-0.07,1.869-0.943,2.222
					c-0.873,0.353-1.869-0.068-2.223-0.941C120.434,95.741,120.857,94.746,121.73,94.393"/>
				<path style="fill:#01A3EF;" d="M82.434,106.634c2.609-1.055,5.58,0.204,6.636,2.813c1.056,2.609-0.205,5.58-2.814,6.636
					c-2.61,1.056-5.582-0.203-6.637-2.812C78.563,110.66,79.823,107.69,82.434,106.634"/>
				<path style="fill:#01A3EF;" d="M116.313,86.359c-1.831-4.527-7.011-6.708-11.561-4.868l-17.808,7.204
					c-4.549,1.84-6.757,7.01-4.926,11.537l5.634,13.927c1.831,4.527,7.013,6.708,11.562,4.867l17.808-7.204
					c4.549-1.84,6.756-7.01,4.924-11.537L116.313,86.359z"/>
				<polygon style="fill:#0189C6;" points="117.248,88.669 109.607,84.895 111.969,83.175 114.861,82.77 				"/>
				<polygon style="fill:#0189C6;" points="82.611,102.139 85.379,94.154 82.799,94.422 80.224,96.239 				"/>
				<path style="fill:#0189C6;" d="M116.196,86.069c0,0-0.534-1.321-1.199-2.963c-0.673-1.663-1.977-2.99-3.629-3.69
					c-1.651-0.7-3.513-0.715-5.176-0.043c-8.559,3.463-22.852,9.245-22.852,9.245c-1.392,0.563-2.366,1.994-2.708,3.978
					c-0.342,1.982-0.106,4.39,0.802,6.633l0.314,0.775L116.196,86.069z"/>
				
					<rect x="87.2" y="94.532" transform="matrix(0.927 -0.375 0.375 0.927 -29.4028 41.1843)" style="fill:#0189C6;" width="7.819" height="3.204"/>
				<path style="fill-rule:evenodd;clip-rule:evenodd;fill:#071C1C;" d="M96.585,103.668c-0.249-0.616-0.951-0.913-1.567-0.664
					l-1.979,0.801c-0.616,0.249-0.914,0.951-0.665,1.567l2.332,5.764c0.249,0.616,0.951,0.913,1.567,0.664l1.979-0.801
					c0.616-0.249,0.914-0.951,0.665-1.567L96.585,103.668z"/>
				<path style="fill-rule:evenodd;clip-rule:evenodd;fill:#071C1C;" d="M112.428,97.258c-0.249-0.616-0.951-0.913-1.567-0.664
					l-1.979,0.801c-0.616,0.249-0.914,0.951-0.665,1.567l2.332,5.764c0.249,0.616,0.951,0.913,1.567,0.664l1.979-0.801
					c0.616-0.249,0.914-0.951,0.665-1.567L112.428,97.258z"/>
				<path style="fill-rule:evenodd;clip-rule:evenodd;fill:#071C1C;" d="M108.252,81.61c-1.473-3.642-5.62-5.4-9.263-3.926
					c-9.101,3.682-24.402,9.872-24.402,9.872l0,0c0.884,2.185,3.373,3.239,5.558,2.356c1.382-0.559,2.596-1.05,2.596-1.05
					l17.597-4.05L108.252,81.61z"/>
				<path style="fill-rule:evenodd;clip-rule:evenodd;fill:#071C1C;" d="M101.054,94.627c-0.69,2.586-2.556,4.697-5.037,5.701
					c-6.459,2.613-18.591,7.521-18.591,7.521s-1.172-2.897-2.467-6.098c-0.898-2.22-0.877-4.706,0.059-6.912
					c0.935-2.205,2.707-3.948,4.928-4.847c8.884-3.594,21.652-8.759,21.652-8.759l6.656,0.377l0.534,1.319
					c0,0-0.518,0.21-1.227,0.496c-2.481,1.004-4.347,3.115-5.037,5.7C102.058,90.865,101.518,92.887,101.054,94.627z"/>
				<path style="fill:#0189C6;" d="M83.915,109.871c0.866-0.351,1.853,0.068,2.204,0.935c0.351,0.867-0.068,1.854-0.934,2.204
					c-0.868,0.351-1.855-0.067-2.205-0.934C82.628,111.209,83.047,110.222,83.915,109.871"/>
			</g>
		</g>
	</g>
</g>
</svg>
