<?xml version="1.0" encoding="utf-8"?>
<!-- Generator: Adobe Illustrator 28.0.0, SVG Export Plug-In . SVG Version: 6.00 Build 0)  -->
<svg version="1.1" id="Layer_1" xmlns="http://www.w3.org/2000/svg" xmlns:xlink="http://www.w3.org/1999/xlink" x="0px" y="0px"
	 width="150px" height="150px" viewBox="0 0 150 150" style="enable-background:new 0 0 150 150;" xml:space="preserve">
<style type="text/css">
	.st0{fill:#FFFFFF;}
	.st1{fill:#4283F2;}
	.st2{fill:#34A653;}
	.st3{fill:#F9BA05;}
	.st4{fill:#E84335;}
</style>
<path class="st0" d="M113.6,112.6c8.7-9.3,13.4-22.1,13.4-36.6c0-3.7-0.3-7.4-1-10.8l-0.5-2.4H73v25.4h25.9
	c-1.3,3.4-3.5,6.3-6.4,8.6l-1.4,0.9c-4.3,2.9-9.4,4.3-15.3,4.3l-0.2,0c-11.1,0-21.1-7.5-24.8-18.6c-1-2.9-1.4-5.8-1.4-8.5
	c0-2.8,0.5-5.7,1.4-8.6l0.4-1.1C55.4,54.8,65.1,47.9,76,47.9c6.7,0,12.4,2.2,17,6.7l2.1,2L113.7,38l-2.3-2.1
	c-9.7-9-22-13.8-35.5-13.8c-18.9,0-36,9.8-45.5,25.9l-0.1,0l-0.6,1.3c-0.4,0.7-0.8,1.4-1.1,2.1l-1.1,2.2l0.1,0.1
	c-3,6.8-4.6,14-4.6,21.4c0,7.4,1.6,14.6,4.6,21.4l-0.1,0.1l1.1,2.2c0.5,1,1,1.9,1.5,2.8l0.2,0.4l0,0c9.5,16.1,26.7,26,45.5,26
	c12.9,0,24.3-3.9,33.2-11.3l0.1,0.1l1.9-1.7c0.6-0.5,1.1-1.1,1.7-1.6L113.6,112.6L113.6,112.6z"/>
<g transform="translate(1184.583 765.171)">
	<path class="st1" d="M-1108.6-699.3v19.4h26.9c-1.2,6.2-4.7,11.5-10,15l16.2,12.6c9.5-8.7,14.9-21.5,14.9-36.8
		c0-3.5-0.3-7-0.9-10.2H-1108.6z"/>
	<path class="st2" d="M-1136.6-680.7l-3.7,2.8l-13,10.1l0,0c8.2,16.3,25.1,27.6,44.6,27.6c13.5,0,24.8-4.5,33.1-12.1l-16.2-12.6
		c-4.5,3-10.1,4.8-16.9,4.8C-1121.6-660-1132.6-668.8-1136.6-680.7L-1136.6-680.7z"/>
	<path class="st3" d="M-1153.2-712.6c-3.4,6.7-5.4,14.3-5.4,22.4c0,8.1,2,15.7,5.4,22.4l16.6-12.9c-1-3-1.6-6.2-1.6-9.5
		s0.6-6.5,1.6-9.5L-1153.2-712.6z"/>
	<path class="st4" d="M-1108.6-720.3c7.4,0,13.9,2.5,19.1,7.5l14.3-14.3c-8.7-8.1-20-13-33.5-13c-19.5,0-36.4,11.2-44.6,27.6
		l16.6,12.9C-1132.6-711.5-1121.6-720.3-1108.6-720.3L-1108.6-720.3z"/>
</g>
</svg>
