<?xml version="1.0" encoding="utf-8"?>
<!-- Generator: Adobe Illustrator 28.0.0, SVG Export Plug-In . SVG Version: 6.00 Build 0)  -->
<svg version="1.1" id="Layer_1" xmlns="http://www.w3.org/2000/svg" xmlns:xlink="http://www.w3.org/1999/xlink" x="0px" y="0px"
	 width="150px" height="150px" viewBox="0 0 150 150" style="enable-background:new 0 0 150 150;" xml:space="preserve">
<g>
	<path style="fill:#D3D3D3;" d="M97.436,99.516c-0.831,6.346,3.566,12.214,9.828,13.27c6.827,0.657,12.998-4.2,13.895-11.053
		l5.705-43.589c0.152-1.164-0.668-2.231-1.832-2.383l-21.501-2.814L97.436,99.516z"/>
	<g>
		<defs>
			<path id="SVGID_00000156548685387325872180000006043612874953798043_" d="M97.436,99.516l6.647-50.785
				c0.152-1.164-0.668-2.231-1.832-2.383l-70.103-9.175c-1.164-0.152-2.231,0.668-2.383,1.832l-6.537,49.944
				c-0.914,6.984,4.006,13.386,10.99,14.3l72.604,9.502c0.148,0.019,0.294,0.021,0.441,0.035
				C101.002,111.73,96.605,105.861,97.436,99.516z"/>
		</defs>
		<clipPath id="SVGID_00000127756713947494849840000004422310094762140066_">
			<use xlink:href="#SVGID_00000156548685387325872180000006043612874953798043_"  style="overflow:visible;"/>
		</clipPath>
		<path style="clip-path:url(#SVGID_00000127756713947494849840000004422310094762140066_);fill:#F1F1F1;" d="M97.436,99.516
			l6.647-50.785c0.152-1.164-0.668-2.231-1.832-2.383l-70.103-9.175c-1.164-0.152-2.231,0.668-2.383,1.832l-6.537,49.944
			c-0.914,6.984,4.006,13.386,10.99,14.3l72.604,9.502c0.148,0.019,0.294,0.021,0.441,0.035
			C101.002,111.73,96.605,105.861,97.436,99.516z"/>
		<g style="clip-path:url(#SVGID_00000127756713947494849840000004422310094762140066_);">
			<g>
				<g>
					<g>
						<path style="fill:#2A002B;" d="M57.813,54.697c-0.142-0.034-0.293-0.003-0.43,0.094l-1.184,0.905l-0.944-1.218
							c-0.181-0.179-0.462-0.203-0.675-0.054l-1.184,0.905l-0.944-1.218c-0.01-0.01-0.023-0.014-0.034-0.023
							c-0.063-0.06-0.138-0.106-0.221-0.126c-0.142-0.034-0.293-0.003-0.43,0.094l-1.184,0.905l-0.944-1.218
							c-0.181-0.179-0.462-0.203-0.676-0.054l-1.184,0.905l-0.944-1.218c-0.181-0.179-0.463-0.203-0.676-0.054l-1.589,1.215
							c-0.324,0.271-0.197,0.512-0.135,0.629c0.069,0.132,0.188,0.227,0.326,0.26c0.017,0.004,0.034,0.007,0.051,0.009
							c0.127,0.017,0.258-0.018,0.379-0.103l1.184-0.905l0.944,1.218c0.181,0.179,0.463,0.203,0.675,0.054l1.184-0.905l0.944,1.218
							c0.1,0.099,0.145,0.13,0.246,0.146c0.003,0.001,0.006,0.002,0.009,0.003c0.017,0.004,0.034,0.007,0.051,0.009
							c0.046,0.006,0.093,0.003,0.139-0.005c0.012-0.001,0.022-0.004,0.033-0.006c0.008-0.002,0.016-0.003,0.024-0.005
							c0.024-0.006,0.048-0.015,0.071-0.026c0.038-0.016,0.076-0.036,0.112-0.062l1.184-0.905l0.944,1.218
							c0.18,0.179,0.462,0.203,0.676,0.054l1.184-0.905l0.944,1.218c0.127,0.126,0.162,0.142,0.339,0.157l0.014-0.152l-0.013,0.152
							l0.013,0c0.158,0,0.202-0.018,0.323-0.104l1.589-1.215c0.323-0.271,0.197-0.511,0.135-0.629
							C58.07,54.826,57.951,54.731,57.813,54.697z"/>
						<path style="fill:#2A002B;" d="M35.093,54.162c0.017,0.004,0.034,0.007,0.051,0.009c0.127,0.017,0.258-0.018,0.379-0.103
							l1.184-0.905l0.944,1.218c0.18,0.179,0.462,0.203,0.675,0.054l1.184-0.905l0.944,1.218c0.127,0.126,0.162,0.142,0.339,0.157
							l0.014-0.152l0,0l-0.013,0.152l0.013,0c0.158,0,0.202-0.018,0.323-0.104l1.589-1.215c0.323-0.27,0.197-0.511,0.135-0.629
							c-0.069-0.132-0.188-0.227-0.326-0.26c-0.143-0.034-0.293-0.003-0.43,0.094l-1.184,0.905l-0.944-1.218
							c-0.181-0.179-0.462-0.203-0.676-0.054l-1.184,0.905l-0.944-1.218c-0.181-0.179-0.462-0.203-0.676-0.054l-1.589,1.215
							c-0.324,0.271-0.197,0.512-0.135,0.629C34.836,54.033,34.955,54.128,35.093,54.162z"/>
					</g>
					<g>
						<path style="fill:#2A002B;" d="M45.014,49.628c0.082,0.097,0.119,0.126,0.272,0.167l0.015,0.003
							c0.175,0.029,0.212,0.024,0.383-0.076l1.209-0.923l0.915,1.184c0.164,0.194,0.442,0.243,0.679,0.105l1.209-0.923l0.852,1.102
							c0.008,0.013,0.016,0.026,0.025,0.039c0.068,0.102,0.164,0.173,0.274,0.21c0.009,0.003,0.018,0.005,0.028,0.008
							c0.014,0.004,0.028,0.01,0.043,0.012c0.009,0.001,0.017,0.003,0.026,0.004c0.001,0,0.002,0,0.002,0
							c0.001,0,0.001,0,0.002,0.001c0.017,0.002,0.034,0.004,0.052,0.004c0.008,0,0.016-0.002,0.024-0.002
							c0.018-0.001,0.036-0.003,0.053-0.005c0.014-0.002,0.028-0.004,0.042-0.007c0.076-0.016,0.151-0.048,0.221-0.098l1.279-0.978
							l1.011,1.306c0.062,0.065,0.09,0.083,0.137,0.108c0.178,0.099,0.404,0.083,0.581-0.043l1.704-1.303
							c0.353-0.29,0.263-0.491,0.114-0.71c-0.082-0.123-0.204-0.204-0.344-0.23c-0.141-0.027-0.291,0.009-0.422,0.103l-1.279,0.978
							l-1.01-1.306c-0.152-0.16-0.252-0.174-0.351-0.174l-0.034-0.001c-0.17,0.001-0.237,0.04-0.333,0.109L51.075,49.3l-0.891-1.153
							c-0.164-0.194-0.442-0.244-0.679-0.105l-1.209,0.923l-0.915-1.184c-0.163-0.194-0.442-0.244-0.679-0.105l-1.209,0.923
							l-0.915-1.184c-0.104-0.124-0.241-0.193-0.388-0.196c-0.142-0.003-0.281,0.058-0.383,0.169
							c-0.089,0.096-0.273,0.296-0.026,0.646L45.014,49.628z"/>
						<path style="fill:#2A002B;" d="M35.902,48.573c0.009,0.001,0.017,0.003,0.026,0.004c0.134,0.018,0.273-0.019,0.396-0.107
							l1.279-0.978l1.011,1.306c0.062,0.065,0.09,0.083,0.137,0.108c0.178,0.099,0.405,0.083,0.581-0.043l1.704-1.303
							c0.353-0.29,0.263-0.491,0.114-0.71c-0.082-0.123-0.204-0.204-0.344-0.23c-0.142-0.027-0.291,0.009-0.422,0.103l-1.279,0.978
							l-1.01-1.306c-0.152-0.16-0.252-0.174-0.351-0.174L37.71,46.22c-0.17,0.001-0.237,0.04-0.333,0.109l-1.704,1.303
							c-0.353,0.29-0.263,0.491-0.114,0.71C35.641,48.465,35.763,48.547,35.902,48.573z"/>
					</g>
					<g>
						<path style="fill:#2A002B;" d="M33.922,63.12c0.148,0.001,0.284,0.073,0.392,0.201l0.911,1.179l1.225-0.934
							c0.221-0.127,0.499-0.078,0.667,0.121l0.911,1.179l1.225-0.934c0.012-0.007,0.025-0.008,0.038-0.014
							c0.076-0.042,0.161-0.067,0.247-0.065c0.146,0.001,0.284,0.073,0.392,0.201l0.911,1.179l1.225-0.934
							c0.221-0.127,0.499-0.077,0.667,0.121l0.911,1.179l1.225-0.934c0.22-0.126,0.499-0.078,0.667,0.121l1.223,1.583
							c0.243,0.344,0.059,0.545-0.031,0.643c-0.101,0.11-0.24,0.171-0.381,0.168c-0.017,0-0.035-0.002-0.052-0.004
							c-0.127-0.017-0.245-0.084-0.34-0.197l-0.911-1.179l-1.225,0.934c-0.22,0.127-0.499,0.078-0.667-0.121l-0.911-1.179
							l-1.225,0.934c-0.122,0.07-0.174,0.088-0.275,0.078c-0.003,0-0.006,0.001-0.009,0.001c-0.017,0-0.035-0.002-0.052-0.004
							c-0.046-0.006-0.09-0.021-0.133-0.04c-0.011-0.004-0.021-0.009-0.03-0.014c-0.007-0.004-0.015-0.007-0.022-0.011
							c-0.022-0.012-0.043-0.027-0.062-0.044c-0.033-0.026-0.064-0.054-0.093-0.088l-0.911-1.179l-1.225,0.934
							c-0.22,0.127-0.499,0.078-0.667-0.121l-0.911-1.179l-1.225,0.934c-0.155,0.089-0.193,0.095-0.368,0.065l0.025-0.15L35.03,65.7
							l-0.013-0.003c-0.153-0.04-0.19-0.069-0.285-0.183l-1.223-1.583c-0.243-0.345-0.058-0.545,0.031-0.642
							C33.641,63.178,33.78,63.117,33.922,63.12z"/>
					</g>
					<g>
						<g>
							<path style="fill:#2A002B;" d="M56.592,60.235c-0.141-0.022-0.291,0.009-0.422,0.103l-1.279,0.978l-1.01-1.306
								c-0.152-0.16-0.253-0.174-0.351-0.174l-0.035-0.001c-0.169,0.001-0.236,0.04-0.333,0.109l-1.316,1.006l-0.891-1.153
								c-0.164-0.194-0.443-0.243-0.679-0.105l-1.209,0.923l-0.915-1.184c-0.163-0.194-0.442-0.243-0.679-0.105l-1.209,0.923
								l-0.915-1.184c-0.104-0.124-0.243-0.195-0.388-0.196c-0.094-0.002-0.186,0.027-0.268,0.077
								c-0.011,0.006-0.023,0.006-0.034,0.013l-1.209,0.923l-0.915-1.184c-0.164-0.194-0.442-0.243-0.679-0.105l-1.209,0.923
								l-0.902-1.167c-0.023-0.047-0.051-0.094-0.083-0.141c-0.082-0.122-0.204-0.204-0.344-0.23
								c-0.141-0.022-0.291,0.009-0.422,0.103l-1.279,0.978l-1.01-1.306c-0.152-0.16-0.252-0.174-0.351-0.174l-0.035-0.001
								c-0.169,0.001-0.236,0.04-0.333,0.109l-1.704,1.303c-0.353,0.29-0.263,0.491-0.114,0.71c0.082,0.123,0.204,0.204,0.343,0.23
								c0.009,0.002,0.017,0.003,0.026,0.004c0.134,0.018,0.273-0.019,0.396-0.107l1.279-0.978l1.01,1.305
								c0.057,0.06,0.085,0.08,0.137,0.109c0.178,0.098,0.405,0.082,0.581-0.043l1.303-0.996l1.021,1.321
								c0.081,0.097,0.119,0.126,0.272,0.167l0.013,0.003c0.175,0.031,0.213,0.024,0.384-0.076l1.209-0.923l0.915,1.184
								c0.164,0.194,0.442,0.243,0.679,0.105l1.209-0.923l0.915,1.184c0.024,0.029,0.051,0.055,0.079,0.077
								c0.022,0.021,0.047,0.037,0.074,0.052c0.006,0.003,0.011,0.005,0.017,0.008c0.01,0.005,0.02,0.01,0.032,0.014
								c0.043,0.019,0.088,0.034,0.134,0.04c0.017,0.002,0.035,0.004,0.052,0.004c0.003,0,0.007-0.001,0.01-0.001
								c0.102,0.01,0.156-0.01,0.291-0.089l1.209-0.923l0.915,1.184c0.164,0.194,0.442,0.243,0.679,0.105l1.209-0.923l0.851,1.102
								c0.009,0.013,0.017,0.027,0.026,0.04c0.068,0.101,0.163,0.172,0.273,0.209c0.011,0.004,0.021,0.006,0.032,0.009
								c0.013,0.003,0.025,0.009,0.039,0.011c0.009,0.002,0.017,0.003,0.026,0.004c0.001,0,0.002,0,0.002,0
								c0.001,0,0.002,0,0.002,0.001c0.017,0.002,0.035,0.004,0.052,0.004c0.008,0,0.015-0.002,0.023-0.002
								c0.019-0.001,0.037-0.003,0.056-0.005c0.014-0.002,0.027-0.004,0.041-0.007c0.076-0.016,0.151-0.048,0.22-0.098l1.279-0.978
								l1.01,1.305c0.057,0.06,0.085,0.08,0.137,0.109c0.179,0.098,0.405,0.082,0.581-0.043l1.704-1.303
								c0.353-0.29,0.263-0.491,0.114-0.711C56.854,60.342,56.732,60.261,56.592,60.235z"/>
						</g>
						<path style="fill:#2A002B;" d="M60.84,62.082l1.011,1.306c0.062,0.065,0.091,0.083,0.137,0.109
							c0.178,0.098,0.405,0.082,0.581-0.043l1.704-1.303c0.353-0.29,0.263-0.491,0.114-0.71c-0.082-0.123-0.204-0.204-0.344-0.23
							c-0.141-0.028-0.291,0.009-0.422,0.103l-1.279,0.978l-1.01-1.306c-0.152-0.16-0.252-0.174-0.351-0.174l-0.034-0.001
							c-0.169,0.001-0.236,0.04-0.333,0.109l-1.704,1.303c-0.353,0.29-0.263,0.491-0.114,0.71c0.082,0.123,0.204,0.205,0.344,0.23
							c0.009,0.002,0.017,0.003,0.026,0.004"/>
					</g>
					<g>
						<g>
							<path style="fill:#2A002B;" d="M54.363,77.267c-0.141-0.022-0.291,0.009-0.422,0.103l-1.279,0.978l-1.01-1.306
								c-0.152-0.16-0.253-0.174-0.351-0.174l-0.035-0.001c-0.169,0.001-0.236,0.04-0.333,0.109l-1.316,1.006l-0.891-1.153
								c-0.164-0.194-0.443-0.243-0.679-0.105l-1.209,0.923l-0.915-1.184c-0.163-0.194-0.442-0.243-0.679-0.105l-1.209,0.923
								l-0.915-1.185c-0.104-0.124-0.243-0.195-0.388-0.196c-0.094-0.002-0.186,0.026-0.268,0.077
								c-0.011,0.006-0.023,0.006-0.034,0.013l-1.209,0.923l-0.915-1.184c-0.164-0.194-0.442-0.243-0.679-0.105l-1.209,0.923
								l-0.902-1.167c-0.023-0.047-0.051-0.094-0.083-0.141c-0.082-0.122-0.204-0.204-0.344-0.23
								c-0.141-0.022-0.291,0.009-0.422,0.103l-1.279,0.978l-1.01-1.306c-0.152-0.16-0.252-0.174-0.351-0.174l-0.035-0.001
								c-0.169,0.001-0.236,0.04-0.333,0.109l-1.704,1.303c-0.353,0.29-0.263,0.491-0.114,0.71c0.082,0.123,0.204,0.204,0.343,0.23
								c0.009,0.002,0.017,0.003,0.026,0.004c0.134,0.018,0.273-0.019,0.396-0.107l1.279-0.978l1.01,1.305
								c0.057,0.06,0.085,0.08,0.137,0.109c0.178,0.098,0.405,0.082,0.581-0.043l1.303-0.996l1.021,1.321
								c0.081,0.097,0.119,0.126,0.272,0.167l0.013,0.003c0.175,0.031,0.213,0.024,0.384-0.076l1.209-0.923l0.915,1.184
								c0.164,0.194,0.442,0.243,0.679,0.105l1.209-0.923l0.915,1.184c0.024,0.029,0.051,0.055,0.079,0.077
								c0.022,0.021,0.047,0.037,0.074,0.052c0.006,0.003,0.011,0.005,0.017,0.008c0.01,0.005,0.02,0.01,0.032,0.014
								c0.043,0.019,0.088,0.034,0.134,0.04c0.017,0.002,0.035,0.004,0.052,0.004c0.003,0,0.007-0.001,0.01-0.001
								c0.102,0.01,0.156-0.01,0.291-0.089l1.209-0.923l0.915,1.184c0.164,0.194,0.442,0.243,0.679,0.105l1.209-0.923l0.851,1.102
								c0.009,0.013,0.017,0.027,0.026,0.04c0.068,0.101,0.163,0.172,0.273,0.209c0.011,0.004,0.021,0.006,0.032,0.009
								c0.013,0.003,0.025,0.009,0.039,0.011c0.009,0.002,0.017,0.003,0.026,0.004c0.001,0,0.002,0,0.002,0
								c0.001,0,0.002,0,0.002,0.001c0.017,0.002,0.035,0.004,0.052,0.004c0.008,0,0.015-0.002,0.023-0.002
								c0.019-0.001,0.037-0.003,0.056-0.005c0.014-0.002,0.027-0.004,0.041-0.007c0.076-0.016,0.151-0.048,0.22-0.098l1.279-0.978
								l1.01,1.305c0.057,0.06,0.085,0.08,0.137,0.109c0.179,0.098,0.405,0.082,0.581-0.043l1.704-1.303
								c0.353-0.29,0.263-0.491,0.114-0.711C54.625,77.374,54.503,77.292,54.363,77.267z"/>
						</g>
						<path style="fill:#2A002B;" d="M58.611,79.114l1.011,1.306c0.062,0.065,0.091,0.083,0.137,0.109
							c0.178,0.098,0.405,0.082,0.581-0.043l1.704-1.303c0.353-0.29,0.263-0.491,0.114-0.71c-0.082-0.123-0.204-0.204-0.344-0.23
							c-0.141-0.028-0.291,0.009-0.422,0.103l-1.279,0.978l-1.01-1.306c-0.152-0.16-0.252-0.174-0.351-0.174l-0.034-0.001
							c-0.169,0.001-0.236,0.04-0.333,0.109l-1.704,1.303c-0.353,0.29-0.263,0.491-0.114,0.71c0.082,0.123,0.204,0.204,0.344,0.23
							c0.009,0.002,0.017,0.003,0.026,0.004"/>
					</g>
					<g>
						<path style="fill:#2A002B;" d="M55.141,72.885l1.011,1.306c0.062,0.065,0.091,0.083,0.137,0.109
							c0.178,0.098,0.405,0.082,0.581-0.043l1.704-1.303c0.353-0.29,0.263-0.491,0.114-0.71c-0.082-0.123-0.204-0.204-0.344-0.23
							c-0.141-0.028-0.291,0.009-0.422,0.103l-1.279,0.978l-1.01-1.306c-0.152-0.16-0.252-0.174-0.351-0.174l-0.034-0.001
							c-0.169,0.001-0.236,0.04-0.333,0.109l-1.704,1.303c-0.353,0.29-0.263,0.491-0.114,0.71c0.082,0.123,0.204,0.204,0.344,0.23
							c0.009,0.002,0.017,0.003,0.026,0.004"/>
						<path style="fill:#2A002B;" d="M45.468,70.628c-0.164-0.194-0.442-0.244-0.679-0.105l-1.209,0.923l-0.915-1.184
							c-0.164-0.194-0.442-0.243-0.679-0.105l-1.209,0.923l-0.915-1.184c-0.104-0.124-0.242-0.195-0.388-0.196
							c-0.142-0.003-0.281,0.058-0.383,0.17c-0.088,0.096-0.273,0.296-0.026,0.646l1.233,1.594c0.081,0.097,0.119,0.126,0.272,0.167
							l0.013,0.003c0.176,0.032,0.213,0.025,0.384-0.076l1.209-0.923l0.915,1.184c0.164,0.194,0.442,0.243,0.679,0.105l1.209-0.923
							l0.85,1.101c0.009,0.014,0.017,0.027,0.026,0.041c0.068,0.102,0.164,0.173,0.275,0.21c0.008,0.003,0.016,0.005,0.025,0.007
							c0.015,0.004,0.029,0.01,0.044,0.013c0.009,0.002,0.017,0.003,0.026,0.004c0.001,0,0.003,0,0.004,0c0,0,0.001,0,0.001,0
							c0.017,0.002,0.034,0.004,0.052,0.004c0.007,0,0.015-0.002,0.022-0.002c0.019-0.001,0.038-0.003,0.057-0.005
							c0.013-0.002,0.026-0.004,0.039-0.007c0.076-0.016,0.151-0.048,0.221-0.098l1.279-0.978l1.011,1.306
							c0.062,0.065,0.091,0.083,0.137,0.109c0.179,0.098,0.405,0.082,0.581-0.043l1.704-1.303c0.353-0.29,0.263-0.491,0.114-0.71
							c-0.082-0.123-0.204-0.204-0.344-0.23c-0.141-0.028-0.291,0.009-0.422,0.103l-1.279,0.978l-1.011-1.306
							c-0.153-0.161-0.253-0.174-0.351-0.174l-0.034-0.001c-0.169,0.001-0.236,0.04-0.333,0.109l-1.316,1.006L45.468,70.628z"/>
					</g>
				</g>
				<g>
					<path style="fill:#2A002B;" d="M54.019,83.708c-0.142-0.034-0.293-0.003-0.43,0.094l-1.184,0.905l-0.944-1.218
						c-0.181-0.179-0.462-0.203-0.675-0.054l-1.184,0.905l-0.944-1.218c-0.01-0.01-0.023-0.014-0.034-0.023
						c-0.063-0.06-0.138-0.106-0.221-0.126c-0.142-0.034-0.293-0.003-0.43,0.094l-1.184,0.905l-0.944-1.218
						c-0.181-0.179-0.462-0.203-0.676-0.054l-1.184,0.905l-0.944-1.218c-0.181-0.179-0.463-0.203-0.676-0.054l-1.589,1.215
						c-0.324,0.271-0.197,0.512-0.135,0.629c0.069,0.132,0.188,0.227,0.326,0.26c0.017,0.004,0.034,0.007,0.051,0.009
						c0.127,0.017,0.258-0.018,0.379-0.103l1.184-0.905l0.944,1.218c0.181,0.179,0.463,0.203,0.675,0.054l1.184-0.905l0.944,1.218
						c0.1,0.099,0.145,0.13,0.246,0.146c0.003,0.001,0.006,0.002,0.009,0.003c0.017,0.004,0.034,0.007,0.051,0.009
						c0.046,0.006,0.093,0.003,0.139-0.005c0.012-0.001,0.022-0.004,0.033-0.006c0.008-0.002,0.016-0.003,0.024-0.005
						c0.024-0.006,0.048-0.015,0.071-0.026c0.038-0.016,0.076-0.036,0.112-0.062l1.184-0.905l0.944,1.218
						c0.18,0.179,0.462,0.203,0.676,0.054l1.184-0.905l0.944,1.218c0.127,0.126,0.162,0.142,0.339,0.157l0.014-0.152l-0.013,0.152
						l0.013,0.001c0.158,0,0.202-0.018,0.323-0.104l1.589-1.215c0.323-0.271,0.197-0.511,0.135-0.629
						C54.275,83.837,54.156,83.742,54.019,83.708z"/>
					<path style="fill:#2A002B;" d="M31.298,83.172c0.017,0.004,0.034,0.007,0.051,0.009c0.127,0.017,0.258-0.018,0.379-0.103
						l1.184-0.905l0.944,1.218c0.18,0.179,0.462,0.203,0.675,0.054l1.184-0.905l0.944,1.218c0.127,0.126,0.162,0.142,0.339,0.157
						l0.014-0.152l0,0l-0.013,0.152l0.013,0c0.158,0,0.202-0.018,0.323-0.104l1.589-1.215c0.323-0.27,0.197-0.511,0.135-0.629
						c-0.069-0.132-0.188-0.227-0.326-0.26c-0.143-0.034-0.293-0.003-0.43,0.094l-1.184,0.905l-0.944-1.218
						c-0.181-0.179-0.462-0.203-0.676-0.054l-1.184,0.905l-0.944-1.218c-0.181-0.179-0.462-0.203-0.676-0.054l-1.589,1.215
						c-0.324,0.271-0.197,0.512-0.135,0.629C31.041,83.044,31.16,83.139,31.298,83.172z"/>
				</g>
				<g>
					<path style="fill:#2A002B;" d="M30.127,92.131c0.148,0.001,0.284,0.073,0.392,0.201l0.911,1.179l1.225-0.934
						c0.221-0.127,0.499-0.078,0.667,0.121l0.911,1.179l1.225-0.934c0.012-0.007,0.025-0.008,0.038-0.014
						c0.076-0.042,0.161-0.067,0.247-0.065c0.146,0.001,0.284,0.073,0.392,0.201l0.911,1.179l1.225-0.934
						c0.221-0.127,0.499-0.077,0.667,0.121l0.911,1.179l1.225-0.934c0.22-0.126,0.499-0.078,0.667,0.121l1.223,1.583
						c0.243,0.344,0.059,0.545-0.031,0.643c-0.101,0.11-0.24,0.171-0.381,0.168c-0.017,0-0.035-0.002-0.052-0.004
						c-0.127-0.017-0.245-0.084-0.34-0.197l-0.911-1.179l-1.225,0.934c-0.22,0.127-0.499,0.078-0.667-0.121l-0.911-1.179
						l-1.225,0.934c-0.122,0.07-0.174,0.088-0.275,0.078c-0.003,0-0.006,0.001-0.009,0.001c-0.017,0-0.035-0.002-0.052-0.004
						c-0.046-0.006-0.09-0.021-0.133-0.04c-0.011-0.004-0.021-0.009-0.03-0.014c-0.007-0.004-0.015-0.007-0.022-0.011
						c-0.022-0.012-0.043-0.027-0.062-0.044c-0.033-0.026-0.064-0.054-0.093-0.088l-0.911-1.179l-1.225,0.934
						c-0.22,0.127-0.499,0.078-0.667-0.121l-0.911-1.179l-1.225,0.934c-0.155,0.089-0.193,0.095-0.368,0.065l0.025-0.15l-0.026,0.15
						l-0.013-0.003c-0.153-0.04-0.19-0.069-0.285-0.183l-1.223-1.583c-0.243-0.345-0.058-0.545,0.031-0.642
						C29.846,92.189,29.985,92.128,30.127,92.131z"/>
				</g>
				<g>
					<g>
						<path style="fill:#2A002B;" d="M52.797,89.246c-0.141-0.022-0.291,0.009-0.422,0.103l-1.279,0.978l-1.01-1.306
							c-0.152-0.16-0.253-0.174-0.351-0.174L49.7,88.846c-0.169,0.001-0.236,0.04-0.333,0.109l-1.316,1.006l-0.891-1.153
							c-0.164-0.194-0.443-0.243-0.679-0.105l-1.209,0.923l-0.915-1.184c-0.163-0.194-0.442-0.243-0.679-0.105l-1.209,0.923
							l-0.915-1.184c-0.104-0.124-0.243-0.195-0.388-0.196c-0.094-0.002-0.186,0.026-0.268,0.077
							c-0.011,0.006-0.023,0.006-0.034,0.013l-1.209,0.923l-0.915-1.184c-0.164-0.194-0.442-0.243-0.679-0.105l-1.209,0.923
							l-0.902-1.167c-0.023-0.047-0.051-0.094-0.083-0.141c-0.082-0.122-0.204-0.204-0.344-0.23
							c-0.141-0.022-0.291,0.009-0.422,0.103l-1.279,0.978l-1.01-1.306c-0.152-0.16-0.252-0.174-0.351-0.174l-0.035-0.001
							c-0.169,0.001-0.236,0.04-0.333,0.109l-1.704,1.303c-0.353,0.29-0.263,0.491-0.114,0.71c0.082,0.123,0.204,0.204,0.343,0.23
							c0.009,0.002,0.017,0.003,0.026,0.004c0.134,0.018,0.273-0.019,0.396-0.107l1.279-0.978l1.01,1.305
							c0.057,0.06,0.085,0.08,0.137,0.109c0.178,0.098,0.405,0.082,0.581-0.043l1.303-0.996l1.021,1.321
							c0.081,0.097,0.119,0.126,0.272,0.167l0.013,0.003c0.175,0.031,0.213,0.024,0.384-0.076l1.209-0.923l0.915,1.185
							c0.164,0.194,0.442,0.243,0.679,0.105l1.209-0.923l0.915,1.185c0.024,0.029,0.051,0.055,0.079,0.077
							c0.022,0.021,0.047,0.037,0.074,0.052c0.006,0.003,0.011,0.005,0.017,0.008c0.01,0.005,0.02,0.01,0.032,0.014
							c0.043,0.019,0.088,0.034,0.134,0.04c0.017,0.002,0.035,0.004,0.052,0.004c0.003,0,0.007-0.001,0.01-0.001
							c0.102,0.01,0.156-0.01,0.291-0.089l1.209-0.923l0.915,1.184c0.164,0.194,0.442,0.243,0.679,0.105l1.209-0.923l0.851,1.102
							c0.009,0.013,0.017,0.027,0.026,0.04c0.068,0.101,0.163,0.172,0.273,0.209c0.011,0.004,0.021,0.006,0.032,0.009
							c0.013,0.003,0.025,0.009,0.039,0.011c0.009,0.002,0.017,0.003,0.026,0.004c0.001,0,0.002,0,0.002,0
							c0.001,0,0.002,0,0.002,0.001c0.017,0.002,0.035,0.004,0.052,0.004c0.008,0,0.015-0.002,0.023-0.002
							c0.019-0.001,0.037-0.003,0.056-0.005c0.014-0.002,0.027-0.004,0.041-0.007c0.076-0.016,0.151-0.048,0.22-0.098l1.279-0.978
							l1.01,1.305c0.057,0.06,0.085,0.08,0.137,0.109c0.179,0.098,0.405,0.082,0.581-0.043l1.704-1.303
							c0.353-0.29,0.263-0.491,0.114-0.711C53.059,89.353,52.937,89.271,52.797,89.246z"/>
					</g>
					<path style="fill:#2A002B;" d="M57.045,91.093l1.011,1.306c0.062,0.065,0.091,0.083,0.137,0.109
						c0.178,0.098,0.405,0.082,0.581-0.043l1.704-1.303c0.353-0.29,0.263-0.491,0.114-0.71c-0.082-0.123-0.204-0.204-0.344-0.23
						c-0.141-0.028-0.291,0.009-0.422,0.103l-1.279,0.978l-1.01-1.306c-0.152-0.16-0.252-0.174-0.351-0.174l-0.034-0.001
						c-0.169,0.001-0.236,0.04-0.333,0.109l-1.704,1.303c-0.353,0.29-0.263,0.491-0.114,0.71c0.082,0.123,0.204,0.204,0.344,0.23
						c0.009,0.002,0.017,0.003,0.026,0.004"/>
				</g>
			</g>
			<g>
				<g>
					<path style="fill:#2A002B;" d="M80.118,93.865c0.082,0.097,0.119,0.126,0.272,0.167l0.015,0.003
						c0.175,0.029,0.212,0.024,0.383-0.076l1.209-0.923l0.915,1.184c0.164,0.194,0.442,0.243,0.679,0.105l1.209-0.923l0.852,1.102
						c0.008,0.013,0.016,0.026,0.025,0.039c0.068,0.102,0.164,0.173,0.274,0.21c0.009,0.003,0.018,0.005,0.028,0.008
						c0.014,0.004,0.028,0.01,0.043,0.012c0.009,0.001,0.017,0.003,0.026,0.004c0.001,0,0.002,0,0.002,0s0.001,0,0.002,0.001
						c0.017,0.002,0.034,0.004,0.052,0.004c0.008,0,0.016-0.002,0.024-0.002c0.018-0.001,0.036-0.003,0.053-0.005
						c0.014-0.002,0.028-0.004,0.042-0.007c0.076-0.016,0.151-0.048,0.221-0.098l1.279-0.978L88.732,95
						c0.062,0.065,0.09,0.083,0.137,0.108c0.178,0.099,0.404,0.083,0.581-0.043l1.704-1.303c0.353-0.29,0.263-0.491,0.114-0.71
						c-0.082-0.123-0.204-0.204-0.344-0.23c-0.141-0.027-0.291,0.009-0.422,0.103l-1.279,0.978l-1.01-1.306
						c-0.152-0.16-0.252-0.174-0.351-0.174l-0.034-0.001c-0.17,0.001-0.237,0.04-0.333,0.109l-1.315,1.006l-0.891-1.153
						c-0.164-0.194-0.442-0.244-0.679-0.105L83.4,93.203l-0.915-1.184c-0.163-0.194-0.442-0.244-0.679-0.105l-1.209,0.923
						l-0.915-1.184c-0.104-0.124-0.241-0.193-0.388-0.196c-0.142-0.003-0.281,0.058-0.383,0.169
						c-0.089,0.096-0.273,0.296-0.026,0.646L80.118,93.865z"/>
					<path style="fill:#2A002B;" d="M71.006,92.81c0.009,0.001,0.017,0.003,0.026,0.004c0.134,0.018,0.273-0.019,0.396-0.107
						l1.279-0.978l1.011,1.306c0.062,0.065,0.09,0.083,0.137,0.108c0.178,0.099,0.405,0.083,0.581-0.043l1.704-1.303
						c0.353-0.29,0.263-0.491,0.114-0.71c-0.082-0.123-0.204-0.204-0.344-0.23c-0.142-0.027-0.291,0.009-0.422,0.103l-1.279,0.978
						l-1.01-1.306c-0.152-0.16-0.252-0.174-0.351-0.174l-0.034-0.001c-0.17,0.001-0.237,0.04-0.333,0.109l-1.704,1.303
						c-0.353,0.29-0.263,0.491-0.114,0.71C70.744,92.703,70.866,92.784,71.006,92.81z"/>
				</g>
			</g>
			<path style="fill:#D3D3D3;" d="M89.672,88.372l-21.78-2.851c-1.289-0.169-2.205-1.361-2.037-2.65l3.936-30.077
				c0.169-1.289,1.361-2.205,2.65-2.037l21.78,2.851c1.289,0.169,2.205,1.361,2.037,2.65l-3.936,30.077
				C92.154,87.624,90.961,88.541,89.672,88.372z"/>
			<path style="fill:#D3D3D3;" d="M82.929,135.62l-34.571-4.525c-1.592-0.208-2.723-1.681-2.515-3.273l3.792-28.976
				c0.208-1.592,1.681-2.723,3.273-2.515l34.571,4.525c1.592,0.208,2.723,1.681,2.515,3.273l-3.792,28.976
				C85.993,134.696,84.52,135.828,82.929,135.62z"/>
		</g>
	</g>
</g>
</svg>
