<?xml version="1.0" encoding="utf-8"?>
<!-- Generator: Adobe Illustrator 28.0.0, SVG Export Plug-In . SVG Version: 6.00 Build 0)  -->
<svg version="1.1" id="Layer_1" xmlns="http://www.w3.org/2000/svg" xmlns:xlink="http://www.w3.org/1999/xlink" x="0px" y="0px"
	 width="150px" height="150px" viewBox="0 0 150 150" style="enable-background:new 0 0 150 150;" xml:space="preserve">
<g>
	<g>
		<g>
			<path style="fill:#CB4A4A;" d="M54.314,95.686l-8.221-8.221c-8.591,8.591-8.072,16.65-7.121,20.464
				c0.381,1.529,1.572,2.719,3.101,3.101c3.814,0.951,11.873,1.469,20.463-7.122L54.314,95.686z"/>
			<path style="fill:#FF9E12;" d="M53.399,96.601l-5.421-5.421c-5.665,5.665-5.323,10.978-4.696,13.493
				c0.251,1.008,1.036,1.793,2.044,2.044c2.515,0.627,7.828,0.969,13.493-4.696L53.399,96.601z"/>
			<path style="fill:#FFB410;" d="M53.399,96.601l-2.869-2.869c-2.998,2.998-2.817,5.811-2.485,7.142
				c0.133,0.534,0.549,0.949,1.082,1.082c1.331,0.332,4.143,0.513,7.141-2.485L53.399,96.601z"/>
		</g>
		<g>
			<g>
				<path style="fill:#931DA4;" d="M71.296,120.147V88.365c0-1.755,1.423-3.177,3.177-3.177h15.254c1.755,0,3.177,1.423,3.177,3.177
					v27.297c0,1.41-0.929,2.651-2.281,3.048l-15.254,4.486C73.335,123.794,71.296,122.269,71.296,120.147z"/>
				<path style="fill:#931DA4;" d="M29.853,78.704h31.783c1.755,0,3.177-1.423,3.177-3.177V60.272c0-1.755-1.423-3.177-3.177-3.177
					H34.338c-1.41,0-2.651,0.929-3.048,2.281L26.804,74.63C26.206,76.665,27.731,78.704,29.853,78.704z"/>
			</g>
			<g>
				<defs>
					<path id="SVGID_00000132766376688226895050000010776065082791713715_" d="M71.296,120.147V88.365
						c0-1.755,1.423-3.177,3.177-3.177h15.254c1.755,0,3.177,1.423,3.177,3.177v27.297c0,1.41-0.929,2.651-2.281,3.048
						l-15.254,4.486C73.335,123.794,71.296,122.269,71.296,120.147z M29.853,78.704h31.783c1.755,0,3.177-1.423,3.177-3.177V60.272
						c0-1.755-1.423-3.177-3.177-3.177H34.338c-1.41,0-2.651,0.929-3.048,2.281L26.804,74.63
						C26.206,76.665,27.731,78.704,29.853,78.704z"/>
				</defs>
				<clipPath id="SVGID_00000008108810807474993490000000945060610366662299_">
					<use xlink:href="#SVGID_00000132766376688226895050000010776065082791713715_"  style="overflow:visible;"/>
				</clipPath>
				<path style="clip-path:url(#SVGID_00000008108810807474993490000000945060610366662299_);fill:#72137F;" d="M126.664,32.937
					c-1.055-4.7-4.898-8.544-9.602-9.602c-9.555-2.144-34.111-4.8-55.702,16.792C42.02,59.467,37.951,74.544,37.247,81.811
					c-0.37,3.817,0.965,7.552,3.662,10.249l17.03,17.03c2.697,2.697,6.432,4.032,10.249,3.662
					c7.267-0.704,22.344-4.773,41.684-24.113C131.466,67.047,128.81,42.491,126.664,32.937z"/>
			</g>
			<path style="fill:#DF1D68;" d="M122.014,33.981c-0.672-2.994-3.001-5.323-5.995-5.995c-9.437-2.118-31.571-4.206-51.289,15.511
				C46.387,61.84,42.625,75.73,41.991,82.27c-0.231,2.379,0.599,4.729,2.289,6.42l17.03,17.03c1.69,1.69,4.041,2.52,6.42,2.289
				c6.54-0.634,20.429-4.396,38.773-22.739C126.221,65.552,124.132,43.418,122.014,33.981z"/>
			<circle style="fill:#802275;" cx="93.48" cy="56.52" r="15.109"/>
			<circle style="fill:#8FD8E9;" cx="93.48" cy="56.52" r="10.345"/>
			<g>
				<defs>
					<path id="SVGID_00000054949288767515413630000007405574079761546919_" d="M122.014,33.981
						c-0.672-2.994-3.001-5.323-5.995-5.995c-9.437-2.118-31.571-4.206-51.289,15.511C46.387,61.84,42.625,75.73,41.991,82.27
						c-0.231,2.379,0.599,4.729,2.289,6.42l17.03,17.03c1.69,1.69,4.041,2.52,6.42,2.289c6.54-0.634,20.429-4.396,38.773-22.739
						C126.221,65.552,124.132,43.418,122.014,33.981z"/>
				</defs>
				<clipPath id="SVGID_00000135675232199548478420000000713567173124585869_">
					<use xlink:href="#SVGID_00000054949288767515413630000007405574079761546919_"  style="overflow:visible;"/>
				</clipPath>
				<polygon style="clip-path:url(#SVGID_00000135675232199548478420000000713567173124585869_);fill:#802275;" points="
					85.729,107.203 42.421,63.895 29.368,82.56 52.912,111.473 73.773,125.99 				"/>
				
					<ellipse transform="matrix(0.7071 -0.7071 0.7071 0.7071 13.12 93.3024)" style="clip-path:url(#SVGID_00000135675232199548478420000000713567173124585869_);fill:#802275;" cx="119.186" cy="30.814" rx="8.102" ry="10.345"/>
				<g style="clip-path:url(#SVGID_00000135675232199548478420000000713567173124585869_);">
					<path style="fill:#DF1D68;" d="M48.469,82.382L48.469,82.382c-0.981-0.981-0.981-2.587,0-3.568l4.758-4.758l3.568,3.568
						l-4.758,4.758C51.056,83.364,49.45,83.364,48.469,82.382z"/>
					<path style="fill:#DF1D68;" d="M54.852,88.765L54.852,88.765c-0.981-0.981-0.981-2.587,0-3.568l4.758-4.758l3.568,3.568
						l-4.758,4.758C57.439,89.747,55.833,89.747,54.852,88.765z"/>
					<path style="fill:#DF1D68;" d="M61.235,95.148L61.235,95.148c-0.981-0.981-0.981-2.587,0-3.568l4.758-4.758l3.568,3.568
						l-4.758,4.758C63.822,96.13,62.216,96.13,61.235,95.148z"/>
					<path style="fill:#DF1D68;" d="M67.618,101.531L67.618,101.531c-0.981-0.981-0.981-2.587,0-3.568l4.758-4.758l3.568,3.568
						l-4.758,4.758C70.205,102.513,68.599,102.513,67.618,101.531z"/>
				</g>
			</g>
			<g>
				<defs>
					<circle id="SVGID_00000093884402609018324950000018311975999163721373_" cx="93.48" cy="56.52" r="10.345"/>
				</defs>
				<clipPath id="SVGID_00000011724793886771827660000005778035262952454586_">
					<use xlink:href="#SVGID_00000093884402609018324950000018311975999163721373_"  style="overflow:visible;"/>
				</clipPath>
				
					<rect x="88.841" y="34.032" transform="matrix(-9.478700e-13 1 -1 -9.478700e-13 141.2104 -44.1492)" style="clip-path:url(#SVGID_00000011724793886771827660000005778035262952454586_);fill:#FFFFFF;" width="7.677" height="28.997"/>
				
					<rect x="91.153" y="44.217" transform="matrix(-1.836970e-16 1 -1 -1.836970e-16 152.0466 -34.6156)" style="clip-path:url(#SVGID_00000011724793886771827660000005778035262952454586_);fill:#FFFFFF;" width="4.356" height="28.997"/>
			</g>
		</g>
	</g>
</g>
</svg>
