<?xml version="1.0" encoding="utf-8"?>
<!-- Generator: Adobe Illustrator 28.0.0, SVG Export Plug-In . SVG Version: 6.00 Build 0)  -->
<svg version="1.1" id="Layer_1" xmlns="http://www.w3.org/2000/svg" xmlns:xlink="http://www.w3.org/1999/xlink" x="0px" y="0px"
	 width="150px" height="150px" viewBox="0 0 150 150" style="enable-background:new 0 0 150 150;" xml:space="preserve">
<g>
	<path style="fill:#801D76;" d="M116.02,27.984c-1.633-0.367-3.654-0.729-5.97-0.981c-0.597,3.046,0.596,6.728,3.408,9.539
		s6.493,4.005,9.539,3.408c-0.252-2.316-0.615-4.337-0.981-5.97C121.344,30.985,119.015,28.656,116.02,27.984z"/>
	<g>
		<path style="fill:#CC4947;" d="M54.315,95.685l-8.221-8.221c-8.591,8.591-8.072,16.65-7.121,20.464
			c0.381,1.529,1.572,2.719,3.101,3.101c3.814,0.951,11.873,1.469,20.463-7.122L54.315,95.685z"/>
		<path style="fill:#FF9E00;" d="M53.4,96.6l-5.421-5.421c-5.665,5.665-5.323,10.978-4.696,13.493
			c0.251,1.008,1.036,1.793,2.044,2.044c2.515,0.627,7.828,0.969,13.493-4.696L53.4,96.6z"/>
		<path style="fill:#FFB400;" d="M53.4,96.6l-2.869-2.869c-2.998,2.998-2.817,5.811-2.485,7.142
			c0.133,0.534,0.549,0.949,1.082,1.082c1.331,0.332,4.143,0.513,7.141-2.485L53.4,96.6z"/>
	</g>
	<g>
		<g>
			<path style="fill:#930EA5;" d="M71.298,120.146V88.363c0-1.755,1.423-3.177,3.177-3.177h15.254c1.755,0,3.177,1.423,3.177,3.177
				v27.297c0,1.41-0.929,2.651-2.281,3.048l-15.254,4.486C73.336,123.793,71.298,122.267,71.298,120.146z"/>
			<path style="fill:#930EA5;" d="M29.854,78.702h31.783c1.755,0,3.177-1.423,3.177-3.177V60.271c0-1.755-1.423-3.177-3.177-3.177
				H34.34c-1.41,0-2.651,0.929-3.048,2.281l-4.486,15.254C26.207,76.664,27.733,78.702,29.854,78.702z"/>
		</g>
		<g>
			<defs>
				<path id="SVGID_1_" d="M71.298,120.146V88.363c0-1.755,1.423-3.177,3.177-3.177h15.254c1.755,0,3.177,1.423,3.177,3.177v27.297
					c0,1.41-0.929,2.651-2.281,3.048l-15.254,4.486C73.336,123.793,71.298,122.267,71.298,120.146z M29.854,78.702h31.783
					c1.755,0,3.177-1.423,3.177-3.177V60.271c0-1.755-1.423-3.177-3.177-3.177H34.34c-1.41,0-2.651,0.929-3.048,2.281l-4.486,15.254
					C26.207,76.664,27.733,78.702,29.854,78.702z"/>
			</defs>
			<clipPath id="SVGID_00000005955887917007293140000015886429065213261746_">
				<use xlink:href="#SVGID_1_"  style="overflow:visible;"/>
			</clipPath>
			<path style="clip-path:url(#SVGID_00000005955887917007293140000015886429065213261746_);fill:#730780;" d="M126.666,32.935
				c-1.055-4.7-4.898-8.544-9.602-9.602c-9.555-2.144-34.111-4.8-55.702,16.792C42.021,59.466,37.953,74.543,37.248,81.81
				c-0.37,3.817,0.965,7.552,3.662,10.249l17.03,17.03c2.697,2.697,6.432,4.032,10.249,3.662
				c7.267-0.704,22.344-4.773,41.684-24.113C131.467,67.045,128.811,42.49,126.666,32.935z"/>
		</g>
	</g>
	<g>
		<g>
			<path style="fill:#E01467;" d="M122.997,39.95c-3.046,0.597-6.728-0.596-9.539-3.408s-4.005-6.493-3.408-9.539
				C98.987,25.8,81.036,27.191,64.732,43.495c-9.452,9.451-15.025,17.716-18.301,24.407l35.667,35.667
				c6.69-3.276,14.955-8.85,24.407-18.301C122.809,68.964,124.2,51.013,122.997,39.95z"/>
			<path style="fill:#801D76;" d="M41.992,82.269c-0.231,2.379,0.599,4.729,2.289,6.419l17.03,17.03
				c1.69,1.69,4.041,2.52,6.419,2.289c3.17-0.307,8.072-1.356,14.366-4.438L46.431,67.902C43.349,74.197,42.3,79.098,41.992,82.269z
				"/>
		</g>
		<g>
			<path style="fill:#E01467;" d="M48.47,82.381L48.47,82.381c-0.981-0.981-0.981-2.587,0-3.568l4.758-4.758l3.568,3.568
				l-4.758,4.758C51.057,83.362,49.451,83.362,48.47,82.381z"/>
			<path style="fill:#E01467;" d="M54.853,88.764L54.853,88.764c-0.981-0.981-0.981-2.587,0-3.568l4.758-4.758l3.568,3.568
				l-4.758,4.758C57.44,89.745,55.834,89.745,54.853,88.764z"/>
			<path style="fill:#E01467;" d="M61.236,95.147L61.236,95.147c-0.981-0.981-0.981-2.587,0-3.568l4.758-4.758l3.568,3.568
				l-4.758,4.758C63.823,96.128,62.217,96.128,61.236,95.147z"/>
			<path style="fill:#E01467;" d="M67.619,101.53L67.619,101.53c-0.981-0.981-0.981-2.587,0-3.568l4.758-4.758l3.568,3.568
				l-4.758,4.758C70.206,102.511,68.6,102.511,67.619,101.53z"/>
		</g>
	</g>
	<circle style="fill:#801D76;" cx="93.482" cy="56.518" r="15.109"/>
	<g>
		<path style="fill:#8BD7E9;" d="M102.949,52.368H84.014c-0.581,1.326-0.879,2.746-0.876,4.168h20.688
			C103.828,55.114,103.53,53.694,102.949,52.368z"/>
		<path style="fill:#8BD7E9;" d="M86.167,63.833c4.04,4.04,10.59,4.04,14.63,0c0.878-0.878,1.553-1.878,2.049-2.941H84.117
			C84.614,61.955,85.289,62.956,86.167,63.833z"/>
		<path style="fill:#4DBBCE;" d="M100.797,49.203c-4.04-4.04-10.59-4.04-14.63,0c-0.939,0.939-1.65,2.017-2.153,3.165h18.936
			C102.447,51.221,101.736,50.143,100.797,49.203z"/>
		<path style="fill:#4DBBCE;" d="M83.138,56.536c0.003,1.491,0.336,2.978,0.98,4.356h18.728c0.643-1.378,0.977-2.865,0.98-4.356
			H83.138z"/>
	</g>
</g>
</svg>
