<?xml version="1.0" encoding="utf-8"?>
<!-- Generator: Adobe Illustrator 28.0.0, SVG Export Plug-In . SVG Version: 6.00 Build 0)  -->
<svg version="1.1" id="Layer_1" xmlns="http://www.w3.org/2000/svg" xmlns:xlink="http://www.w3.org/1999/xlink" x="0px" y="0px"
	 width="150px" height="150px" viewBox="0 0 150 150" style="enable-background:new 0 0 150 150;" xml:space="preserve">
<g>
	<g>
		<path style="fill:#444444;" d="M42.669,76.929l10.843,29.649c2.128,5.818,19.606,4.772,39.039-2.335s33.462-17.584,31.334-23.402
			l-10.843-29.649L42.669,76.929z"/>
		<g>
			<defs>
				<path id="SVGID_00000091706108845221091110000003566604917905688964_" d="M42.669,76.929l10.843,29.649
					c2.128,5.818,19.606,4.772,39.039-2.335s33.462-17.584,31.334-23.402l-10.843-29.649L42.669,76.929z"/>
			</defs>
			<use xlink:href="#SVGID_00000091706108845221091110000003566604917905688964_"  style="overflow:visible;fill:#444444;"/>
			<clipPath id="SVGID_00000080203997329042584380000007483053583642787490_">
				<use xlink:href="#SVGID_00000091706108845221091110000003566604917905688964_"  style="overflow:visible;"/>
			</clipPath>
			<path style="clip-path:url(#SVGID_00000080203997329042584380000007483053583642787490_);fill:#232123;" d="M75.22,112.409
				L67.741,91.96c-1.735-4.743,1.532-9.834,6.566-10.233l9.469-0.921l-43.199-4.057l5.748,21.622l9.404,18.332l3.944,0.448
				L75.22,112.409z"/>
			
				<rect x="99.224" y="59.558" transform="matrix(0.9997 -0.0229 0.0229 0.9997 -1.8573 2.3448)" style="clip-path:url(#SVGID_00000080203997329042584380000007483053583642787490_);fill:#232123;" width="4.475" height="45.432"/>
		</g>
		<g>
			<polygon style="fill:#444444;" points="66.223,32.809 20.947,72.351 81.051,73.354 126.328,33.811 			"/>
			<polygon style="fill:#5B5B5B;" points="129.053,41.263 126.328,33.811 81.051,73.354 83.777,80.806 			"/>
			<polygon style="fill:#232123;" points="83.777,80.806 81.051,73.354 20.947,72.351 23.672,79.803 			"/>
		</g>
	</g>
	<g>
		<path style="fill:#FF8B0F;" d="M105.051,110.309c-1.267,0-2.306-1.012-2.334-2.284l-1.135-52.21l-27.805-0.464
			c-1.29-0.022-2.318-1.084-2.296-2.374c0.022-1.289,1.074-2.279,2.374-2.296l30.052,0.501c1.254,0.021,2.269,1.03,2.296,2.284
			l1.184,54.456c0.028,1.29-0.995,2.357-2.284,2.386C105.086,110.309,105.069,110.309,105.051,110.309z"/>
	</g>
	<circle style="fill:#DE1445;" cx="105.052" cy="109.802" r="7.387"/>
</g>
</svg>
