<?xml version="1.0" encoding="utf-8"?>
<!-- Generator: Adobe Illustrator 28.0.0, SVG Export Plug-In . SVG Version: 6.00 Build 0)  -->
<svg version="1.1" id="Layer_1" xmlns="http://www.w3.org/2000/svg" xmlns:xlink="http://www.w3.org/1999/xlink" x="0px" y="0px"
	 width="150px" height="150px" viewBox="0 0 150 150" style="enable-background:new 0 0 150 150;" xml:space="preserve">
<style type="text/css">
	.st0{fill-rule:evenodd;clip-rule:evenodd;fill:#5337B5;}
	.st1{clip-path:url(#SVGID_00000010271483487999145450000000937736702495345837_);fill:#311C99;}
	.st2{fill-rule:evenodd;clip-rule:evenodd;fill:#311C99;}
	.st3{fill:#5337B5;}
	.st4{fill:#714ECD;}
	
		.st5{clip-path:url(#SVGID_00000016755181059654209670000007267578192394147760_);fill-rule:evenodd;clip-rule:evenodd;fill:#FFFFFF;}
	.st6{fill:#FF9E00;}
</style>
<g>
	<g>
		<path class="st0" d="M61.5,121l-4.3,3.8c-1.3,1.2-3.4,0.8-4.2-0.8L39.4,96.3l9.8-4.8l13,26.3C62.7,118.9,62.4,120.2,61.5,121z"/>
	</g>
	<g>
		<path id="SVGID_00000125579607163036204010000017861578169729524910_" class="st0" d="M61.5,121l-4.3,3.8
			c-1.3,1.2-3.4,0.8-4.2-0.8L39.4,96.3l9.8-4.8l13,26.3C62.7,118.9,62.4,120.2,61.5,121z"/>
		<g>
			<g>
				<defs>
					<path id="SVGID_1_" d="M61.5,121l-4.3,3.8c-1.3,1.2-3.4,0.8-4.2-0.8L39.4,96.3l9.8-4.8l13,26.3C62.7,118.9,62.4,120.2,61.5,121
						z"/>
				</defs>
				<clipPath id="SVGID_00000057847454082630650770000007144809789034531237_">
					<use xlink:href="#SVGID_1_"  style="overflow:visible;"/>
				</clipPath>
				<path style="clip-path:url(#SVGID_00000057847454082630650770000007144809789034531237_);fill:#311C99;" d="M110.1,102.7
					c-1.2,0.6-2.6,0.8-4,0.7c-11.5-1.4-22.9-1.2-33.9,0.5c-8.4,1.3-16.4,3.6-24,6.6c-1.2,0.5-2.3,0.8-3.6,1.1l-1.5,0.3l-1.1-1.1
					c-3.8-3.9-7.2-8.8-9.9-14.2c-2.7-5.4-4.5-11.1-5.3-16.5l-0.2-1.5l1.2-1c0.9-0.8,1.9-1.6,3-2.2c7-4.1,13.7-9.2,19.8-15
					c8.1-7.7,15.2-16.6,21.1-26.6c0.7-1.2,1.7-2.1,2.9-2.7c1.9-0.9,4.1-1,6-0.1c3.1,1.5,6.4,4.3,9.7,8.3c4.4,5.2,8.9,12.6,13.5,21.8
					s7.6,17.3,9.2,24c1.2,5.1,1.4,9.4,0.7,12.8C113.4,100,112.1,101.8,110.1,102.7L110.1,102.7z"/>
			</g>
		</g>
	</g>
	<path class="st2" d="M32.7,72.2L32.7,72.2c1.4-0.7,3.2-0.1,3.9,1.3l3.4,6.9L34.8,83l-3.4-6.9C30.7,74.7,31.3,72.9,32.7,72.2z"/>
	<path class="st3" d="M29.8,79.7c-5.6,4.9-7.4,13.1-3.9,20.1l0,0c3.4,6.9,11,10.5,18.3,9.1c-3.5-3.6-6.8-8.2-9.4-13.5
		C32.2,90.1,30.5,84.7,29.8,79.7z"/>
	<path class="st4" d="M79.6,33.6c-1.9-0.9-4.2-0.2-5.3,1.7c-6.7,11.4-14.2,20.3-21.6,27.2c-7.3,7-14.5,11.9-20.3,15.4
		c-0.9,0.5-1.8,1.2-2.6,1.9c0.7,5,2.4,10.3,5,15.6c2.6,5.3,5.9,9.9,9.4,13.5c1-0.2,2-0.5,3-0.9c6.3-2.6,14.6-5.2,24.6-6.8
		c10-1.6,21.7-2.2,34.7-0.5c2.1,0.3,4.1-1.1,4.6-3.2c1-4.6,0.4-14.6-9.6-34.9S83.9,35.6,79.6,33.6z"/>
	
		<ellipse id="SVGID_00000103958936283819562430000003576056381733453712_" transform="matrix(0.8968 -0.4425 0.4425 0.8968 -20.0263 47.8761)" class="st3" cx="92.6" cy="66.9" rx="7.7" ry="34.7"/>
	<g>
		<g>
			<defs>
				
					<ellipse id="SVGID_00000069396034365359493820000017033050882778502330_" transform="matrix(0.8968 -0.4425 0.4425 0.8968 -20.0263 47.8761)" cx="92.6" cy="66.9" rx="7.7" ry="34.7"/>
			</defs>
			<clipPath id="SVGID_00000141434540828341546680000001105511511424733861_">
				<use xlink:href="#SVGID_00000069396034365359493820000017033050882778502330_"  style="overflow:visible;"/>
			</clipPath>
			
				<path style="clip-path:url(#SVGID_00000141434540828341546680000001105511511424733861_);fill-rule:evenodd;clip-rule:evenodd;fill:#FFFFFF;" d="
				M96,65.2L96,65.2c1.5,3.1,0.3,6.9-2.9,8.4l-14.9,7.3l-5.6-11.3l14.9-7.3C90.7,60.8,94.4,62.1,96,65.2z"/>
		</g>
	</g>
	<path class="st6" d="M107.2,61.7c-0.8-0.1-1.5-0.6-1.9-1.3c-0.6-1.2-0.1-2.6,1.1-3.2l19.4-9.4c1.2-0.6,2.6-0.1,3.2,1.1
		c0.6,1.2,0.1,2.6-1.1,3.2l-19.4,9.4C108,61.6,107.6,61.7,107.2,61.7z"/>
	<path class="st6" d="M101.1,49.2c-0.6-0.1-1.2-0.4-1.6-0.9c-0.8-1-0.6-2.5,0.4-3.3L113.6,34c1-0.8,2.5-0.6,3.3,0.4
		c0.8,1,0.6,2.5-0.4,3.3l-13.8,10.9C102.3,49.1,101.7,49.2,101.1,49.2z"/>
	<path class="st6" d="M113.2,74.2c-1-0.1-1.8-0.8-2.1-1.8c-0.3-1.3,0.5-2.6,1.8-2.9l17.1-4.1c1.3-0.3,2.6,0.5,2.9,1.8
		c0.3,1.3-0.5,2.6-1.8,2.9L114,74.1C113.8,74.2,113.5,74.2,113.2,74.2z"/>
	<path class="st6" d="M125.3,89.5c-0.1,0-0.1,0-0.2,0l-10.6-1.9c-1.3-0.2-2.1-1.5-1.9-2.8s1.5-2.1,2.8-1.9l10.6,1.9
		c1.3,0.2,2.1,1.5,1.9,2.8C127.6,88.8,126.5,89.6,125.3,89.5z"/>
	<path class="st6" d="M92.2,39.4c-0.3,0-0.7-0.1-1-0.3c-1.1-0.7-1.5-2.1-0.8-3.3l5.6-9.2c0.7-1.1,2.1-1.5,3.3-0.8
		c1.1,0.7,1.5,2.1,0.8,3.3l-5.6,9.2C94,39.1,93.1,39.5,92.2,39.4z"/>
</g>
</svg>
