<?xml version="1.0" encoding="UTF-8"?><svg id="Layer_1" xmlns="http://www.w3.org/2000/svg" width="150" height="150" viewBox="0 0 150 150"><path d="m126.48,49.14c-1.24-4.63-4.87-8.26-9.5-9.5-8.38-2.25-41.98-2.25-41.98-2.25,0,0-33.6,0-41.98,2.25-4.63,1.24-8.26,4.87-9.5,9.5-2.25,8.38-2.25,25.86-2.25,25.86,0,0,0,17.49,2.25,25.86,1.24,4.63,4.87,8.26,9.5,9.5,8.38,2.25,41.98,2.25,41.98,2.25,0,0,33.6,0,41.98-2.25,4.63-1.24,8.26-4.87,9.5-9.5,2.25-8.38,2.25-25.86,2.25-25.86,0,0,0-17.49-2.25-25.86Z" style="fill:red;"/><path d="m64.24,91.12l27.92-16.12-27.92-16.12v32.23Z" style="fill:#fff;"/></svg>