<?xml version="1.0" encoding="utf-8"?>
<!-- Generator: Adobe Illustrator 27.7.0, SVG Export Plug-In . SVG Version: 6.00 Build 0)  -->
<svg version="1.1" id="Layer_1" xmlns="http://www.w3.org/2000/svg" xmlns:xlink="http://www.w3.org/1999/xlink" x="0px" y="0px"
	 width="150px" height="150px" viewBox="0 0 150 150" style="enable-background:new 0 0 150 150;" xml:space="preserve">
<g>
	<g>
		<g>
			<g>
				<circle style="fill:#DCE7F7;" cx="75" cy="75" r="50"/>
				<circle style="fill:#A3BBD8;" cx="75" cy="74.9998" r="34"/>
			</g>
		</g>
		<g>
			<defs>
				<circle id="SVGID_00000118380154888801547650000014934055742475182011_" cx="75" cy="75" r="50"/>
			</defs>
			<clipPath id="SVGID_00000164477440682862723980000011510368736909675161_">
				<use xlink:href="#SVGID_00000118380154888801547650000014934055742475182011_"  style="overflow:visible;"/>
			</clipPath>
			
				<rect x="24.7557" y="25" style="opacity:0.4;clip-path:url(#SVGID_00000164477440682862723980000011510368736909675161_);fill:#7C92B5;" width="50" height="100"/>
		</g>
	</g>
	<g>
		<defs>
			<path id="SVGID_00000005237137916527050000000000602095211121544075_" d="M38.8087,8.1913v41.9943l2.2315,26.4233h0.0006
				c0.8434,18.0034,15.7513,32.3909,33.9591,32.3909c18.748,0,34-15.252,34-34l4.1846-35.9506L109,8.1913H38.8087z"/>
		</defs>
		<clipPath id="SVGID_00000084526094291382484940000012278245643653738399_">
			<use xlink:href="#SVGID_00000005237137916527050000000000602095211121544075_"  style="overflow:visible;"/>
		</clipPath>
		<g style="clip-path:url(#SVGID_00000084526094291382484940000012278245643653738399_);">
			<g>
				<g>
					<g>
						<g>
							<g>
								<g>
									<defs>
										<path id="SVGID_00000164507818734747519960000005284637998164260010_" d="M61.8154,125.7885l8.1884,2.9839
											c4.2099,1.5341,8.9096-0.6552,10.4438-4.8651l32.7369-84.8581l-23.4972-8.5626l-32.7369,84.8581
											C55.4162,119.5546,57.6055,124.2543,61.8154,125.7885z"/>
									</defs>
									<clipPath id="SVGID_00000156578153895348604470000017685995905805744315_">
										<use xlink:href="#SVGID_00000164507818734747519960000005284637998164260010_"  style="overflow:visible;"/>
									</clipPath>
									<path style="clip-path:url(#SVGID_00000156578153895348604470000017685995905805744315_);fill:#F7CB1D;" d="
										M61.8154,125.7885l8.1884,2.9839c4.2099,1.5341,8.9096-0.6552,10.4438-4.8651l32.7369-84.8581l-23.4972-8.5626
										l-32.7369,84.8581C55.4162,119.5546,57.6055,124.2543,61.8154,125.7885z"/>
									<polygon style="clip-path:url(#SVGID_00000156578153895348604470000017685995905805744315_);fill:#133138;" points="
										61.215,127.9894 69.0474,130.8436 105.3521,36.195 97.5197,33.3408 									"/>
								</g>
								<g>
									<defs>
										<path id="SVGID_00000121992076217573636540000003030032176240423555_" d="M113.1845,39.0492l-6.8384,0.9713
											c-1.6534,0.2348-3.3392,0.0586-4.9083-0.5132l-3.0526-1.1124c-1.5691-0.5718-2.973-1.5215-4.0877-2.765l-4.6102-5.1433
											l17.4872-15.5604c0.947-0.8427,2.4512-0.2946,2.634,0.9599L113.1845,39.0492z"/>
									</defs>
									<clipPath id="SVGID_00000052070824329036843160000006555062558582049187_">
										<use xlink:href="#SVGID_00000121992076217573636540000003030032176240423555_"  style="overflow:visible;"/>
									</clipPath>
									<path style="clip-path:url(#SVGID_00000052070824329036843160000006555062558582049187_);fill:#FAE3B2;" d="
										M113.1845,39.0492l-6.8384,0.9713c-1.6534,0.2348-3.3392,0.0586-4.9083-0.5132l-3.0526-1.1124
										c-1.5691-0.5718-2.973-1.5215-4.0877-2.765l-4.6102-5.1433l17.4872-15.5604c0.947-0.8427,2.4512-0.2946,2.634,0.9599
										L113.1845,39.0492z"/>
									
										<circle style="clip-path:url(#SVGID_00000052070824329036843160000006555062558582049187_);fill:#133138;" cx="107.5984" cy="17.857" r="6.8206"/>
								</g>
								<g>
									<defs>
										<path id="SVGID_00000161603640335078282640000017910063977822960048_" d="M61.7931,125.7836l8.1884,2.9839
											c4.2099,1.5341,8.9096-0.6552,10.4437-4.8651l40.4464-106.0639L97.3744,9.2759L56.928,115.3399
											C55.3939,119.5498,57.5832,124.2495,61.7931,125.7836z"/>
									</defs>
									<clipPath id="SVGID_00000152950621823369580780000011985834192337797279_">
										<use xlink:href="#SVGID_00000161603640335078282640000017910063977822960048_"  style="overflow:visible;"/>
									</clipPath>
								</g>
							</g>
						</g>
					</g>
				</g>
			</g>
			<g>
				<g>
					<g>
						<g>
							<defs>
								<path id="SVGID_00000115499011047512787410000014578430988522273966_" d="M53.2928,74.0722l-4.8057-25.7133l16.831-5.2247
									l10.1473,24.3722c4.2757,10.2695,7.6684,20.8847,10.1414,31.7303l13.5381,63.857c0.7797,3.5534-1.3139,7.1066-4.8001,8.1465
									l-0.018,0.0054c-3.4862,1.0399-7.1842-0.7858-8.4785-4.1857L62.2083,106.265
									C58.3249,95.8077,55.3422,85.0375,53.2928,74.0722z"/>
							</defs>
							<clipPath id="SVGID_00000139269050789337142950000003028237870334355383_">
								<use xlink:href="#SVGID_00000115499011047512787410000014578430988522273966_"  style="overflow:visible;"/>
							</clipPath>
							<path style="clip-path:url(#SVGID_00000139269050789337142950000003028237870334355383_);fill:#C2570C;" d="M53.2928,74.0722
								l-4.8057-25.7133l16.831-5.2247l10.1473,24.3722c4.2757,10.2695,7.6684,20.8847,10.1414,31.7303l13.5381,63.857
								c0.7797,3.5534-1.3139,7.1066-4.8001,8.1465l-0.018,0.0054c-3.4862,1.0399-7.1842-0.7858-8.4785-4.1857L62.2083,106.265
								C58.3249,95.8077,55.3422,85.0375,53.2928,74.0722z"/>
							<path style="clip-path:url(#SVGID_00000139269050789337142950000003028237870334355383_);fill:#DE7024;" d="M45.1808,76.4919
								l-4.8057-25.7133l16.831-5.2247l10.1473,24.3722c4.2757,10.2695,7.6684,20.8847,10.1414,31.7303l13.5381,63.857
								c0.7797,3.5534-1.3139,7.1066-4.8001,8.1465l-0.018,0.0054c-3.4862,1.0399-7.1842-0.7858-8.4785-4.1857l-23.6401-60.7949
								C50.2129,98.2273,47.2302,87.4572,45.1808,76.4919z"/>
						</g>
						<g>
							<defs>
								<path id="SVGID_00000027577253211516249260000015336869635715364523_" d="M58.9161,52.4967
									c8.2965-2.4747,13.016-11.2065,10.5413-19.503c-1.9302-6.471-15.6168-18.9925-21.5465-24.1896
									c-1.272-1.1149-3.2703-0.5188-3.7237,1.1107c-2.1137,7.5963-6.7043,25.5695-4.7741,32.0405
									C41.8878,50.2519,50.6196,54.9714,58.9161,52.4967z"/>
							</defs>
							<clipPath id="SVGID_00000106109824389635356710000013039850672916278695_">
								<use xlink:href="#SVGID_00000027577253211516249260000015336869635715364523_"  style="overflow:visible;"/>
							</clipPath>
							<path style="clip-path:url(#SVGID_00000106109824389635356710000013039850672916278695_);fill:#F0CD8F;" d="M58.9161,52.4967
								c8.2965-2.4747,13.016-11.2065,10.5413-19.503c-1.9302-6.471-15.6168-18.9925-21.5465-24.1896
								c-1.272-1.1149-3.2703-0.5188-3.7237,1.1107c-2.1137,7.5963-6.7043,25.5695-4.7741,32.0405
								C41.8878,50.2519,50.6196,54.9714,58.9161,52.4967z"/>
							<path style="clip-path:url(#SVGID_00000106109824389635356710000013039850672916278695_);fill:#FAE3B2;" d="M44.9546,54.4453
								c8.6564,0.1488,15.7945-6.748,15.9433-15.4044c0.1161-6.7517-9.1455-22.8245-13.2269-29.5708
								c-0.8755-1.4472-2.9605-1.483-3.8853-0.0668c-4.3109,6.602-14.1195,22.347-14.2355,29.0987
								C29.4014,47.1584,36.2981,54.2965,44.9546,54.4453z"/>
						</g>
						<g>
							<path style="fill:#D0EBEA;" d="M71.8131,54.5898L71.8131,54.5898c0.3198,1.069-0.2931,2.2053-1.3621,2.5251l-18.6405,5.5772
								c-1.069,0.3198-2.2053-0.2931-2.5251-1.3621v0c-0.3198-1.069,0.2931-2.2053,1.3621-2.5251l18.6405-5.5772
								C70.3569,52.9079,71.4932,53.5209,71.8131,54.5898z"/>
							<path style="fill:#ABD9D6;" d="M70.65,50.7027L70.65,50.7027c0.3198,1.069-0.2931,2.2053-1.3621,2.5251L50.6474,58.805
								c-1.069,0.3198-2.2053-0.2931-2.5251-1.3621v0c-0.3198-1.069,0.2931-2.2053,1.3621-2.5251l18.6405-5.5772
								C69.1939,49.0208,70.3302,49.6337,70.65,50.7027z"/>
							<path style="fill:#D0EBEA;" d="M69.487,46.8155L69.487,46.8155c0.3198,1.069-0.2931,2.2053-1.3621,2.5251l-18.6405,5.5772
								c-1.069,0.3198-2.2053-0.2931-2.5251-1.3621l0,0c-0.3198-1.069,0.2931-2.2053,1.3621-2.5251l18.6405-5.5772
								C68.0309,45.1336,69.1672,45.7465,69.487,46.8155z"/>
						</g>
					</g>
				</g>
			</g>
		</g>
	</g>
</g>
</svg>
