<?xml version="1.0" encoding="utf-8"?>
<!-- Generator: Adobe Illustrator 28.0.0, SVG Export Plug-In . SVG Version: 6.00 Build 0)  -->
<svg version="1.1" id="Layer_1" xmlns="http://www.w3.org/2000/svg" xmlns:xlink="http://www.w3.org/1999/xlink" x="0px" y="0px"
	 width="150px" height="150px" viewBox="0 0 150 150" style="enable-background:new 0 0 150 150;" xml:space="preserve">
<style type="text/css">
	.st0{fill:#DCE7F7;}
	.st1{fill:#A3BBD8;}
	
		.st2{opacity:0.4;clip-path:url(#SVGID_00000137816688462176475840000010988119111146101417_);fill:#7C92B5;enable-background:new    ;}
	.st3{fill-rule:evenodd;clip-rule:evenodd;fill:#00C7E9;}
	
		.st4{clip-path:url(#SVGID_00000106112857569286763750000001829398470153914795_);fill-rule:evenodd;clip-rule:evenodd;fill:#16966A;}
	
		.st5{clip-path:url(#SVGID_00000091721205880149590610000003216408715168918453_);fill-rule:evenodd;clip-rule:evenodd;fill:#16966A;}
	
		.st6{clip-path:url(#SVGID_00000071548390216717933920000016326253100137113012_);fill-rule:evenodd;clip-rule:evenodd;fill:#16966A;}
	
		.st7{clip-path:url(#SVGID_00000093174406006630832300000012467134079876357765_);fill-rule:evenodd;clip-rule:evenodd;fill:#16966A;}
	
		.st8{clip-path:url(#SVGID_00000008107302937729756590000014743118299869666985_);fill-rule:evenodd;clip-rule:evenodd;fill:#16966A;}
	
		.st9{clip-path:url(#SVGID_00000167382713386543056170000017623549694023207359_);fill-rule:evenodd;clip-rule:evenodd;fill:#16966A;}
	
		.st10{opacity:0.3;clip-path:url(#SVGID_00000080923295701934714410000007471867419541808025_);fill-rule:evenodd;clip-rule:evenodd;fill:#007D87;}
	
		.st11{clip-path:url(#SVGID_00000080918269488194999930000015658546280710479276_);fill-rule:evenodd;clip-rule:evenodd;fill:#16966A;}
</style>
<g>
	<g>
		<g>
			<g>
				<circle class="st0" cx="75" cy="75" r="50"/>
				<circle class="st1" cx="75" cy="75" r="34"/>
			</g>
		</g>
		<g>
			<g>
				<defs>
					<circle id="SVGID_1_" cx="75" cy="75" r="50"/>
				</defs>
				<clipPath id="SVGID_00000167397994839995173870000017688816261959209906_">
					<use xlink:href="#SVGID_1_"  style="overflow:visible;"/>
				</clipPath>
				
					<rect x="24.8" y="25" style="opacity:0.4;clip-path:url(#SVGID_00000167397994839995173870000017688816261959209906_);fill:#7C92B5;enable-background:new    ;" width="50" height="100"/>
			</g>
		</g>
	</g>
	<g>
		<g>
			<g>
				<g>
					<path class="st3" d="M90.3,15.2c23,0,41.7,18.7,41.7,41.7c0,23-18.7,41.7-41.7,41.7c-23,0-41.7-18.7-41.7-41.7
						C48.6,33.8,67.3,15.2,90.3,15.2z"/>
					<g>
						<g>
							<defs>
								<path id="SVGID_00000093877284235636859460000003733419372056693695_" d="M90.3,15.2c23,0,41.7,18.7,41.7,41.7
									c0,23-18.7,41.7-41.7,41.7c-23,0-41.7-18.7-41.7-41.7C48.6,33.8,67.3,15.2,90.3,15.2z"/>
							</defs>
							<clipPath id="SVGID_00000105397428229815394420000001400246822176641675_">
								<use xlink:href="#SVGID_00000093877284235636859460000003733419372056693695_"  style="overflow:visible;"/>
							</clipPath>
							
								<path style="clip-path:url(#SVGID_00000105397428229815394420000001400246822176641675_);fill-rule:evenodd;clip-rule:evenodd;fill:#16966A;" d="
								M128.2,48.3c0,0.8-0.6,1.4-1.4,1.4c-5.2,0-23.3,0-29.3,0c-1.2,0-2.4,0.5-3.3,1.3c-0.9,0.9-2.1,2.1-3.1,3.1
								c-0.9,0.9-1.4,2-1.4,3.3c0,0.9,0,2,0,2.9c0,1.2,0.5,2.4,1.3,3.3c0.9,0.9,2.1,2.1,3.1,3.1c0.9,0.9,2,1.4,3.3,1.4
								c0.8,0,1.7,0,2.5,0c0.9,0,1.7-0.3,2.3-1c0.6-0.6,1.4-1,2.3-1c0.3,0,0.6,0,0.9,0c1.5,0,2.9,0.9,3.4,2.3
								c0.7,1.8,1.7,4.3,2.3,5.8c0.4,0.9,0.6,2,0.6,3c0,0.8,0,1.8,0,2.8c0,2.1,0.8,4.2,2.3,5.7c1.9,1.9,4.4,4.4,4.4,4.4l21.1-24.9
								c0,0-8.4-5.3-11.9-7.5c-0.8-0.5-1.1-1.6-0.6-2.5c0,0,0,0,0,0c0.3-0.4,0.7-0.7,1.1-0.8c0.5-0.1,1,0,1.4,0.3
								c2.5,1.7,7.1,4.7,7.1,4.7l0-16.3c0,0-7.8,0-11.5,0c-1.1,0-1.9,0.9-1.9,1.9c0,0.5,0.2,1,0.6,1.4c0.4,0.4,0.8,0.6,1.4,0.6
								c0.5,0,1,0,1.4,0c0.4,0,0.7,0.2,1,0.4C128,47.5,128.2,47.9,128.2,48.3z"/>
						</g>
						<g>
							<defs>
								<path id="SVGID_00000119796704878397047100000015730181463913773232_" d="M90.3,15.2c23,0,41.7,18.7,41.7,41.7
									c0,23-18.7,41.7-41.7,41.7c-23,0-41.7-18.7-41.7-41.7C48.6,33.8,67.3,15.2,90.3,15.2z"/>
							</defs>
							<clipPath id="SVGID_00000045612324272854644120000002644671921237928607_">
								<use xlink:href="#SVGID_00000119796704878397047100000015730181463913773232_"  style="overflow:visible;"/>
							</clipPath>
							
								<path style="clip-path:url(#SVGID_00000045612324272854644120000002644671921237928607_);fill-rule:evenodd;clip-rule:evenodd;fill:#16966A;" d="
								M125.3,29.6c0,0-2.6,0-4.3,0c-1,0-1.9,0.4-2.6,1.1c-0.2,0.2-0.5,0.5-0.8,0.8c-0.7,0.7-1.6,1.1-2.6,1.1c-1.4,0-3.3,0-4.7,0
								c-1,0-1.9,0.4-2.6,1.1c-0.8,0.8-1.8,1.8-2.3,2.3c-0.3,0.3-0.7,0.4-1.1,0.4c-0.8,0-2.2,0-3.1,0c-0.6,0-1.2,0.4-1.4,1
								c-0.3,0.8-0.8,2-1.2,2.9c-0.2,0.6-0.8,1-1.4,1c0,0-0.1,0-0.1,0c-0.5,0-0.9,0.2-1.3,0.5c-0.3,0.3-0.5,0.8-0.5,1.3
								c0,0.9,0,2,0,2.8c0,0.3,0.1,0.6,0.4,0.9c0.2,0.2,0.5,0.4,0.9,0.4c1.2,0,3,0,3.9,0c0.4,0,0.7-0.2,1-0.5c0.5-0.7,1.5-2,2.1-2.7
								c0.3-0.4,0.7-0.6,1.2-0.6c0.7,0,1.6,0,2.3,0c0.5,0,1-0.3,1.3-0.7c0.1-0.1,0.1-0.2,0.2-0.3c0.3-0.4,0.8-0.7,1.3-0.7
								c0.5,0,1,0.3,1.3,0.7c0.6,0.8,1.2,1.8,1.7,2.5c0.6,0.8,1.5,1.3,2.5,1.3c0.5,0,1.1,0,1.7,0c1,0,1.9-0.5,2.4-1.2
								c0.9-1.2,2.2-3,3-4.2c0.6-0.8,1.5-1.2,2.4-1.2c2.5,0,7.3,0,7.3,0L125.3,29.6z"/>
						</g>
						<g>
							<defs>
								<path id="SVGID_00000108996640063192757280000012259535822873427350_" d="M90.3,15.2c23,0,41.7,18.7,41.7,41.7
									c0,23-18.7,41.7-41.7,41.7c-23,0-41.7-18.7-41.7-41.7C48.6,33.8,67.3,15.2,90.3,15.2z"/>
							</defs>
							<clipPath id="SVGID_00000139256286552830276320000009581658974940132278_">
								<use xlink:href="#SVGID_00000108996640063192757280000012259535822873427350_"  style="overflow:visible;"/>
							</clipPath>
							
								<path style="clip-path:url(#SVGID_00000139256286552830276320000009581658974940132278_);fill-rule:evenodd;clip-rule:evenodd;fill:#16966A;" d="
								M120.5,16.3c-1.5-1.5-3.9-1.5-5.4,0l-6.1,6.1c-1.5,1.5-1.5,3.9,0,5.4c1.5,1.5,3.9,1.5,5.4,0l6.1-6.1
								C122,20.2,122,17.8,120.5,16.3z"/>
						</g>
						<g>
							<defs>
								<path id="SVGID_00000114766570714005455740000013842411299820146581_" d="M90.3,15.2c23,0,41.7,18.7,41.7,41.7
									c0,23-18.7,41.7-41.7,41.7c-23,0-41.7-18.7-41.7-41.7C48.6,33.8,67.3,15.2,90.3,15.2z"/>
							</defs>
							<clipPath id="SVGID_00000064338924688376292140000014736719113755041207_">
								<use xlink:href="#SVGID_00000114766570714005455740000013842411299820146581_"  style="overflow:visible;"/>
							</clipPath>
							
								<path style="clip-path:url(#SVGID_00000064338924688376292140000014736719113755041207_);fill-rule:evenodd;clip-rule:evenodd;fill:#16966A;" d="
								M57.6,18c1.1-1.1,2.8-1.1,3.9,0l7.7,7.7c1.1,1.1,1.1,2.8,0,3.9c-1.1,1.1-2.8,1.1-3.9,0l-7.7-7.7C56.5,20.8,56.5,19.1,57.6,18
								z"/>
						</g>
						<g>
							<defs>
								<path id="SVGID_00000098208960856388346320000011349386302705173155_" d="M90.3,15.2c23,0,41.7,18.7,41.7,41.7
									c0,23-18.7,41.7-41.7,41.7c-23,0-41.7-18.7-41.7-41.7C48.6,33.8,67.3,15.2,90.3,15.2z"/>
							</defs>
							<clipPath id="SVGID_00000168089642428789402410000017596129044323448228_">
								<use xlink:href="#SVGID_00000098208960856388346320000011349386302705173155_"  style="overflow:visible;"/>
							</clipPath>
							
								<path style="clip-path:url(#SVGID_00000168089642428789402410000017596129044323448228_);fill-rule:evenodd;clip-rule:evenodd;fill:#16966A;" d="
								M47.6,55.4c0,0,5.9,0,9.2,0c1.4,0,2.7-0.8,3.3-2c0.3-0.7,0.7-1.4,1-2c0.5-1.1,1.6-1.7,2.8-1.7l0,0c1.2,0,2.3-0.7,2.8-1.7
								c0.2-0.4,0.4-0.7,0.5-1.1c0.3-0.7,1-1.1,1.7-1.1c1.4,0,3.8,0,5.5,0c0.5,0,1-0.2,1.4-0.6c0.4-0.4,0.6-0.9,0.6-1.4
								c0-1,0-2.3,0-3c0-0.5-0.2-1-0.6-1.4c-1.4-1.4-5.1-5.1-6.5-6.5c-0.4-0.4-0.9-0.6-1.4-0.6c-0.5,0-1,0-1.5,0
								c-0.4,0-0.8-0.1-1.1-0.4c-0.3-0.2-0.8-0.6-1.2-0.9c-0.7-0.5-1.6-0.5-2.3,0c0,0,0,0,0,0C61.3,31.5,61,32,61,32.5
								c-0.1,0.5,0.1,1.1,0.4,1.6c0.1,0.1,0.2,0.2,0.3,0.3c0.4,0.5,0.5,1.1,0.4,1.6c-0.1,0.6-0.4,1.1-0.9,1.4c0,0,0,0,0,0
								c-0.6,0.4-1.4,0.4-2,0c-1.6-1.1-4.8-3.2-4.8-3.2l-8.6,9.6L47.6,55.4z"/>
						</g>
						<g>
							<defs>
								<path id="SVGID_00000029727895596894221410000010589649836662400701_" d="M90.3,15.2c23,0,41.7,18.7,41.7,41.7
									c0,23-18.7,41.7-41.7,41.7c-23,0-41.7-18.7-41.7-41.7C48.6,33.8,67.3,15.2,90.3,15.2z"/>
							</defs>
							<clipPath id="SVGID_00000072272549352467092890000015600174948461124025_">
								<use xlink:href="#SVGID_00000029727895596894221410000010589649836662400701_"  style="overflow:visible;"/>
							</clipPath>
							
								<path style="clip-path:url(#SVGID_00000072272549352467092890000015600174948461124025_);fill-rule:evenodd;clip-rule:evenodd;fill:#16966A;" d="
								M48.6,59.3c0,0,3.4,0,5.6,0c1.3,0,2.4,0.7,3,1.8c0,0.1,0.1,0.1,0.1,0.2c0.6,1.1,1.7,1.8,3,1.8c1.3,0,2.9,0,4.1,0
								c1,0,1.9,0.4,2.5,1.2c1.1,1.2,2.7,3.2,3.8,4.4c0.6,0.7,1.5,1.2,2.5,1.2c2.6,0,7.7,0,10.3,0c1,0,2,0.5,2.6,1.2
								c0.7,0.8,1.5,1.9,2.1,2.7c0.5,0.6,0.7,1.3,0.7,2.1c0,0.9,0,2.2,0,3.2c0,0.9-0.3,1.7-1,2.3c-0.3,0.3-0.6,0.6-0.9,0.9
								c-0.6,0.6-1.5,1-2.3,1c-0.3,0-0.7,0-1,0c-1.4,0-2.7,0.9-3.1,2.3c-0.3,1-0.7,2.1-0.9,2.8c-0.2,0.5-0.4,0.9-0.8,1.3
								c-1.6,1.6-6.2,6.2-6.2,6.2L61,90.9c0,0,1.5-3.7,2-5.2c0.2-0.4,0.2-0.8,0.2-1.2c0-0.9,0-2.5,0-3.6c0-1-0.4-1.9-1.1-2.5
								c-1.2-1.1-3.1-2.7-4.3-3.8c-0.7-0.6-1.1-1.5-1.1-2.5c0-0.8,0-1.9,0-2.9c0-1.8-1.5-3.3-3.3-3.3c-2.9,0-6.8,0-6.8,0L48.6,59.3z
								"/>
						</g>
						<g>
							<defs>
								<path id="SVGID_00000077287752551443495330000015195702121321564861_" d="M90.3,15.2c23,0,41.7,18.7,41.7,41.7
									c0,23-18.7,41.7-41.7,41.7c-23,0-41.7-18.7-41.7-41.7C48.6,33.8,67.3,15.2,90.3,15.2z"/>
							</defs>
							<clipPath id="SVGID_00000104668383036952275640000004299756683231094154_">
								<use xlink:href="#SVGID_00000077287752551443495330000015195702121321564861_"  style="overflow:visible;"/>
							</clipPath>
							
								<polygon style="opacity:0.3;clip-path:url(#SVGID_00000104668383036952275640000004299756683231094154_);fill-rule:evenodd;clip-rule:evenodd;fill:#007D87;" points="
								132,98.6 48.6,15.1 48.5,98.6 							"/>
						</g>
						<g>
							<defs>
								<path id="SVGID_00000084528331615173233950000012293662119295806132_" d="M90.3,15.2c23,0,41.7,18.7,41.7,41.7
									c0,23-18.7,41.7-41.7,41.7c-23,0-41.7-18.7-41.7-41.7C48.6,33.8,67.3,15.2,90.3,15.2z"/>
							</defs>
							<clipPath id="SVGID_00000104673120380019802660000011626720147723371414_">
								<use xlink:href="#SVGID_00000084528331615173233950000012293662119295806132_"  style="overflow:visible;"/>
							</clipPath>
							
								<path style="clip-path:url(#SVGID_00000104673120380019802660000011626720147723371414_);fill-rule:evenodd;clip-rule:evenodd;fill:#16966A;" d="
								M91.7,13.3c0,0-9.2,8.7-13.4,12.5c-0.5,0.5-1.2,0.7-1.9,0.7s-1.4-0.3-1.9-0.9c-2.5-2.8-6.8-7.6-6.8-7.6L91.7,13.3z"/>
						</g>
					</g>
				</g>
			</g>
		</g>
	</g>
</g>
</svg>
