<?xml version="1.0" encoding="utf-8"?>
<!-- Generator: Adobe Illustrator 27.7.0, SVG Export Plug-In . SVG Version: 6.00 Build 0)  -->
<svg version="1.1" id="Layer_1" xmlns="http://www.w3.org/2000/svg" xmlns:xlink="http://www.w3.org/1999/xlink" x="0px" y="0px"
	 width="150px" height="150px" viewBox="0 0 150 150" style="enable-background:new 0 0 150 150;" xml:space="preserve">
<g>
	<g>
		<g>
			<g>
				<circle style="fill:#DCE7F7;" cx="75" cy="75" r="50"/>
				<circle style="fill:#A3BBD8;" cx="75" cy="74.9998" r="34"/>
			</g>
		</g>
		<g>
			<defs>
				<circle id="SVGID_00000041267675619754794070000016417084004132117152_" cx="75" cy="75" r="50"/>
			</defs>
			<clipPath id="SVGID_00000106855936060429618190000006240155577977653942_">
				<use xlink:href="#SVGID_00000041267675619754794070000016417084004132117152_"  style="overflow:visible;"/>
			</clipPath>
			
				<rect x="24.7557" y="25" style="opacity:0.4;clip-path:url(#SVGID_00000106855936060429618190000006240155577977653942_);fill:#7C92B5;" width="50" height="100"/>
			<path style="opacity:0.2;clip-path:url(#SVGID_00000106855936060429618190000006240155577977653942_);fill:#7C92B5;" d="
				M113.6541,54.884c-2.3643,0-4.5645-1.2725-5.7432-3.3203l-2.2021-3.8125h-61.417l-2.2051,3.8184
				c-1.1807,2.0449-3.3799,3.3145-5.7402,3.3145H23.6444c-2.3604,0-4.5605-1.2695-5.7412-3.3135l-2.2373-3.877
				c-1.1807-2.042-1.1807-4.582-0.001-6.627c1.1807-2.0449,3.3799-3.3154,5.7412-3.3154h8.5059l0.2861-0.4961l-0.2861-0.4961
				h-8.5059c-2.3604,0-4.5605-1.2695-5.7402-3.3145c-1.1807-2.0439-1.1807-4.583,0-6.6279l2.2373-3.876
				c1.1807-2.0449,3.3799-3.3145,5.7402-3.3145h12.7031c2.3604,0,4.5596,1.2695,5.7402,3.3135l2.2041,3.8193h61.418l2.2051-3.8184
				c1.1758-2.042,3.376-3.3145,5.7402-3.3145h12.7021c2.3603,0,4.5596,1.2695,5.7402,3.3135l2.2383,3.877
				c1.1807,2.0479,1.1787,4.5869-0.002,6.6299c-1.1797,2.043-3.3799,3.3125-5.7393,3.3125h-8.5049l-0.2871,0.4961l0.2871,0.4961
				h8.5049c2.3604,0,4.5605,1.2695,5.7402,3.3145c1.1807,2.0439,1.1807,4.584,0,6.6289l-2.2373,3.875
				c-1.1807,2.0449-3.3799,3.3145-5.7402,3.3145H113.6541z"/>
		</g>
	</g>
	<g>
		<defs>
			<path id="SVGID_00000030489329369743752050000004436755942776599477_" d="M19.5871,17.965v57.0347h21.413
				c0,18.748,15.2524,34,34,34c18.748,0,34-15.252,34-34h21.2474V17.965H19.5871z"/>
		</defs>
		<clipPath id="SVGID_00000155144448765812077570000002694114579584174248_">
			<use xlink:href="#SVGID_00000030489329369743752050000004436755942776599477_"  style="overflow:visible;"/>
		</clipPath>
		<g style="clip-path:url(#SVGID_00000155144448765812077570000002694114579584174248_);">
			<path style="fill:#F4D200;" d="M84.559,54.0612l2.5883,5.2314l13.5813-6.7199c2.8773-1.4236,4.0668-4.9425,2.6431-7.8197
				c-0.081-0.1637-8.1021-11.2653-8.1021-11.2653c-1.8956-2.5908-5.5662-3.1596-8.1568-1.2642
				c-2.591,1.8955-3.1598,5.5661-1.2642,8.1569l3.508,4.795l-2.1547,1.0662C84.3247,47.6651,83.1353,51.184,84.559,54.0612z"/>
			<g>
				<defs>
					<path id="SVGID_00000136399704065535125310000016393797397743334531_" d="M114.4988,36.441l2.2329-3.8673
						c0.2909-0.5039,0.8285-0.8142,1.4103-0.8142h10.4519c1.2536,0,2.0371-1.3571,1.4103-2.4428l-2.2378-3.8761
						c-0.2909-0.5039-0.8285-0.8143-1.4103-0.8143h-12.7022c-0.5818,0-1.1194,0.3104-1.4103,0.8143l-3.178,5.5046
						c-0.2909,0.5039-0.8285,0.8143-1.4103,0.8143H42.3448c-0.5818,0-1.1194-0.3104-1.4103-0.8143l-3.178-5.5046
						c-0.2909-0.5039-0.8285-0.8143-1.4103-0.8143H23.6439c-0.5818,0-1.1194,0.3104-1.4103,0.8143l-2.2377,3.8759
						c-0.6268,1.0857,0.1567,2.4428,1.4103,2.4428h10.4519c0.5818,0,1.1194,0.3104,1.4103,0.8143l2.2329,3.8675
						c0.2909,0.5039,0.2909,1.1247,0,1.6285l-2.2329,3.8673c-0.2909,0.5039-0.8285,0.8142-1.4103,0.8142h-10.452
						c-1.2536,0-2.0371,1.3571-1.4103,2.4428l2.2378,3.8761c0.2909,0.5039,0.8285,0.8143,1.4103,0.8143h12.7022
						c0.5818,0,1.1194-0.3104,1.4103-0.8143l3.178-5.5044c0.2909-0.5039,0.8285-0.8143,1.4103-0.8143h65.3104
						c0.5818,0,1.1194,0.3104,1.4103,0.8143l3.178,5.5044c0.2909,0.5039,0.8285,0.8143,1.4103,0.8143h12.7023
						c0.5818,0,1.1194-0.3104,1.4103-0.8143l2.2378-3.8759c0.6268-1.0857-0.1567-2.4428-1.4103-2.4428H118.142
						c-0.5818,0-1.1194-0.3104-1.4103-0.8143l-2.2329-3.8675C114.2079,37.5656,114.2079,36.9448,114.4988,36.441z"/>
				</defs>
				<clipPath id="SVGID_00000102528412736796493040000006510558295827869345_">
					<use xlink:href="#SVGID_00000136399704065535125310000016393797397743334531_"  style="overflow:visible;"/>
				</clipPath>
				<path style="clip-path:url(#SVGID_00000102528412736796493040000006510558295827869345_);fill:#DCE7F7;" d="M114.4988,36.441
					l2.2329-3.8673c0.2909-0.5039,0.8285-0.8142,1.4103-0.8142h10.4519c1.2536,0,2.0371-1.3571,1.4103-2.4428l-2.2378-3.8761
					c-0.2909-0.5039-0.8285-0.8143-1.4103-0.8143h-12.7022c-0.5818,0-1.1194,0.3104-1.4103,0.8143l-3.178,5.5046
					c-0.2909,0.5039-0.8285,0.8143-1.4103,0.8143H42.3448c-0.5818,0-1.1194-0.3104-1.4103-0.8143l-3.178-5.5046
					c-0.2909-0.5039-0.8285-0.8143-1.4103-0.8143H23.6439c-0.5818,0-1.1194,0.3104-1.4103,0.8143l-2.2377,3.8759
					c-0.6268,1.0857,0.1567,2.4428,1.4103,2.4428h10.4519c0.5818,0,1.1194,0.3104,1.4103,0.8143l2.2329,3.8675
					c0.2909,0.5039,0.2909,1.1247,0,1.6285l-2.2329,3.8673c-0.2909,0.5039-0.8285,0.8142-1.4103,0.8142h-10.452
					c-1.2536,0-2.0371,1.3571-1.4103,2.4428l2.2378,3.8761c0.2909,0.5039,0.8285,0.8143,1.4103,0.8143h12.7022
					c0.5818,0,1.1194-0.3104,1.4103-0.8143l3.178-5.5044c0.2909-0.5039,0.8285-0.8143,1.4103-0.8143h65.3104
					c0.5818,0,1.1194,0.3104,1.4103,0.8143l3.178,5.5044c0.2909,0.5039,0.8285,0.8143,1.4103,0.8143h12.7023
					c0.5818,0,1.1194-0.3104,1.4103-0.8143l2.2378-3.8759c0.6268-1.0857-0.1567-2.4428-1.4103-2.4428H118.142
					c-0.5818,0-1.1194-0.3104-1.4103-0.8143l-2.2329-3.8675C114.2079,37.5656,114.2079,36.9448,114.4988,36.441z"/>
				
					<rect x="13.7077" y="18.4071" style="clip-path:url(#SVGID_00000102528412736796493040000006510558295827869345_);fill:#E8F0FF;" width="121.7628" height="18.8482"/>
			</g>
			<path style="fill:#F4D200;" d="M96.2574,37.7076V26.4915c0-3.1328-2.5634-5.696-5.696-5.696
				c-2.3937,0-4.4445,1.5011-5.2839,3.6045c-0.0439-0.0145-0.0859-0.0338-0.1299-0.0479v-0.6912
				c0-3.1328-2.5634-5.6958-5.6962-5.6958c-3.1062,0-5.6453,2.5219-5.688,5.6187h-0.0158c-0.0426-3.0968-2.5818-5.6187-5.688-5.6187
				h-0.0002c-3.1326,0-5.696,2.563-5.696,5.6958v1.193c-0.8151-1.4088-2.3219-2.3728-4.058-2.3728
				c-2.5875,0-4.7047,2.117-4.7047,4.7045v11.2909h0.0638c-0.0322,0.4153-0.0638,0.831-0.0638,1.2542v4.3468
				c0,5.0108,2.3144,9.5059,5.9255,12.4735l1.3038,79.0284h28.34l1.3038-79.0284c3.6112-2.9676,5.9255-7.4627,5.9255-12.4735
				v-4.3468C96.3993,39.0441,96.3416,38.372,96.2574,37.7076z"/>
		</g>
	</g>
</g>
</svg>
