<?xml version="1.0" encoding="utf-8"?>
<!-- Generator: Adobe Illustrator 27.7.0, SVG Export Plug-In . SVG Version: 6.00 Build 0)  -->
<svg version="1.1" id="Layer_1" xmlns="http://www.w3.org/2000/svg" xmlns:xlink="http://www.w3.org/1999/xlink" x="0px" y="0px"
	 width="150px" height="150px" viewBox="0 0 150 150" style="enable-background:new 0 0 150 150;" xml:space="preserve">
<g>
	<g>
		<circle style="fill:#DCE7F7;" cx="75" cy="75" r="50"/>
		<circle style="fill:#A3BBD8;" cx="75" cy="74.9998" r="34"/>
	</g>
	<g>
		<defs>
			<circle id="SVGID_00000082341561544413844420000005080360852143760303_" cx="75" cy="75" r="50"/>
		</defs>
		<clipPath id="SVGID_00000111186425826488049500000003873943444347333053_">
			<use xlink:href="#SVGID_00000082341561544413844420000005080360852143760303_"  style="overflow:visible;"/>
		</clipPath>
		
			<rect x="24.7557" y="25" style="opacity:0.4;clip-path:url(#SVGID_00000111186425826488049500000003873943444347333053_);fill:#7C92B5;" width="50" height="100"/>
	</g>
	<g>
		<defs>
			<path id="SVGID_00000062887562120449101210000010456675255019443089_" d="M135.8945,35.1505L79.2883,3.0601L46.7884,56.043
				l0.0002,0.0005C43.1353,61.4629,41,67.9864,41,74.9998c0,18.748,15.2524,34,34,34c13.3306,0,24.8873-7.7148,30.4568-18.9109
				l0.0017,0.0002L135.8945,35.1505z"/>
		</defs>
		<clipPath id="SVGID_00000070103421911384224680000006900336699039597717_">
			<use xlink:href="#SVGID_00000062887562120449101210000010456675255019443089_"  style="overflow:visible;"/>
		</clipPath>
		<g style="clip-path:url(#SVGID_00000070103421911384224680000006900336699039597717_);">
			<path style="fill-rule:evenodd;clip-rule:evenodd;fill:#C0B1C3;" d="M132.0506,39.0595
				c0.6968-1.2311,0.8731-2.6902,0.5008-4.0512c-0.3793-1.3641-1.286-2.5228-2.5126-3.217
				c-9.6952-5.4875-32.0011-18.1127-41.6969-23.6006c-1.2327-0.6977-2.6867-0.8752-4.0508-0.4979
				c-1.3651,0.3776-2.5193,1.2832-3.2161,2.5143c-9.6285,17.0113-42.9196,75.8292-52.5481,92.8405
				c-0.6968,1.2311-0.8792,2.6868-0.5002,4.0515c0.3787,1.3638,1.2793,2.519,2.512,3.2167
				c9.6959,5.4879,32.0017,18.1131,41.6969,23.6006c1.2266,0.6942,2.6867,0.8752,4.0514,0.4982
				c1.3584-0.3814,2.5187-1.2836,3.2155-2.5147C89.131,114.8887,122.4222,56.0708,132.0506,39.0595z"/>
			<path style="fill-rule:evenodd;clip-rule:evenodd;fill:#20081C;" d="M127.6916,36.5923
				c0.6968-1.2311,0.8731-2.6902,0.5008-4.0512c-0.3793-1.3641-1.286-2.5228-2.5126-3.217
				c-9.7141-5.4982-32.0698-18.1516-41.7839-23.6498C82.6694,4.98,81.2093,4.799,79.8446,5.176
				c-1.3584,0.3814-2.5187,1.2836-3.2155,2.5147C67.0006,24.702,33.7095,83.5199,24.081,100.5312
				c-0.6968,1.2311-0.8731,2.6902-0.5008,4.0512c0.3793,1.3641,1.286,2.5228,2.5126,3.217
				c9.7141,5.4982,32.0698,18.1516,41.7839,23.6498c1.2266,0.6942,2.6867,0.8752,4.0514,0.4982
				c1.3584-0.3814,2.5187-1.2836,3.2155-2.5147C84.772,112.4215,118.0632,53.6036,127.6916,36.5923z"/>
			<g>
				<defs>
					<path id="SVGID_00000014620966516024508620000002017183654313526699_" d="M127.6916,36.5923
						c0.6968-1.2311,0.8731-2.6902,0.5008-4.0512c-0.3793-1.3641-1.286-2.5228-2.5126-3.217
						c-9.7141-5.4982-32.0698-18.1516-41.7839-23.6498C82.6694,4.98,81.2093,4.799,79.8446,5.176
						c-1.3584,0.3814-2.5187,1.2836-3.2155,2.5147C67.0006,24.702,33.7095,83.5199,24.081,100.5312
						c-0.6968,1.2311-0.8731,2.6902-0.5008,4.0512c0.3793,1.3641,1.286,2.5228,2.5126,3.217
						c9.7141,5.4982,32.0698,18.1516,41.7839,23.6498c1.2266,0.6942,2.6867,0.8752,4.0514,0.4982
						c1.3584-0.3814,2.5187-1.2836,3.2155-2.5147C84.772,112.4215,118.0632,53.6036,127.6916,36.5923z"/>
				</defs>
				<clipPath id="SVGID_00000006693185668365679400000011392156871509674643_">
					<use xlink:href="#SVGID_00000014620966516024508620000002017183654313526699_"  style="overflow:visible;"/>
				</clipPath>
				
					<rect x="-7.7148" y="50.5185" transform="matrix(0.4926 -0.8703 0.8703 0.4926 -19.5422 72.8788)" style="clip-path:url(#SVGID_00000006693185668365679400000011392156871509674643_);fill-rule:evenodd;clip-rule:evenodd;fill:#DFD4E1;" width="120.88" height="5.3582"/>
				
					<rect x="40.5251" y="77.8389" transform="matrix(0.4926 -0.8703 0.8703 0.4926 -18.8259 128.7153)" style="clip-path:url(#SVGID_00000006693185668365679400000011392156871509674643_);fill-rule:evenodd;clip-rule:evenodd;fill:#DFD4E1;" width="120.88" height="5.3253"/>
			</g>
			<path style="fill-rule:evenodd;clip-rule:evenodd;fill:#20081C;" d="M89.9734,62.5576c0.9731-1.7193,0.3673-3.9032-1.3513-4.8759
				c-2.8642-1.6212-7.0992-4.0182-9.9634-5.6393c-1.7185-0.9727-3.9027-0.368-4.8759,1.3513
				c-0.9791,1.7299-2.193,3.8745-3.1721,5.6044c-0.9731,1.7193-0.3673,3.9032,1.3513,4.8759
				c2.8642,1.6212,7.0992,4.0182,9.9634,5.6393c1.7185,0.9727,3.9027,0.368,4.8759-1.3513
				C87.7804,66.4321,88.9943,64.2875,89.9734,62.5576z"/>
			<path style="fill-rule:evenodd;clip-rule:evenodd;fill:#B1B3B3;" d="M78.6587,52.0424l-0.0371-0.021l-0.0445-0.0235
				l-0.0384-0.0201l-0.0442-0.0226l-0.0388-0.0195l-0.0389-0.0179l-0.0455-0.0217l-0.0392-0.0173l-0.0402-0.017l-0.0456-0.0201
				l-0.0409-0.0157l-0.0403-0.0154l-0.0409-0.0157l-0.0471-0.0176l-0.0416-0.0145L77.9939,51.75l-0.0419-0.0139l-0.042-0.0123
				l-0.0426-0.0126l-0.0424-0.0117l-0.0427-0.011l-0.0437-0.0108l-0.0431-0.0104l-0.044-0.0101l-0.0434-0.0098l-0.0381-0.0051
				l-0.0448-0.0089l-0.0441-0.0085l-0.0455-0.0076l-0.0388-0.0038l-0.091-0.0137l-0.0854-0.008l-0.0867-0.0071l-0.0878-0.0053
				l-0.0818-0.0002l-0.0895-0.0022l-0.0839,0.0035l-0.0852,0.0044l-0.0914,0.0026l-0.0799,0.0107l-0.0877,0.0088l-0.0878,0.0103
				l-0.0827,0.0157l-0.0831,0.0163l-0.0848,0.0178l-0.0848,0.0194l-0.0852,0.02l-0.0802,0.0253l-0.0809,0.0266l-0.0816,0.0278
				l-0.0823,0.0291l-0.076,0.0335l-0.0834,0.0309l-0.0783,0.0362l-0.0783,0.0362l-0.0727,0.0419l-0.0797,0.0387l-0.0738,0.0438
				l-0.0751,0.0447l-0.0687,0.0491l-0.0752,0.0463l-0.0698,0.0509l-0.0711,0.0518l-0.0648,0.0563l-0.0383,0.0252l-0.0329,0.0283
				l-0.0322,0.0286l-0.0332,0.0289l-0.033,0.0299l-0.0332,0.0289l-0.0269,0.0333l-0.033,0.0299L74.35,52.6384l-0.0269,0.0333
				l-0.0339,0.0301l-0.0276,0.0345l-0.0333,0.0305l-0.0282,0.0342l-0.0276,0.0345l-0.0279,0.0352l-0.0279,0.0352l-0.0285,0.0348
				l-0.0279,0.0352l-0.0279,0.0352l-0.0283,0.0358l-0.0222,0.0392l-0.0289,0.0354l-0.0283,0.0358l-0.0226,0.0398l-0.0226,0.0399
				l-0.0286,0.0364l-0.0226,0.0398l-0.0226,0.0399l-0.0229,0.0405l-3.1721,5.6044l-0.0229,0.0405l-0.0226,0.0399l-0.0226,0.0398
				l-0.0165,0.0433l-0.0226,0.0399l-0.0226,0.0398l-0.0161,0.0427l-0.0155,0.043l-0.0222,0.0392l-0.0161,0.0427l-0.0158,0.0421
				l-0.0158,0.042l-0.0152,0.0424l-0.0158,0.042l-0.0158,0.0421l-0.0154,0.0414l-0.0148,0.0418l-0.009,0.0442l-0.0154,0.0414
				l-0.0084,0.0446l-0.0147,0.0402l-0.0084,0.0446l-0.0086,0.0436l-0.0147,0.0402l-0.0077,0.0433l-0.0086,0.0436l-0.0077,0.0433
				l-0.0079,0.0424l-0.0073,0.0427l-0.0018,0.0458l-0.0149,0.0845l-0.0079,0.0876l-0.0078,0.0861l-0.001,0.0882l-0.0067,0.0842
				l0.0003,0.0873l0.0004,0.0858l0.0078,0.0883l0.0015,0.0839l0.0092,0.0858l0.0092,0.0858l0.0164,0.0874l0.0104,0.0823
				l0.0174,0.0855l0.0181,0.0843l0.0189,0.083l0.0196,0.0818l0.0267,0.0834l0.027,0.0827l0.0284,0.0818l0.0288,0.0796l0.0292,0.079
				l0.0363,0.0806l0.0376,0.0797l0.032,0.074l0.0448,0.0797l0.0401,0.0753l0.0402,0.0737l0.0479,0.0756l0.0423,0.07l0.0497,0.0725
				l0.0507,0.0706l0.0508,0.0691l0.0586,0.071l0.0233,0.0313l0.0299,0.035l0.0301,0.0334l0.0306,0.0338l0.024,0.03l0.0308,0.0322
				l0.0314,0.0326l0.0311,0.0316l0.0317,0.0319l0.0314,0.031l0.0318,0.0303l0.0328,0.0301l0.0322,0.0297l0.0335,0.0288
				l0.0325,0.0291l0.0338,0.0282l0.0393,0.0313l0.0345,0.0269l0.0339,0.0266l0.0345,0.0269l0.0407,0.0288l0.0352,0.0257
				l0.035,0.0247l0.042,0.0279l0.0353,0.0241l0.0366,0.0232l0.0421,0.0263l0.037,0.0226l0.0431,0.026l0.0371,0.021l9.9634,5.6393
				l0.0371,0.021l0.0445,0.0235l0.0384,0.0201l0.0442,0.0226l0.0388,0.0195l0.0389,0.0179l0.0455,0.0217l0.0392,0.0173l0.0402,0.017
				l0.0456,0.0201l0.0409,0.0157l0.0403,0.0154l0.0409,0.0157l0.0471,0.0176l0.0416,0.0145l0.0417,0.0129l0.0419,0.0139
				l0.042,0.0123l0.0426,0.0126l0.0424,0.0117l0.0427,0.011l0.0437,0.0107l0.0431,0.0104l0.044,0.0101l0.0434,0.0098l0.0381,0.0051
				l0.0448,0.0089l0.0441,0.0085l0.0455,0.0076l0.0388,0.0039l0.091,0.0137l0.0854,0.008l0.0867,0.0071l0.0878,0.0053l0.0818,0.0002
				l0.0895,0.0022l0.0839-0.0035l0.0852-0.0044l0.0914-0.0026l0.0799-0.0107l0.0877-0.0088l0.0878-0.0103l0.0827-0.0157
				l0.0831-0.0163l0.0848-0.0178l0.0848-0.0194l0.0852-0.02l0.0802-0.0253l0.0809-0.0266l0.0816-0.0278l0.0823-0.0291l0.076-0.0335
				l0.0834-0.0309l0.0783-0.0362l0.0783-0.0362l0.0727-0.0419l0.0797-0.0387l0.0738-0.0438l0.0751-0.0447l0.0687-0.0491
				l0.0752-0.0463l0.0698-0.0509l0.0711-0.0518l0.0648-0.0563l0.0383-0.0252l0.0329-0.0283l0.0322-0.0286l0.0332-0.0289
				l0.033-0.0299l0.0332-0.0289l0.0269-0.0333l0.033-0.0299l0.0339-0.0301l0.0269-0.0333l0.0339-0.0301l0.0276-0.0345l0.0333-0.0305
				l0.0282-0.0342l0.0276-0.0345l0.0279-0.0352l0.0279-0.0352l0.0285-0.0348l0.0279-0.0352l0.0279-0.0352l0.0283-0.0358
				l0.0222-0.0392l0.0289-0.0355l0.0283-0.0358l0.0226-0.0398l0.0226-0.0398l0.0286-0.0364l0.0226-0.0398l0.0226-0.0398
				l0.0229-0.0405l3.1721-5.6044l0.0229-0.0405l0.0226-0.0399l0.0226-0.0398l0.0165-0.0433l0.0226-0.0398l0.0226-0.0399
				l0.0161-0.0427l0.0155-0.043l0.0222-0.0392l0.0161-0.0427l0.0158-0.0421l0.0158-0.042l0.0152-0.0424l0.0158-0.042l0.0158-0.0421
				l0.0154-0.0414l0.0148-0.0418l0.009-0.0442l0.0154-0.0414l0.0084-0.0446l0.0147-0.0402l0.0084-0.0446l0.0086-0.0436
				l0.0147-0.0402l0.0077-0.0433l0.0086-0.0436l0.0077-0.0433l0.0079-0.0424l0.0073-0.0427l0.0018-0.0458l0.0149-0.0845
				l0.0079-0.0876l0.0078-0.0861l0.001-0.0882l0.0067-0.0842l-0.0003-0.0873l-0.0004-0.0858l-0.0078-0.0883l-0.0015-0.0839
				l-0.0092-0.0858l-0.0092-0.0858l-0.0164-0.0874l-0.0104-0.0823l-0.0174-0.0855l-0.0181-0.0843l-0.0189-0.083l-0.0196-0.0818
				l-0.0267-0.0834l-0.027-0.0827l-0.0284-0.0818l-0.0288-0.0796l-0.0292-0.079l-0.0363-0.0806l-0.0376-0.0797l-0.032-0.074
				l-0.0448-0.0797l-0.0401-0.0753l-0.0402-0.0737l-0.0479-0.0756l-0.0423-0.07l-0.0497-0.0725l-0.0507-0.0706l-0.0508-0.0691
				l-0.0586-0.071l-0.0233-0.0313l-0.03-0.035l-0.0301-0.0334l-0.0306-0.0338l-0.024-0.03l-0.0308-0.0322l-0.0314-0.0326
				l-0.0311-0.0316l-0.0317-0.0319l-0.0314-0.031l-0.0318-0.0303l-0.0328-0.0301l-0.0322-0.0297l-0.0335-0.0288l-0.0325-0.0291
				l-0.0338-0.0282l-0.0393-0.0313l-0.0345-0.0269l-0.0339-0.0266l-0.0345-0.0269l-0.0407-0.0288l-0.0352-0.0257l-0.035-0.0247
				l-0.042-0.0279l-0.0353-0.0241l-0.0366-0.0232l-0.0421-0.0263l-0.037-0.0226l-0.0431-0.026l-0.0371-0.021L78.6587,52.0424z
				 M89.7412,55.8493l0.0684,0.0395l0.0606,0.0376l0.0612,0.0379l0.0599,0.0389l0.0602,0.0398l0.0592,0.0401l0.0652,0.0451
				l0.0582,0.042l0.0578,0.0426l0.052,0.0401l0.0567,0.0444l0.0564,0.0451l0.057,0.0454l0.0557,0.0463l0.0556,0.0479l0.0543,0.0488
				l0.0489,0.0441l0.0545,0.0498l0.0529,0.0513l0.0529,0.0513l0.0477,0.0476l0.0464,0.0485l0.0515,0.0538l0.0461,0.0491
				l0.0454,0.0504l0.051,0.056l0.0433,0.0541l0.0443,0.0522l0.0496,0.0585l0.0865,0.1082l0.078,0.1091l0.0833,0.1138l0.0755,0.1134
				l0.0741,0.1159l0.0726,0.12l0.072,0.1197l0.0625,0.1209l0.0684,0.1275l0.0557,0.1187l0.0592,0.1281l0.0521,0.1265l0.0525,0.1243
				l0.0435,0.1274l0.0515,0.1402l0.0354,0.1261l0.0371,0.1246l0.039,0.1339l0.0294,0.1367l0.0341,0.1426l0.0237,0.1326
				l0.0208,0.1236l0.0195,0.1401l0.0117,0.1382l0.0151,0.1335l0.0106,0.1416l0.0028,0.1397l0.0027,0.1413l0.0003,0.1301
				l-0.0054,0.14l-0.0054,0.14l-0.0125,0.1384l-0.0129,0.1391l-0.0144,0.1275l-0.017,0.0882l-0.007,0.0692l-0.0098,0.0471
				l-0.0174,0.0888l-0.0132,0.0673l-0.0104,0.0467l-0.017,0.0882l-0.0241,0.0866l-0.0104,0.0467l-0.0136,0.068l-0.0245,0.0873
				l-0.0165,0.0433l-0.0203,0.0642l-0.0249,0.0879l-0.0204,0.0658l-0.0206,0.0648l-0.0313,0.0851l-0.027,0.062l-0.0165,0.0433
				l-0.0274,0.0626l-0.0309,0.0844l-0.038,0.0813l-0.0274,0.0626l-0.0226,0.0398l-0.0268,0.0629l-0.038,0.0813l-0.038,0.0813
				l-0.0335,0.0592l-0.0229,0.0405l-0.0335,0.0592l-3.1933,5.6418l-0.0335,0.0592l-0.0229,0.0405l-0.0335,0.0592l-0.0501,0.0744
				l-0.0501,0.0744l-0.0398,0.0547l-0.0229,0.0405l-0.0396,0.0557l-0.0498,0.0738l-0.0568,0.0706l-0.0396,0.0557l-0.0286,0.0364
				l-0.0392,0.0551l-0.0565,0.07l-0.0453,0.0517l-0.0459,0.0513l-0.0622,0.0659l-0.0453,0.0517l-0.0283,0.0358l-0.0619,0.0653
				l-0.0516,0.0472l-0.0347,0.033l-0.0618,0.0653l-0.0676,0.0612l-0.034,0.0317l-0.0509,0.046l-0.0672,0.0606l-0.035,0.032
				l-0.056,0.0423l-0.0669,0.06l-0.1023,0.0786l-0.1123,0.082l-0.1123,0.082l-0.1176,0.0773l-0.1169,0.0761l-0.112,0.0674
				l-0.1222,0.0698l-0.1209,0.0689l-0.1272,0.0645l-0.1223,0.0558l-0.1245,0.0611l-0.1305,0.0561l-0.1166,0.0458l-0.1252,0.0467
				l-0.1398,0.0442l-0.133,0.0464l-0.1345,0.0348l-0.1255,0.0317l-0.1271,0.0358l-0.1467,0.028l-0.1309,0.027l-0.1336,0.0189
				l-0.1356,0.0211l-0.1403,0.0152l-0.1304,0.0134l-0.1445,0.007l-0.1358,0.0086L83.721,72.123l-0.1406,0.0002l-0.1372-0.0045
				l-0.1358-0.007l-0.1408-0.0123l-0.1333-0.0113l-0.1373-0.0185l-0.0764-0.0112l-0.0611-0.0083l-0.0744-0.0133l-0.0746-0.0143
				l-0.0665-0.013l-0.0662-0.0136l-0.0723-0.017l-0.0651-0.0155l-0.0657-0.0158l-0.0715-0.0183l-0.0708-0.0195l-0.0704-0.0218
				l-0.0633-0.0186l-0.0694-0.022l-0.0697-0.023l-0.0687-0.0233l-0.0683-0.0255l-0.0677-0.0251l-0.0673-0.0258l-0.0611-0.0239
				l-0.0663-0.0276l-0.0659-0.0283l-0.0722-0.0327l-0.0649-0.0301l-0.0651-0.0311l-0.0641-0.0314l-0.064-0.033l-0.0631-0.0332
				l-0.0694-0.0377l-0.0563-0.031l-9.9756-5.6462l-0.0556-0.0323l-0.0619-0.0367l-0.0671-0.0404l-0.0612-0.0379l-0.0599-0.0388
				l-0.0602-0.0398l-0.0592-0.0401l-0.0585-0.0413l-0.0648-0.0457l-0.0578-0.0426l-0.052-0.0401l-0.0567-0.0444l-0.0564-0.0451
				l-0.0627-0.0495l-0.0493-0.0435l-0.0559-0.0473L69.91,65.0295l-0.06-0.0529l-0.0484-0.0463l-0.0536-0.0501l-0.0471-0.0472
				l-0.0468-0.0479l-0.0528-0.0529l-0.0518-0.0532l-0.0457-0.0497l-0.051-0.056l-0.045-0.051l-0.045-0.051l-0.0479-0.06
				l-0.0489-0.0597l-0.0765-0.0975l-0.0848-0.1113l-0.0819-0.1163l-0.0815-0.1185l-0.0688-0.1097l-0.0736-0.1181l-0.0749-0.1287
				l-0.0582-0.1143l-0.0634-0.1206l-0.0646-0.1327l-0.0552-0.1209l-0.0538-0.1234l-0.0483-0.1317l-0.0499-0.1302l-0.0443-0.1246
				L68.245,62.423l-0.0379-0.1374l-0.0333-0.1298l-0.0315-0.133l-0.0312-0.1336l-0.0247-0.1308l-0.0198-0.1395l-0.0226-0.1345
				l-0.0117-0.1382l-0.0173-0.1438l-0.008-0.132l-0.0013-0.1282l-0.0095-0.1435l0.0047-0.1388l0.005-0.1394l0.0057-0.1406
				l0.0125-0.1384l0.0125-0.1384l0.0182-0.1484l0.0136-0.068l0.0036-0.0489l0.017-0.0882l0.0136-0.068l0.0132-0.0673l0.0138-0.067
				l0.0136-0.068l0.02-0.0651l0.0145-0.0682l0.0139-0.0686l0.0206-0.0648l0.0241-0.0866l0.0204-0.0658l0.0206-0.0648l0.0204-0.0658
				l0.0271-0.062l0.021-0.0654l0.0204-0.0658l0.038-0.0813l0.0204-0.0658l0.0274-0.0626l0.0271-0.062l0.027-0.062l0.0271-0.0636
				l0.038-0.0813l0.0441-0.0778l0.0226-0.0399l0.0274-0.0626l0.0441-0.0778l3.2391-5.7227l0.0441-0.0778l0.0621-0.0956
				l0.0444-0.0785l0.0501-0.0744l0.0398-0.0547l0.0396-0.0557l0.0396-0.0557l0.0855-0.107l0.0498-0.0738l0.0459-0.0513
				l0.0456-0.0523l0.0389-0.0545l0.0459-0.0513l0.0453-0.0517l0.0452-0.0501l0.0626-0.0665l0.0449-0.051l0.0513-0.0466l0.051-0.0476
				l0.0455-0.0507l0.0509-0.046l0.0507-0.047l0.0509-0.046l0.0513-0.0466l0.0672-0.0606l0.0397-0.0277l0.0513-0.0466l0.1175-0.0913
				l0.1126-0.0826l0.1123-0.082l0.1173-0.0767l0.1173-0.0767l0.1162-0.0748l0.1283-0.0663l0.1109-0.0655l0.1169-0.0604
				l0.1322-0.0592l0.1245-0.0611l0.1266-0.0492l0.1298-0.0548l0.1256-0.0473l0.1306-0.042l0.1292-0.0395l0.1292-0.0395
				l0.1376-0.0389l0.1321-0.0305l0.1296-0.0261l0.1381-0.0255l0.1378-0.0264l0.1331-0.0167l0.1321-0.0149l0.147-0.013l0.136-0.0077
				l0.1279-0.009l0.1489-0.002l0.1388,0.0029l0.1294,0.0026l0.1442,0.0076l0.1415,0.011l0.1394,0.0148l0.123,0.0153l0.069,0.0086
				l0.0832,0.0134l0.0672,0.0117l0.0665,0.013l0.0743,0.0149l0.0658,0.0142l0.0726,0.0164l0.0729,0.0174l0.0648,0.0161
				l0.0644,0.0167l0.0644,0.0167l0.0775,0.0233l0.0694,0.022l0.0633,0.0186l0.0693,0.0236l0.0623,0.0205l0.0747,0.0283
				l0.0677,0.0251l0.0673,0.0258l0.0611,0.0239l0.0663,0.0276l0.0726,0.032l0.0652,0.0295l0.0652,0.0295l0.0651,0.0311
				l0.0641,0.0314l0.064,0.033l0.0695,0.0361l0.063,0.0348l0.0563,0.031l9.9756,5.6462L89.7412,55.8493z"/>
			<path style="fill-rule:evenodd;clip-rule:evenodd;fill:#3E193F;" d="M102.3191,65.0051c0.203-0.3587,0.2544-0.7843,0.1428-1.1829
				c-0.1049-0.3948-0.3733-0.735-0.7278-0.9357c-0.872-0.4936-1.9867-1.1245-2.8582-1.6177
				c-0.3551-0.201-0.7849-0.256-1.1774-0.1427c-0.3992,0.1095-0.7376,0.3726-0.9407,0.7313
				c-0.1004,0.1775-0.203,0.3587-0.3035,0.5362c-0.2034,0.3593-0.2548,0.7849-0.1432,1.1835
				c0.1053,0.3942,0.3736,0.7344,0.7288,0.9354c0.8714,0.4932,1.9861,1.1242,2.8582,1.6177
				c0.3545,0.2007,0.7843,0.2556,1.1765,0.143c0.3992-0.1095,0.7376-0.3726,0.941-0.7319
				C102.1161,65.3637,102.2187,65.1825,102.3191,65.0051z"/>
			<path style="fill-rule:evenodd;clip-rule:evenodd;fill:#3E193F;" d="M99.1713,70.5665c0.2034-0.3593,0.2548-0.7849,0.1432-1.1835
				c-0.1049-0.3949-0.3733-0.735-0.7278-0.9357c-0.872-0.4936-1.9867-1.1245-2.8582-1.6177
				c-0.3551-0.201-0.7849-0.256-1.1774-0.1427c-0.3992,0.1095-0.7376,0.3726-0.941,0.7319
				c-0.1001,0.1768-0.203,0.3587-0.3031,0.5355c-0.2034,0.3593-0.2548,0.7849-0.1432,1.1835
				c0.1049,0.3948,0.3733,0.735,0.7284,0.936c0.8714,0.4932,1.9861,1.1242,2.8582,1.6177c0.3545,0.2007,0.7843,0.2556,1.1768,0.1423
				c0.3992-0.1095,0.7376-0.3726,0.941-0.7319C98.9683,70.9252,99.0712,70.7434,99.1713,70.5665z"/>
			<path style="fill-rule:evenodd;clip-rule:evenodd;fill:#3E193F;" d="M96.0239,76.1274c0.203-0.3587,0.2544-0.7843,0.1428-1.1829
				c-0.1049-0.3948-0.3733-0.735-0.7278-0.9357c-0.872-0.4936-1.9867-1.1245-2.8582-1.6177
				c-0.3551-0.201-0.7849-0.256-1.1774-0.1427c-0.3992,0.1095-0.7376,0.3726-0.9407,0.7313
				c-0.1004,0.1775-0.203,0.3587-0.3035,0.5362c-0.2034,0.3593-0.2548,0.7849-0.1428,1.1829
				c0.1049,0.3948,0.3733,0.735,0.7284,0.936c0.8714,0.4932,1.9861,1.1242,2.8582,1.6177c0.3545,0.2007,0.7843,0.2556,1.1768,0.1423
				c0.3989-0.1089,0.7373-0.372,0.9407-0.7313C95.8208,76.486,95.9234,76.3048,96.0239,76.1274z"/>
			<path style="fill-rule:evenodd;clip-rule:evenodd;fill:#3E193F;" d="M75.1707,110.5004
				c0.2337-0.4129,0.2961-0.9005,0.1683-1.3584c-0.1272-0.4576-0.4328-0.8468-0.8439-1.0795
				c-0.2116-0.1198-0.4299-0.2433-0.6416-0.3631c-0.4111-0.2327-0.9021-0.2943-1.3599-0.1679
				c-0.4517,0.1299-0.8443,0.4306-1.078,0.8435c-0.2337,0.4129-0.2894,0.9043-0.1683,1.3584
				c0.1272,0.4576,0.4328,0.8468,0.8439,1.0795c0.2116,0.1198,0.4299,0.2433,0.6416,0.3631
				c0.4111,0.2327,0.9021,0.2943,1.3599,0.1679C74.5511,111.2177,74.937,110.9132,75.1707,110.5004z"/>
			<path style="fill-rule:evenodd;clip-rule:evenodd;fill:#3E193F;" d="M56.8754,100.1452
				c0.2337-0.4129,0.2894-0.9043,0.1622-1.3619c-0.1211-0.4542-0.4267-0.8434-0.8378-1.0761
				c-0.2116-0.1198-0.4299-0.2433-0.6416-0.3631c-0.4111-0.2327-0.9021-0.2943-1.3599-0.1679
				c-0.4584,0.1262-0.8443,0.4306-1.078,0.8435c-0.2337,0.4129-0.2961,0.9005-0.1683,1.3584
				c0.1272,0.4576,0.4328,0.8468,0.8439,1.0795c0.2116,0.1198,0.4299,0.2433,0.6416,0.3631
				c0.4111,0.2327,0.9021,0.2944,1.3538,0.1644C56.2491,100.8587,56.6418,100.558,56.8754,100.1452z"/>
			<path style="fill-rule:evenodd;clip-rule:evenodd;fill:#3E193F;" d="M69.0743,107.0498c0.2337-0.4129,0.29-0.9039,0.1622-1.3619
				c-0.1272-0.4576-0.4268-0.8434-0.8378-1.0761c-0.2116-0.1198-0.4299-0.2433-0.6416-0.3631
				c-0.4172-0.2361-0.9021-0.2943-1.3599-0.1679c-0.4575,0.1259-0.8436,0.4294-1.0773,0.8423
				c-0.0004,0.0006-0.0011,0.0019-0.0014,0.0025c-0.2337,0.4128-0.2951,0.9002-0.1676,1.3572
				c0.1272,0.4576,0.4267,0.8434,0.8439,1.0795c0.2116,0.1198,0.4299,0.2433,0.6416,0.3631
				c0.4111,0.2327,0.896,0.2909,1.3538,0.1644C68.4486,107.7637,68.8406,107.4626,69.0743,107.0498z"/>
			<path style="fill-rule:evenodd;clip-rule:evenodd;fill:#3E193F;" d="M50.7729,96.6911c0.2337-0.4129,0.2955-0.9008,0.1683-1.3584
				c-0.1272-0.4576-0.4328-0.8468-0.8439-1.0795c-0.2116-0.1198-0.4299-0.2433-0.6416-0.3631
				c-0.4111-0.2327-0.9021-0.2943-1.3538-0.1644c-0.4581,0.1255-0.8497,0.426-1.0834,0.8388
				c-0.0004,0.0006-0.0011,0.0019-0.0014,0.0025c-0.2337,0.4128-0.2896,0.9033-0.1615,1.3606
				c0.1211,0.4542,0.4267,0.8434,0.8378,1.0761c0.2116,0.1198,0.4299,0.2433,0.6416,0.3631
				c0.4111,0.2327,0.9021,0.2943,1.3599,0.1679C50.1527,97.4081,50.5393,97.104,50.7729,96.6911z"/>
			<path style="fill-rule:evenodd;clip-rule:evenodd;fill:#3E193F;" d="M62.9718,103.5957
				c0.2337-0.4129,0.2961-0.9005,0.1683-1.3584c-0.1272-0.4576-0.4328-0.8468-0.8439-1.0795
				c-0.2116-0.1198-0.4299-0.2433-0.6416-0.3631c-0.4111-0.2327-0.9021-0.2943-1.3538-0.1644
				c-0.4578,0.1265-0.8504,0.4272-1.0841,0.8401c-0.2337,0.4129-0.2894,0.9043-0.1622,1.3619
				c0.1211,0.4542,0.4267,0.8434,0.8378,1.0761c0.2116,0.1198,0.4299,0.2433,0.6416,0.3631
				c0.4111,0.2327,0.9021,0.2943,1.3599,0.1679C62.3522,104.3131,62.7381,104.0086,62.9718,103.5957z"/>
			<path style="fill-rule:evenodd;clip-rule:evenodd;fill:#3E193F;" d="M44.6766,93.2406c0.2337-0.4129,0.2894-0.9043,0.1683-1.3584
				c-0.1272-0.4576-0.4328-0.8468-0.8439-1.0795c-0.2116-0.1198-0.4299-0.2433-0.6416-0.3631
				c-0.4111-0.2327-0.9021-0.2943-1.3599-0.1679c-0.4584,0.1262-0.8443,0.4306-1.078,0.8435
				c-0.2337,0.4129-0.2961,0.9005-0.1683,1.3584c0.1272,0.4576,0.4328,0.8468,0.8439,1.0795
				c0.2116,0.1198,0.4299,0.2433,0.6416,0.3631c0.4111,0.2327,0.9021,0.2944,1.3599,0.1679
				C44.0503,93.9541,44.4429,93.6534,44.6766,93.2406z"/>
			<path style="fill-rule:evenodd;clip-rule:evenodd;fill:#3E193F;" d="M72.0299,116.0494
				c0.2337-0.4129,0.2961-0.9005,0.1683-1.3584c-0.1272-0.4576-0.4328-0.8468-0.8439-1.0795
				c-0.2116-0.1198-0.4299-0.2433-0.6416-0.3631c-0.4111-0.2327-0.9021-0.2944-1.3599-0.1679
				c-0.4517,0.1299-0.8443,0.4306-1.078,0.8435c-0.2337,0.4129-0.2894,0.9043-0.1683,1.3584
				c0.1275,0.457,0.4328,0.8468,0.8439,1.0795c0.2116,0.1198,0.4299,0.2433,0.6416,0.3631
				c0.4111,0.2327,0.9025,0.2937,1.3599,0.1679C71.4103,116.7667,71.7963,116.4622,72.0299,116.0494z"/>
			<path style="fill-rule:evenodd;clip-rule:evenodd;fill:#3E193F;" d="M53.7347,105.6942
				c0.2337-0.4129,0.2894-0.9043,0.1622-1.3619c-0.1211-0.4542-0.4267-0.8434-0.8378-1.0761
				c-0.2116-0.1198-0.4299-0.2433-0.6416-0.3631c-0.4111-0.2327-0.9021-0.2943-1.3599-0.1679
				c-0.4584,0.1261-0.8443,0.4306-1.078,0.8435c-0.2337,0.4129-0.2961,0.9005-0.1683,1.3584
				c0.1276,0.457,0.4328,0.8468,0.8439,1.0795c0.2116,0.1198,0.4299,0.2433,0.6416,0.3631
				c0.4111,0.2327,0.9025,0.2937,1.3538,0.1644C53.1084,106.4077,53.501,106.107,53.7347,105.6942z"/>
			<path style="fill-rule:evenodd;clip-rule:evenodd;fill:#3E193F;" d="M65.9335,112.5988c0.2337-0.4129,0.29-0.9039,0.1622-1.3619
				c-0.1272-0.4576-0.4267-0.8434-0.8378-1.0761c-0.2116-0.1198-0.4299-0.2433-0.6416-0.3631
				c-0.4172-0.2361-0.9021-0.2943-1.3599-0.1679c-0.4575,0.1259-0.8436,0.4294-1.0773,0.8422
				c-0.0004,0.0006-0.0011,0.0019-0.0014,0.0025c-0.2333,0.4122-0.2951,0.9002-0.1676,1.3572
				c0.1272,0.4576,0.4267,0.8434,0.8439,1.0795c0.2116,0.1198,0.4299,0.2433,0.6416,0.3631
				c0.4111,0.2327,0.8964,0.2903,1.3538,0.1644C65.3079,113.3127,65.6999,113.0116,65.9335,112.5988z"/>
			<path style="fill-rule:evenodd;clip-rule:evenodd;fill:#3E193F;" d="M47.6322,102.2401
				c0.2337-0.4129,0.2955-0.9008,0.1683-1.3584c-0.1272-0.4576-0.4328-0.8468-0.8439-1.0795
				c-0.2116-0.1198-0.4299-0.2433-0.6416-0.3631c-0.4111-0.2327-0.9021-0.2944-1.3538-0.1644
				c-0.4581,0.1255-0.8497,0.4259-1.0834,0.8388c-0.0004,0.0006-0.0011,0.0019-0.0014,0.0025
				c-0.2333,0.4122-0.2897,0.9033-0.1615,1.3606c0.1211,0.4542,0.4267,0.8434,0.8378,1.0761
				c0.2116,0.1198,0.4299,0.2433,0.6416,0.3631c0.4111,0.2327,0.9025,0.2937,1.3599,0.1679
				C47.012,102.9572,47.3985,102.653,47.6322,102.2401z"/>
			<path style="fill-rule:evenodd;clip-rule:evenodd;fill:#3E193F;" d="M59.8311,109.1448
				c0.2337-0.4129,0.2961-0.9005,0.1683-1.3584c-0.1272-0.4576-0.4328-0.8468-0.8439-1.0795
				c-0.2116-0.1198-0.4299-0.2433-0.6416-0.3631c-0.4111-0.2327-0.9021-0.2944-1.3538-0.1644
				c-0.4578,0.1265-0.8504,0.4272-1.0841,0.84c-0.2337,0.4129-0.2894,0.9043-0.1622,1.3619
				c0.1215,0.4536,0.4267,0.8434,0.8378,1.0761c0.2116,0.1198,0.4299,0.2433,0.6416,0.3631
				c0.4111,0.2327,0.9025,0.2937,1.3599,0.1679C59.2115,109.8621,59.5974,109.5576,59.8311,109.1448z"/>
			<path style="fill-rule:evenodd;clip-rule:evenodd;fill:#3E193F;" d="M41.5358,98.7896c0.2337-0.4129,0.2894-0.9043,0.1683-1.3584
				c-0.1272-0.4576-0.4328-0.8468-0.8439-1.0795c-0.2116-0.1198-0.4299-0.2433-0.6416-0.3631
				c-0.4111-0.2327-0.9021-0.2943-1.3599-0.1679c-0.4584,0.1261-0.8443,0.4306-1.078,0.8435
				c-0.2337,0.4129-0.2961,0.9005-0.1683,1.3584c0.1276,0.457,0.4328,0.8468,0.8439,1.0795
				c0.2116,0.1198,0.4299,0.2433,0.6416,0.3631c0.4111,0.2327,0.9025,0.2937,1.3599,0.1679
				C40.9095,99.5031,41.3021,99.2024,41.5358,98.7896z"/>
			<path style="fill-rule:evenodd;clip-rule:evenodd;fill:#3E193F;" d="M68.8085,121.741c0.2337-0.4129,0.2961-0.9005,0.1683-1.3584
				c-0.1272-0.4576-0.4328-0.8468-0.8439-1.0795c-0.2116-0.1198-0.4299-0.2433-0.6416-0.3631
				c-0.4111-0.2327-0.9021-0.2943-1.3599-0.1679c-0.4517,0.1299-0.8443,0.4306-1.078,0.8435
				c-0.2337,0.4129-0.2894,0.9043-0.1683,1.3584c0.1276,0.457,0.4328,0.8468,0.8439,1.0795
				c0.2116,0.1198,0.4299,0.2433,0.6416,0.3631c0.4111,0.2327,0.9025,0.2937,1.3599,0.1679
				C68.1889,122.4583,68.5748,122.1538,68.8085,121.741z"/>
			<path style="fill-rule:evenodd;clip-rule:evenodd;fill:#DFD4E1;" d="M50.5132,111.3858
				c0.2337-0.4129,0.2894-0.9042,0.1622-1.3619c-0.1211-0.4542-0.4267-0.8434-0.8378-1.0761
				c-0.2116-0.1198-0.4299-0.2433-0.6416-0.3631c-0.4111-0.2327-0.9021-0.2943-1.3599-0.1679
				c-0.4584,0.1262-0.8443,0.4306-1.078,0.8435c-0.2337,0.4129-0.2961,0.9005-0.1683,1.3584
				c0.1276,0.457,0.4328,0.8468,0.8439,1.0795c0.2116,0.1198,0.4299,0.2433,0.6416,0.3631
				c0.4111,0.2327,0.9025,0.2937,1.3538,0.1644C49.8869,112.0993,50.2795,111.7986,50.5132,111.3858z"/>
			<path style="fill-rule:evenodd;clip-rule:evenodd;fill:#3E193F;" d="M62.7121,118.2904c0.2337-0.4129,0.29-0.9039,0.1622-1.3619
				c-0.1272-0.4576-0.4267-0.8434-0.8378-1.0761c-0.2116-0.1198-0.4299-0.2433-0.6416-0.3631
				c-0.4172-0.2361-0.9021-0.2943-1.3596-0.1685c-0.4578,0.1265-0.844,0.43-1.0777,0.8429
				c-0.0004,0.0006-0.0007,0.0013-0.0014,0.0025c-0.2333,0.4122-0.2951,0.9002-0.1676,1.3572
				c0.1272,0.4576,0.4267,0.8434,0.8439,1.0795c0.2116,0.1198,0.4299,0.2433,0.6416,0.3631
				c0.4111,0.2327,0.8964,0.2903,1.3538,0.1644C62.0864,119.0043,62.4784,118.7032,62.7121,118.2904z"/>
			<path style="fill-rule:evenodd;clip-rule:evenodd;fill:#3E193F;" d="M44.4107,107.9317
				c0.2337-0.4129,0.2955-0.9008,0.1683-1.3584c-0.1272-0.4576-0.4328-0.8468-0.8439-1.0795
				c-0.2116-0.1198-0.4299-0.2433-0.6416-0.3631c-0.4111-0.2327-0.9021-0.2943-1.3535-0.165
				c-0.4584,0.1262-0.8501,0.4266-1.0838,0.8394c-0.0004,0.0006-0.0007,0.0012-0.0014,0.0025
				c-0.2333,0.4122-0.2896,0.9033-0.1615,1.3606c0.1211,0.4542,0.4267,0.8434,0.8378,1.0761
				c0.2116,0.1198,0.4299,0.2433,0.6416,0.3631c0.4111,0.2327,0.9025,0.2937,1.3599,0.1679
				C43.7905,108.6488,44.177,108.3446,44.4107,107.9317z"/>
			<path style="fill-rule:evenodd;clip-rule:evenodd;fill:#DFD4E1;" d="M56.6096,114.8364
				c0.2337-0.4129,0.2961-0.9005,0.1683-1.3584c-0.1272-0.4576-0.4328-0.8468-0.8439-1.0795
				c-0.2116-0.1198-0.4299-0.2433-0.6416-0.3631c-0.4111-0.2327-0.9021-0.2943-1.3538-0.1644
				c-0.4578,0.1265-0.8504,0.4272-1.0841,0.8401c-0.2337,0.4129-0.2894,0.9043-0.1622,1.3619
				c0.1215,0.4535,0.4267,0.8434,0.8378,1.0761c0.2116,0.1198,0.4299,0.2433,0.6416,0.3631
				c0.4111,0.2327,0.9025,0.2937,1.3599,0.1679C55.99,115.5537,56.3759,115.2492,56.6096,114.8364z"/>
			<path style="fill-rule:evenodd;clip-rule:evenodd;fill:#3E193F;" d="M38.3143,104.4812
				c0.2337-0.4129,0.2894-0.9042,0.1683-1.3584c-0.1272-0.4576-0.4328-0.8468-0.8439-1.0795
				c-0.2116-0.1198-0.4299-0.2433-0.6416-0.3631c-0.4111-0.2327-0.9021-0.2943-1.3599-0.1679
				c-0.4584,0.1262-0.8443,0.4306-1.078,0.8435c-0.2337,0.4129-0.2961,0.9005-0.1683,1.3584
				c0.1276,0.457,0.4328,0.8468,0.8439,1.0795c0.2116,0.1198,0.4299,0.2433,0.6416,0.3631
				c0.4111,0.2327,0.9025,0.2937,1.3599,0.1679C37.688,105.1947,38.0806,104.894,38.3143,104.4812z"/>
			<path style="fill-rule:evenodd;clip-rule:evenodd;fill:#3E193F;" d="M71.1861,47.8129c0.2806-0.4957,0.35-1.0837,0.1997-1.6309
				c-0.1506-0.5482-0.5124-1.0127-1.0104-1.2946c-0.7906-0.4475-1.7003-0.9624-2.4909-1.4098
				c-0.498-0.2819-1.0825-0.3529-1.63-0.1999c-0.5465,0.1527-1.0149,0.515-1.2955,1.0107c-0.2806,0.4957-0.35,1.0837-0.1996,1.6309
				c0.1506,0.5482,0.5124,1.0127,1.0104,1.2946c0.7906,0.4475,1.7003,0.9624,2.4909,1.4098c0.498,0.2819,1.0825,0.3529,1.63,0.1999
				C70.4372,48.6708,70.9056,48.3085,71.1861,47.8129z"/>
			<path style="fill-rule:evenodd;clip-rule:evenodd;fill:#3E193F;" d="M68.014,53.4173c0.2806-0.4957,0.35-1.0837,0.1997-1.6309
				c-0.1506-0.5482-0.5124-1.0127-1.0104-1.2946c-0.7906-0.4475-1.7003-0.9624-2.4909-1.4098
				c-0.4981-0.2819-1.0825-0.3529-1.63-0.1999c-0.5465,0.1527-1.0149,0.515-1.2955,1.0107c-0.2806,0.4957-0.35,1.0837-0.1996,1.6309
				c0.1506,0.5482,0.5124,1.0127,1.0104,1.2946c0.7906,0.4475,1.7003,0.9624,2.4909,1.4098c0.498,0.2819,1.0825,0.3529,1.63,0.1999
				C67.2651,54.2752,67.7334,53.913,68.014,53.4173z"/>
			<path style="fill-rule:evenodd;clip-rule:evenodd;fill:#3E193F;" d="M64.8419,59.0217c0.2806-0.4957,0.35-1.0837,0.1996-1.6309
				c-0.1506-0.5482-0.5124-1.0127-1.0104-1.2946c-0.7906-0.4475-1.7003-0.9624-2.4909-1.4098
				c-0.498-0.2819-1.0825-0.3529-1.63-0.1999c-0.5465,0.1527-1.0149,0.515-1.2955,1.0107
				c-0.0004,0.0006-0.0004,0.0006-0.0007,0.0012c-0.5837,1.0312-0.2223,2.3391,0.8115,2.9243
				c0.7845,0.444,1.7003,0.9624,2.4909,1.4098c0.4981,0.2819,1.0825,0.3529,1.63,0.1999
				C64.0929,59.8796,64.5613,59.5174,64.8419,59.0217z"/>
			<path style="fill-rule:evenodd;clip-rule:evenodd;fill:#3E193F;" d="M60.9648,65.8716c0.2806-0.4957,0.35-1.0837,0.1996-1.6309
				c-0.1506-0.5482-0.5124-1.0127-1.0104-1.2946c-0.7906-0.4475-1.7003-0.9624-2.4909-1.4098
				c-0.4981-0.2819-1.0825-0.3529-1.63-0.1999c-0.5465,0.1527-1.0149,0.515-1.2955,1.0107c-0.2806,0.4957-0.35,1.0837-0.1996,1.6309
				c0.1506,0.5482,0.5124,1.0127,1.0104,1.2946c0.7906,0.4475,1.7003,0.9624,2.4909,1.4098c0.498,0.2819,1.0825,0.3529,1.63,0.1999
				C60.2159,66.7295,60.6843,66.3672,60.9648,65.8716z"/>
			<path style="fill-rule:evenodd;clip-rule:evenodd;fill:#3E193F;" d="M57.7927,71.476c0.2806-0.4957,0.35-1.0837,0.1997-1.6309
				c-0.1506-0.5482-0.5124-1.0127-1.0104-1.2946c-0.7906-0.4475-1.7003-0.9624-2.4909-1.4098
				c-0.4981-0.2819-1.0825-0.3529-1.63-0.1999c-0.5465,0.1527-1.0149,0.515-1.2955,1.0107c-0.2806,0.4957-0.35,1.0837-0.1996,1.6309
				c0.1506,0.5482,0.5124,1.0127,1.0104,1.2946c0.7906,0.4475,1.7003,0.9624,2.4909,1.4098c0.4981,0.2819,1.0825,0.3529,1.63,0.1999
				C57.0438,72.3339,57.5121,71.9717,57.7927,71.476z"/>
			<path style="fill-rule:evenodd;clip-rule:evenodd;fill:#3E193F;" d="M54.6206,77.0804c0.2806-0.4957,0.35-1.0837,0.1996-1.6309
				c-0.1506-0.5482-0.5124-1.0127-1.0104-1.2946c-0.7906-0.4475-1.7003-0.9624-2.4909-1.4098
				c-0.4981-0.2819-1.0825-0.3529-1.63-0.1999c-0.5465,0.1527-1.0149,0.515-1.2955,1.0107c-0.2806,0.4957-0.35,1.0837-0.1997,1.6309
				c0.1506,0.5482,0.5124,1.0127,1.0104,1.2946c0.7906,0.4475,1.7003,0.9624,2.4909,1.4098c0.4981,0.2819,1.0825,0.3529,1.63,0.1999
				C53.8716,77.9383,54.34,77.5761,54.6206,77.0804z"/>
			<path style="fill-rule:evenodd;clip-rule:evenodd;fill:#3E193F;" d="M51.4484,82.6848c0.2806-0.4957,0.35-1.0837,0.1996-1.6309
				c-0.1506-0.5482-0.5124-1.0127-1.0104-1.2946c-0.7906-0.4475-1.7003-0.9624-2.4909-1.4098
				c-0.498-0.2819-1.0825-0.3529-1.63-0.1999c-0.5465,0.1527-1.0149,0.515-1.2955,1.0107c-0.2806,0.4957-0.35,1.0837-0.1996,1.6309
				c0.1506,0.5482,0.5124,1.0127,1.0104,1.2946c0.7906,0.4475,1.7003,0.9624,2.4909,1.4098c0.4981,0.2819,1.0825,0.3529,1.63,0.1999
				C50.6995,83.5428,51.1679,83.1805,51.4484,82.6848z"/>
			<path style="fill-rule:evenodd;clip-rule:evenodd;fill:#3E193F;" d="M48.2763,88.2893c0.2806-0.4957,0.35-1.0837,0.1996-1.6309
				c-0.1506-0.5482-0.5124-1.0127-1.0104-1.2946c-0.7906-0.4475-1.7003-0.9624-2.4909-1.4098
				c-0.4981-0.2819-1.0825-0.3529-1.63-0.1999c-0.5465,0.1527-1.0149,0.515-1.2955,1.0107
				c-0.0004,0.0006-0.0004,0.0006-0.0007,0.0012c-0.5837,1.0312-0.2223,2.3391,0.8115,2.9243
				c0.7845,0.444,1.7064,0.9658,2.4909,1.4098c1.0338,0.5851,2.3411,0.2217,2.9248-0.8095
				C48.276,88.2899,48.276,88.2899,48.2763,88.2893z"/>
			<path style="fill-rule:evenodd;clip-rule:evenodd;fill:#3E193F;" d="M102.3218,65.4358c0.2806-0.4957,0.35-1.0837,0.1997-1.6309
				c-0.1506-0.5482-0.5124-1.0127-1.0104-1.2946c-0.7906-0.4475-1.7003-0.9624-2.4909-1.4098
				c-0.498-0.2819-1.0825-0.3529-1.63-0.1999c-0.5465,0.1527-1.0149,0.515-1.2955,1.0107c-0.2806,0.4957-0.35,1.0837-0.1997,1.6309
				c0.1506,0.5482,0.5124,1.0127,1.0104,1.2946c0.7906,0.4475,1.7003,0.9624,2.4909,1.4098c0.498,0.2819,1.0825,0.3529,1.63,0.1999
				C101.5729,66.2937,102.0413,65.9315,102.3218,65.4358z"/>
			<path style="fill-rule:evenodd;clip-rule:evenodd;fill:#3E193F;" d="M99.1497,71.0402c0.2806-0.4957,0.35-1.0837,0.1997-1.6309
				c-0.1506-0.5482-0.5124-1.0127-1.0104-1.2946c-0.7906-0.4475-1.7003-0.9624-2.4909-1.4098
				c-0.498-0.2819-1.0825-0.3529-1.63-0.1999c-0.5465,0.1527-1.0149,0.515-1.2955,1.0107c-0.2806,0.4957-0.35,1.0837-0.1996,1.6309
				c0.1506,0.5482,0.5124,1.0127,1.0104,1.2946c0.7906,0.4475,1.7003,0.9624,2.4909,1.4098c0.498,0.2819,1.0825,0.3529,1.63,0.1999
				C98.4008,71.8981,98.8691,71.5359,99.1497,71.0402z"/>
			<path style="fill-rule:evenodd;clip-rule:evenodd;fill:#3E193F;" d="M95.9776,76.6446c0.2806-0.4957,0.35-1.0837,0.1997-1.6309
				c-0.1506-0.5482-0.5124-1.0127-1.0104-1.2946c-0.7906-0.4475-1.7003-0.9624-2.4909-1.4098
				c-0.4981-0.2819-1.0825-0.3529-1.63-0.1999c-0.5465,0.1527-1.0149,0.515-1.2955,1.0107c-0.2806,0.4957-0.35,1.0837-0.1996,1.6309
				c0.1506,0.5482,0.5124,1.0127,1.0104,1.2946c0.7906,0.4475,1.7003,0.9624,2.4909,1.4098c0.498,0.2819,1.0825,0.3529,1.63,0.1999
				C95.2286,77.5026,95.697,77.1403,95.9776,76.6446z"/>
			<path style="fill-rule:evenodd;clip-rule:evenodd;fill:#3E193F;" d="M92.1005,83.4945c0.2806-0.4957,0.35-1.0837,0.1997-1.6309
				c-0.1506-0.5482-0.5124-1.0127-1.0104-1.2946c-0.7906-0.4475-1.7003-0.9624-2.4909-1.4098
				c-0.4981-0.2819-1.0825-0.3529-1.63-0.1999c-0.5465,0.1527-1.0149,0.515-1.2955,1.0107c-0.2806,0.4957-0.35,1.0837-0.1996,1.6309
				c0.1506,0.5482,0.5124,1.0127,1.0104,1.2946c0.7906,0.4475,1.7003,0.9624,2.4909,1.4098c0.498,0.2819,1.0825,0.3529,1.63,0.1999
				C91.3516,84.3524,91.82,83.9902,92.1005,83.4945z"/>
			<path style="fill-rule:evenodd;clip-rule:evenodd;fill:#3E193F;" d="M88.9284,89.0989c0.2806-0.4957,0.35-1.0837,0.1996-1.6309
				c-0.1506-0.5482-0.5124-1.0127-1.0104-1.2946c-0.7906-0.4475-1.7003-0.9624-2.4909-1.4098
				c-0.4981-0.2819-1.0825-0.3529-1.63-0.1999c-0.5465,0.1527-1.0149,0.515-1.2955,1.0107c-0.2806,0.4957-0.35,1.0837-0.1996,1.6309
				c0.1506,0.5482,0.5124,1.0127,1.0104,1.2946c0.7906,0.4475,1.7003,0.9624,2.4909,1.4098c0.4981,0.2819,1.0825,0.3529,1.63,0.1999
				C88.1795,89.9568,88.6478,89.5946,88.9284,89.0989z"/>
			<path style="fill-rule:evenodd;clip-rule:evenodd;fill:#3E193F;" d="M85.7563,94.7033c0.2806-0.4957,0.35-1.0837,0.1996-1.6309
				c-0.1506-0.5482-0.5124-1.0127-1.0104-1.2946c-0.7906-0.4475-1.7003-0.9624-2.4909-1.4098
				c-0.498-0.2819-1.0825-0.3529-1.63-0.1999c-0.5465,0.1527-1.0149,0.515-1.2955,1.0107s-0.35,1.0837-0.1997,1.6309
				c0.1506,0.5482,0.5124,1.0127,1.0104,1.2946c0.7906,0.4475,1.7003,0.9624,2.4909,1.4098c0.4981,0.2819,1.0825,0.3529,1.63,0.1999
				C85.0073,95.5613,85.4757,95.199,85.7563,94.7033z"/>
			<path style="fill-rule:evenodd;clip-rule:evenodd;fill:#3E193F;" d="M82.5842,100.3078c0.2806-0.4957,0.35-1.0837,0.1996-1.6309
				c-0.1506-0.5482-0.5124-1.0127-1.0104-1.2946c-0.7906-0.4475-1.7003-0.9624-2.4909-1.4098
				c-0.498-0.2819-1.0825-0.3529-1.63-0.1999c-0.5465,0.1527-1.0149,0.515-1.2955,1.0107c-0.2806,0.4957-0.35,1.0837-0.1997,1.6309
				c0.1506,0.5482,0.5124,1.0127,1.0104,1.2946c0.7906,0.4475,1.7003,0.9624,2.4909,1.4098c0.498,0.2819,1.0825,0.3529,1.63,0.1999
				C81.8352,101.1657,82.3036,100.8035,82.5842,100.3078z"/>
			<path style="fill-rule:evenodd;clip-rule:evenodd;fill:#3E193F;" d="M79.412,105.9122c0.2806-0.4957,0.35-1.0837,0.1996-1.6309
				c-0.1506-0.5482-0.5124-1.0127-1.0104-1.2946c-0.7906-0.4475-1.7003-0.9624-2.4909-1.4098
				c-0.498-0.2819-1.0825-0.3529-1.63-0.1999c-0.5465,0.1527-1.0149,0.515-1.2955,1.0107c-0.2806,0.4957-0.35,1.0837-0.1997,1.6309
				c0.1506,0.5482,0.5124,1.0127,1.0104,1.2946c0.7906,0.4475,1.7003,0.9624,2.4909,1.4098c0.498,0.2819,1.0825,0.3529,1.63,0.1999
				C78.6631,106.7701,79.1315,106.4079,79.412,105.9122z"/>
			<path style="fill-rule:evenodd;clip-rule:evenodd;fill:#3E193F;" d="M84.628,79.265c0.2806-0.4957,0.35-1.0837,0.1997-1.6309
				c-0.1506-0.5482-0.5124-1.0127-1.0104-1.2946c-0.7906-0.4475-1.7003-0.9624-2.4909-1.4098
				c-0.498-0.2819-1.0825-0.3529-1.63-0.1999c-0.5465,0.1527-1.0149,0.515-1.2955,1.0107c-0.2806,0.4957-0.35,1.0837-0.1997,1.6309
				c0.1506,0.5482,0.5124,1.0127,1.0104,1.2946c0.7906,0.4475,1.7003,0.9624,2.4909,1.4098c0.498,0.2819,1.0825,0.3529,1.63,0.1999
				C83.879,80.1229,84.3474,79.7607,84.628,79.265z"/>
			<path style="fill-rule:evenodd;clip-rule:evenodd;fill:#DFD4E1;" d="M81.4558,84.8694c0.2806-0.4957,0.35-1.0837,0.1997-1.6309
				c-0.1506-0.5482-0.5124-1.0127-1.0104-1.2946c-0.7906-0.4475-1.7003-0.9624-2.4909-1.4098
				c-0.498-0.2819-1.0825-0.3529-1.63-0.1999c-0.5465,0.1527-1.0149,0.515-1.2955,1.0107c-0.2806,0.4957-0.35,1.0837-0.1996,1.6309
				c0.1506,0.5482,0.5124,1.0127,1.0104,1.2946c0.7906,0.4475,1.7003,0.9624,2.4909,1.4098c0.498,0.2819,1.0825,0.3529,1.63,0.1999
				C80.7069,85.7273,81.1753,85.3651,81.4558,84.8694z"/>
			<path style="fill-rule:evenodd;clip-rule:evenodd;fill:#DFD4E1;" d="M78.2837,90.4738c0.2806-0.4957,0.35-1.0837,0.1997-1.6309
				c-0.1506-0.5482-0.5124-1.0127-1.0104-1.2946c-0.7906-0.4475-1.7003-0.9624-2.4909-1.4098
				c-0.498-0.2819-1.0825-0.3529-1.63-0.1999c-0.5465,0.1527-1.0149,0.515-1.2955,1.0107c-0.2806,0.4957-0.35,1.0837-0.1996,1.6309
				c0.1506,0.5482,0.5124,1.0127,1.0104,1.2946c0.7906,0.4475,1.7003,0.9624,2.4909,1.4098c0.498,0.2819,1.0825,0.3529,1.63,0.1999
				C77.5348,91.3318,78.0032,90.9695,78.2837,90.4738z"/>
			<path style="fill-rule:evenodd;clip-rule:evenodd;fill:#DFD4E1;" d="M75.1116,96.0783c0.2806-0.4957,0.35-1.0837,0.1997-1.6309
				c-0.1506-0.5482-0.5124-1.0127-1.0104-1.2946c-0.7906-0.4475-1.7003-0.9624-2.4909-1.4098
				c-0.4981-0.2819-1.0825-0.3529-1.63-0.1999c-0.5465,0.1527-1.0149,0.515-1.2955,1.0107c-0.2806,0.4957-0.35,1.0837-0.1996,1.6309
				c0.1506,0.5482,0.5124,1.0127,1.0104,1.2946c0.7906,0.4475,1.7003,0.9624,2.4909,1.4098c0.498,0.2819,1.0825,0.3529,1.63,0.1999
				C74.3626,96.9362,74.831,96.574,75.1116,96.0783z"/>
			<path style="fill-rule:evenodd;clip-rule:evenodd;fill:#DFD4E1;" d="M71.9395,101.6827c0.2806-0.4957,0.35-1.0837,0.1996-1.6309
				c-0.1506-0.5482-0.5124-1.0127-1.0104-1.2946c-0.7906-0.4475-1.7003-0.9624-2.4909-1.4098
				c-0.4981-0.2819-1.0825-0.3529-1.63-0.1999c-0.5465,0.1527-1.0149,0.515-1.2955,1.0107c-0.2806,0.4957-0.35,1.0837-0.1996,1.6309
				c0.1506,0.5482,0.5124,1.0127,1.0104,1.2946c0.7906,0.4475,1.7003,0.9624,2.4909,1.4098c0.4981,0.2819,1.0825,0.3529,1.63,0.1999
				C71.1905,102.5406,71.6589,102.1784,71.9395,101.6827z"/>
			<path style="fill-rule:evenodd;clip-rule:evenodd;fill:#3E193F;" d="M68.9415,70.3864c0.2806-0.4957,0.3567-1.0799,0.2063-1.6271
				c-0.1567-0.5516-0.5184-1.0162-1.0171-1.2984c-0.7845-0.444-1.6997-0.962-2.4909-1.4098
				c-0.492-0.2785-1.0765-0.3495-1.6294-0.1995c-0.5471,0.1524-1.0155,0.5146-1.2961,1.0103
				c-0.2806,0.4957-0.35,1.0837-0.199,1.6312c0.1561,0.5513,0.5178,1.0158,1.0098,1.2943c0.7912,0.4478,1.7064,0.9658,2.4909,1.4098
				c0.4987,0.2822,1.0832,0.3533,1.6367,0.2037C68.1993,71.2481,68.661,70.8821,68.9415,70.3864z"/>
			<path style="fill-rule:evenodd;clip-rule:evenodd;fill:#DFD4E1;" d="M65.7694,75.9908c0.2806-0.4957,0.3567-1.0799,0.2063-1.6271
				c-0.1567-0.5516-0.5184-1.0162-1.0171-1.2984c-0.7845-0.444-1.6997-0.962-2.4909-1.4098
				c-0.492-0.2785-1.0765-0.3495-1.6294-0.1995c-0.5471,0.1524-1.0155,0.5146-1.2961,1.0103s-0.35,1.0837-0.199,1.6312
				c0.1561,0.5513,0.5178,1.0158,1.0098,1.2943c0.7912,0.4478,1.7064,0.9658,2.4909,1.4098
				c0.4987,0.2822,1.0831,0.3533,1.6367,0.2037C65.0271,76.8525,65.4888,76.4865,65.7694,75.9908z"/>
			<path style="fill-rule:evenodd;clip-rule:evenodd;fill:#DFD4E1;" d="M62.5973,81.5953c0.2806-0.4957,0.3567-1.0799,0.2063-1.6271
				c-0.1567-0.5516-0.5184-1.0162-1.0171-1.2984c-0.7845-0.444-1.6997-0.962-2.4909-1.4098
				c-0.492-0.2785-1.0765-0.3495-1.6294-0.1995c-0.5471,0.1524-1.0155,0.5146-1.2961,1.0103
				c-0.2806,0.4957-0.35,1.0837-0.199,1.6312c0.1561,0.5513,0.5178,1.0158,1.0098,1.2943c0.7912,0.4478,1.7064,0.9658,2.4909,1.4098
				c0.4987,0.2822,1.0831,0.3533,1.6367,0.2037C61.855,82.457,62.3167,82.0909,62.5973,81.5953z"/>
			<path style="fill-rule:evenodd;clip-rule:evenodd;fill:#DFD4E1;" d="M59.4251,87.1997c0.2806-0.4957,0.3567-1.0799,0.2063-1.6271
				c-0.1567-0.5516-0.5184-1.0162-1.0171-1.2984c-0.7845-0.444-1.6997-0.962-2.4909-1.4098
				c-0.492-0.2785-1.0765-0.3495-1.6294-0.1995c-0.5471,0.1524-1.0155,0.5146-1.2961,1.0103
				c-0.2806,0.4957-0.35,1.0837-0.199,1.6312c0.1561,0.5513,0.5178,1.0158,1.0098,1.2943c0.7912,0.4478,1.7064,0.9658,2.4909,1.4098
				c0.4987,0.2822,1.0831,0.3533,1.6367,0.2037C58.6829,88.0614,59.1446,87.6954,59.4251,87.1997z"/>
			<path style="fill-rule:evenodd;clip-rule:evenodd;fill:#DFD4E1;" d="M56.253,92.8041c0.2806-0.4957,0.3567-1.0799,0.2063-1.6271
				c-0.1567-0.5516-0.5184-1.0162-1.0171-1.2984c-0.7845-0.444-1.6997-0.962-2.4909-1.4098
				c-0.492-0.2785-1.0765-0.3495-1.6294-0.1995c-0.5471,0.1524-1.0155,0.5146-1.2961,1.0103
				c-0.2806,0.4957-0.35,1.0837-0.199,1.6312c0.1561,0.5513,0.5178,1.0158,1.0098,1.2943c0.7912,0.4478,1.7064,0.9658,2.4909,1.4098
				c0.4987,0.2822,1.0831,0.3532,1.6367,0.2037C55.5108,93.6658,55.9725,93.2998,56.253,92.8041z"/>
			<path style="fill-rule:evenodd;clip-rule:evenodd;fill:#DFD4E1;" d="M73.3605,80.2875c0.2806-0.4957,0.35-1.0837,0.1997-1.6309
				c-0.1506-0.5482-0.5124-1.0127-1.0104-1.2946c-0.7906-0.4475-1.7003-0.9624-2.4909-1.4098
				c-0.498-0.2819-1.0825-0.3529-1.63-0.1999c-0.5465,0.1527-1.0149,0.515-1.2955,1.0107c-0.2806,0.4957-0.35,1.0837-0.1996,1.6309
				c0.1506,0.5482,0.5124,1.0127,1.0104,1.2946c0.7906,0.4475,1.7003,0.9624,2.4909,1.4098c0.498,0.2819,1.0825,0.3529,1.63,0.1999
				C72.6116,81.1454,73.08,80.7831,73.3605,80.2875z"/>
			<path style="fill-rule:evenodd;clip-rule:evenodd;fill:#DFD4E1;" d="M70.1884,85.8919c0.2806-0.4957,0.35-1.0837,0.1997-1.6309
				c-0.1506-0.5482-0.5124-1.0127-1.0104-1.2946c-0.7906-0.4475-1.7003-0.9624-2.4909-1.4098
				c-0.498-0.2819-1.0825-0.3529-1.63-0.1999c-0.5465,0.1527-1.0149,0.515-1.2955,1.0107c-0.2806,0.4957-0.35,1.0837-0.1996,1.6309
				c0.1506,0.5482,0.5124,1.0127,1.0104,1.2946c0.7906,0.4475,1.7003,0.9624,2.4909,1.4098c0.498,0.2819,1.0825,0.3529,1.63,0.1999
				C69.4395,86.7498,69.9079,86.3876,70.1884,85.8919z"/>
			<path style="fill-rule:evenodd;clip-rule:evenodd;fill:#DFD4E1;" d="M67.0163,91.4963c0.2806-0.4957,0.35-1.0837,0.1997-1.6309
				c-0.1506-0.5482-0.5124-1.0127-1.0104-1.2946c-0.7906-0.4475-1.7003-0.9624-2.4909-1.4098
				c-0.4981-0.2819-1.0825-0.3529-1.63-0.1999c-0.5465,0.1527-1.0149,0.515-1.2955,1.0107c-0.2806,0.4957-0.35,1.0837-0.1996,1.6309
				c0.1506,0.5482,0.5124,1.0127,1.0104,1.2946c0.7906,0.4475,1.7003,0.9624,2.4909,1.4098c0.498,0.2819,1.0825,0.3529,1.63,0.1999
				C66.2673,92.3542,66.7357,91.992,67.0163,91.4963z"/>
			<path style="fill-rule:evenodd;clip-rule:evenodd;fill:#DFD4E1;" d="M63.8442,97.1007c0.2806-0.4957,0.35-1.0837,0.1996-1.6309
				c-0.1506-0.5482-0.5124-1.0127-1.0104-1.2946c-0.7906-0.4475-1.7003-0.9624-2.4909-1.4098
				c-0.498-0.2819-1.0825-0.3529-1.63-0.1999c-0.5465,0.1527-1.0149,0.515-1.2955,1.0107c-0.2806,0.4957-0.35,1.0837-0.1996,1.6309
				c0.1506,0.5482,0.5124,1.0127,1.0104,1.2946c0.7906,0.4475,1.7003,0.9624,2.4909,1.4098c0.4981,0.2819,1.0825,0.3529,1.63,0.1999
				C63.0952,97.9587,63.5636,97.5964,63.8442,97.1007z"/>
			<path style="fill-rule:evenodd;clip-rule:evenodd;fill:#A4F3FF;" d="M118.2418,34.4035c0.6418-1.134,0.2405-2.5755-0.8924-3.2168
				c-6.184-3.5001-24.5784-13.9114-30.7623-17.4116c-1.1329-0.6412-2.5754-0.2433-3.2172,0.8907
				c-2.6516,4.6847-9.122,16.1165-11.7735,20.8011c-0.6418,1.134-0.2405,2.5755,0.8924,3.2168
				c6.184,3.5001,24.5784,13.9114,30.7623,17.4116c1.1329,0.6412,2.5754,0.2433,3.2172-0.8907
				C109.1199,50.5199,115.5903,39.0881,118.2418,34.4035z"/>
			<g>
				<defs>
					<path id="SVGID_00000047738760371677087600000014811906378504106150_" d="M118.2418,34.4035
						c0.6418-1.134,0.2405-2.5755-0.8924-3.2168c-6.184-3.5001-24.5784-13.9114-30.7623-17.4116
						c-1.1329-0.6412-2.5754-0.2433-3.2172,0.8907c-2.6516,4.6847-9.122,16.1165-11.7735,20.8011
						c-0.6418,1.134-0.2405,2.5755,0.8924,3.2168c6.184,3.5001,24.5784,13.9114,30.7623,17.4116
						c1.1329,0.6412,2.5754,0.2433,3.2172-0.8907C109.1199,50.5199,115.5903,39.0881,118.2418,34.4035z"/>
				</defs>
				<clipPath id="SVGID_00000139257430889208675350000000161091651765660300_">
					<use xlink:href="#SVGID_00000047738760371677087600000014811906378504106150_"  style="overflow:visible;"/>
				</clipPath>
				
					<path style="clip-path:url(#SVGID_00000139257430889208675350000000161091651765660300_);fill-rule:evenodd;clip-rule:evenodd;fill:#379CB3;" d="
					M122.5304,33.3635L80.2667,9.4421l-15.738,27.8054l6.3921,3.7709c0,0,9.7698-17.261,13.2299-23.3742
					c0.3172-0.5604,0.8461-0.9715,1.4629-1.1461c0.6225-0.1706,1.2844-0.0903,1.8512,0.2305
					c7.6842,4.3493,33.6886,19.0679,33.6886,19.0679L122.5304,33.3635z"/>
				
					<line style="clip-path:url(#SVGID_00000139257430889208675350000000161091651765660300_);fill:none;stroke:#3E193F;stroke-width:2.1466;stroke-linecap:round;stroke-linejoin:round;stroke-miterlimit:10;" x1="75.3855" y1="25.1124" x2="113.3832" y2="46.6192"/>
				
					<line style="clip-path:url(#SVGID_00000139257430889208675350000000161091651765660300_);fill:none;stroke:#3E193F;stroke-width:2.1466;stroke-linecap:round;stroke-linejoin:round;stroke-miterlimit:10;" x1="103.0007" y1="21.3831" x2="86.2135" y2="51.0423"/>
				
					<line style="clip-path:url(#SVGID_00000139257430889208675350000000161091651765660300_);fill:none;stroke:#3E193F;stroke-width:2.1466;stroke-linecap:round;stroke-linejoin:round;stroke-miterlimit:10;" x1="88.1925" y1="30.1141" x2="87.4054" y2="31.5046"/>
				
					<line style="clip-path:url(#SVGID_00000139257430889208675350000000161091651765660300_);fill:none;stroke:#3E193F;stroke-width:2.1466;stroke-linecap:round;stroke-linejoin:round;stroke-miterlimit:10;" x1="109.2826" y1="42.2428" x2="108.4956" y2="43.6333"/>
				
					<line style="clip-path:url(#SVGID_00000139257430889208675350000000161091651765660300_);fill:none;stroke:#3E193F;stroke-width:2.1466;stroke-linecap:round;stroke-linejoin:round;stroke-miterlimit:10;" x1="81.3426" y1="26.237" x2="80.5556" y2="27.6276"/>
				
					<line style="clip-path:url(#SVGID_00000139257430889208675350000000161091651765660300_);fill:none;stroke:#3E193F;stroke-width:2.1466;stroke-linecap:round;stroke-linejoin:round;stroke-miterlimit:10;" x1="101.81" y1="38.0133" x2="101.023" y2="39.4038"/>
				
					<line style="clip-path:url(#SVGID_00000139257430889208675350000000161091651765660300_);fill:none;stroke:#3E193F;stroke-width:2.1466;stroke-linecap:round;stroke-linejoin:round;stroke-miterlimit:10;" x1="99.4307" y1="31.3222" x2="98.0417" y2="30.536"/>
				
					<line style="clip-path:url(#SVGID_00000139257430889208675350000000161091651765660300_);fill:none;stroke:#3E193F;stroke-width:2.1466;stroke-linecap:round;stroke-linejoin:round;stroke-miterlimit:10;" x1="90.1325" y1="46.5299" x2="88.7436" y2="45.7438"/>
				
					<line style="clip-path:url(#SVGID_00000139257430889208675350000000161091651765660300_);fill:none;stroke:#3E193F;stroke-width:2.1466;stroke-linecap:round;stroke-linejoin:round;stroke-miterlimit:10;" x1="102.3251" y1="26.3828" x2="100.9301" y2="25.5932"/>
				
					<path style="clip-path:url(#SVGID_00000139257430889208675350000000161091651765660300_);fill:none;stroke:#B32A06;stroke-width:2.1466;stroke-linecap:round;stroke-linejoin:round;stroke-miterlimit:10;" d="
					M76.0667,24.8961c0,0,3.3818-1.8056,7.0965-3.7935c1.9594-1.0501,4.3361-0.9637,6.2148,0.2197
					c1.8797,1.1831,2.9826,3.2874,2.8848,5.5087c-0.1565,3.5875-0.3333,7.5755-0.4948,11.1577
					c-0.0968,2.2194,1.0005,4.3196,2.8781,5.5049c1.8783,1.1856,4.2522,1.277,6.2081,0.2316
					c8.6323-4.5876,19.9819-10.6226,19.9819-10.6226"/>
			</g>
		</g>
	</g>
</g>
</svg>
