<?xml version="1.0" encoding="utf-8"?>
<!-- Generator: Adobe Illustrator 27.7.0, SVG Export Plug-In . SVG Version: 6.00 Build 0)  -->
<svg version="1.1" id="Layer_1" xmlns="http://www.w3.org/2000/svg" xmlns:xlink="http://www.w3.org/1999/xlink" x="0px" y="0px"
	 width="150px" height="150px" viewBox="0 0 150 150" style="enable-background:new 0 0 150 150;" xml:space="preserve">
<g>
	<g>
		<g>
			<g>
				<circle style="fill:#DCE7F7;" cx="75" cy="75" r="50"/>
				<circle style="fill:#A3BBD8;" cx="75" cy="74.9998" r="34"/>
			</g>
		</g>
		<g>
			<g>
				<g>
					<defs>
						<circle id="SVGID_1_" cx="75" cy="75" r="50"/>
					</defs>
					<clipPath id="SVGID_00000162330660328755553350000006738596538661696440_">
						<use xlink:href="#SVGID_1_"  style="overflow:visible;"/>
					</clipPath>
					
						<rect x="24.7557" y="25" style="opacity:0.4;clip-path:url(#SVGID_00000162330660328755553350000006738596538661696440_);fill:#7C92B5;enable-background:new    ;" width="50" height="100"/>
				</g>
			</g>
		</g>
	</g>
	<g>
		<g>
			<g>
				<defs>
					
						<rect id="SVGID_00000070829407910919931100000017424314207172017053_" x="92.5034" y="81.2859" width="19.5273" height="19.5273"/>
				</defs>
				<clipPath id="SVGID_00000163785841007573182340000017765204232392795544_">
					<use xlink:href="#SVGID_00000070829407910919931100000017424314207172017053_"  style="overflow:visible;"/>
				</clipPath>
				
					<circle style="clip-path:url(#SVGID_00000163785841007573182340000017765204232392795544_);fill-rule:evenodd;clip-rule:evenodd;fill:#04D1AB;" cx="102.267" cy="91.0496" r="9.7636"/>
			</g>
		</g>
		<g>
			<g>
				<g>
					<g>
						<g>
							<defs>
								<circle id="SVGID_00000179603965782155626650000001323305188106192785_" cx="102.267" cy="91.0496" r="9.7636"/>
							</defs>
							<clipPath id="SVGID_00000166633842048872516150000014046453297219047839_">
								<use xlink:href="#SVGID_00000179603965782155626650000001323305188106192785_"  style="overflow:visible;"/>
							</clipPath>
							
								<polygon style="opacity:0.2426;clip-path:url(#SVGID_00000166633842048872516150000014046453297219047839_);fill-rule:evenodd;clip-rule:evenodd;fill:#00846B;enable-background:new    ;" points="
								112.0307,100.8132 92.5034,81.2859 92.5034,100.8132 							"/>
						</g>
					</g>
					<g>
						<g>
							<defs>
								<circle id="SVGID_00000028306818036909901740000003577744899943087539_" cx="102.267" cy="91.0496" r="9.7636"/>
							</defs>
							<clipPath id="SVGID_00000167381938916507850500000015847135253825850519_">
								<use xlink:href="#SVGID_00000028306818036909901740000003577744899943087539_"  style="overflow:visible;"/>
							</clipPath>
							
								<circle style="clip-path:url(#SVGID_00000167381938916507850500000015847135253825850519_);fill-rule:evenodd;clip-rule:evenodd;fill:#00A585;" cx="109.847" cy="84.8996" r="4.2697"/>
						</g>
					</g>
					<g>
						<g>
							<defs>
								<circle id="SVGID_00000094592848418677263320000005989258097892165782_" cx="102.267" cy="91.0496" r="9.7636"/>
							</defs>
							<clipPath id="SVGID_00000049219817254152404450000015235999354517872034_">
								<use xlink:href="#SVGID_00000094592848418677263320000005989258097892165782_"  style="overflow:visible;"/>
							</clipPath>
							
								<circle style="clip-path:url(#SVGID_00000049219817254152404450000015235999354517872034_);fill-rule:evenodd;clip-rule:evenodd;fill:#00A585;" cx="99.7746" cy="87.8046" r="2.05"/>
						</g>
					</g>
					<g>
						<g>
							<defs>
								<circle id="SVGID_00000167357356742956381830000006088992809883132333_" cx="102.267" cy="91.0496" r="9.7636"/>
							</defs>
							<clipPath id="SVGID_00000121967768976080484830000000113861904551923635_">
								<use xlink:href="#SVGID_00000167357356742956381830000006088992809883132333_"  style="overflow:visible;"/>
							</clipPath>
							
								<circle style="clip-path:url(#SVGID_00000121967768976080484830000000113861904551923635_);fill-rule:evenodd;clip-rule:evenodd;fill:#00A585;" cx="97.3312" cy="94.1032" r="1.5267"/>
						</g>
					</g>
					<g>
						<g>
							<defs>
								<circle id="SVGID_00000154411886769628345310000000278313123687603376_" cx="102.267" cy="91.0496" r="9.7636"/>
							</defs>
							<clipPath id="SVGID_00000145017796833191003700000002755228751101138050_">
								<use xlink:href="#SVGID_00000154411886769628345310000000278313123687603376_"  style="overflow:visible;"/>
							</clipPath>
							
								<circle style="clip-path:url(#SVGID_00000145017796833191003700000002755228751101138050_);fill-rule:evenodd;clip-rule:evenodd;fill:#00A585;" cx="103.847" cy="99.4788" r="2.7822"/>
						</g>
					</g>
				</g>
			</g>
		</g>
	</g>
	<g>
		<g>
			<path style="fill:#FFD4A5;" d="M64.8715,41.2632C31.3322,54.57,6.8458,72.1688,10.1795,80.5712
				c3.3338,8.4026,33.2252,4.4269,66.7645-8.8798s58.0257-30.9056,54.6919-39.3082
				C128.3022,23.9808,98.4107,27.9565,64.8715,41.2632z M74.8973,66.533c-22.1681,8.7952-41.9248,11.423-44.1283,5.8693
				s13.9809-17.1857,36.149-25.9809c22.1679-8.7951,41.9248-11.423,44.1283-5.8693S97.0652,57.7379,74.8973,66.533z"/>
			
				<ellipse transform="matrix(0.9295 -0.3688 0.3688 0.9295 -15.9271 30.1935)" style="fill:none;stroke:#FAAB5F;stroke-width:2.0235;stroke-miterlimit:9.9998;" cx="71.0199" cy="56.7607" rx="51.8158" ry="13.2884"/>
		</g>
		<g>
			<path style="fill:#FAE3B2;" d="M49.5885,51.2355l45.8556-18.1942c-0.6888-0.8565-1.4179-1.6786-2.1876-2.4616l-47.686,18.9205
				L49.5885,51.2355z"/>
			<path style="fill:#FAE3B2;" d="M69.7857,20.7335c-15.0237,0-27.6872,10.0691-31.6338,23.8241l48.4294-19.2155
				C81.6636,22.418,75.9224,20.7335,69.7857,20.7335z"/>
			<path style="fill:#FAE3B2;" d="M75.8622,62.5829l26.7961-10.6319c-0.1351-2.6565-0.5921-5.2268-1.3204-7.6804L65.9617,58.307
				L75.8622,62.5829z"/>
			<path style="fill:#FAE3B2;" d="M97.2338,71.8132c1.6399-2.4731,2.9531-5.1801,3.8815-8.061l-11.7507,4.6624L97.2338,71.8132z"/>
			<path style="fill:#FABE7A;" d="M45.5705,49.5002l47.686-18.9205c-1.9847-2.019-4.2272-3.7819-6.6752-5.2375L38.1519,44.5576
				c-0.148,0.516-0.2836,1.0368-0.4067,1.5628L45.5705,49.5002z"/>
			<path style="fill:#FABE7A;" d="M65.9617,58.307l35.3763-14.0364c-1.23-4.1439-3.2523-7.9447-5.8939-11.2294L49.5885,51.2355
				L65.9617,58.307z"/>
			<path style="fill:#FABE7A;" d="M89.3646,68.4145l11.7507-4.6624c1.0261-3.1841,1.5863-6.5774,1.5863-10.1028
				c0-0.5696-0.0146-1.1359-0.0432-1.6984L75.8622,62.5829L89.3646,68.4145z"/>
			<path style="fill:#FAE3B2;" d="M53.9063,82.4834c4.7091,2.5989,10.1203,4.0818,15.8794,4.0818
				c11.4639,0,21.5543-5.8636,27.4481-14.7521l-7.8692-3.3987L53.9063,82.4834z"/>
			<path style="opacity:0.4;fill:#DD9954;enable-background:new    ;" d="M53.9063,82.4834
				c4.7091,2.5989,10.1203,4.0818,15.8794,4.0818c11.4639,0,21.5543-5.8636,27.4481-14.7521l-7.8692-3.3987L53.9063,82.4834z"/>
			<path style="fill:#FAE3B2;" d="M65.9617,58.307L40.389,68.4535c1.1802,2.3387,2.6292,4.5168,4.3097,6.4943l31.1635-12.3649
				L65.9617,58.307z"/>
			<path style="opacity:0.4;fill:#DD9954;enable-background:new    ;" d="M65.9617,58.307L40.389,68.4535
				c1.1802,2.3387,2.6292,4.5168,4.3097,6.4943l31.1635-12.3649L65.9617,58.307z"/>
			<path style="fill:#FAE3B2;" d="M45.5705,49.5002l-8.6829,3.4451c-0.0049,0.2349-0.0178,0.468-0.0178,0.7041
				c0,0.8721,0.0443,1.7335,0.1108,2.5885l12.6078-5.0024L45.5705,49.5002z"/>
			<path style="opacity:0.4;fill:#DD9954;enable-background:new    ;" d="M45.5705,49.5002l-8.6829,3.4451
				c-0.0049,0.2349-0.0178,0.468-0.0178,0.7041c0,0.8721,0.0443,1.7335,0.1108,2.5885l12.6078-5.0024L45.5705,49.5002z"/>
			<path style="fill:#FABE7A;" d="M37.7452,46.1204c-0.5148,2.1987-0.8082,4.4811-0.8575,6.8249l8.6829-3.4451L37.7452,46.1204z"/>
			<path style="opacity:0.4;fill:#DD9954;enable-background:new    ;" d="M37.7452,46.1204
				c-0.5148,2.1987-0.8082,4.4811-0.8575,6.8249l8.6829-3.4451L37.7452,46.1204z"/>
			<path style="fill:#FABE7A;" d="M49.5885,51.2355l-12.6078,5.0024c0.3401,4.3671,1.53,8.4931,3.4084,12.2156L65.9617,58.307
				L49.5885,51.2355z"/>
			<path style="opacity:0.4;fill:#DD9954;enable-background:new    ;" d="M49.5885,51.2355l-12.6078,5.0024
				c0.3401,4.3671,1.53,8.4931,3.4084,12.2156L65.9617,58.307L49.5885,51.2355z"/>
			<path style="fill:#FABE7A;" d="M75.8622,62.5829L44.6987,74.9478c2.5792,3.035,5.6957,5.5974,9.2076,7.5356l35.4583-14.0689
				L75.8622,62.5829z"/>
			<path style="opacity:0.4;fill:#DD9954;enable-background:new    ;" d="M75.8622,62.5829L44.6987,74.9478
				c2.5792,3.035,5.6957,5.5974,9.2076,7.5356l35.4583-14.0689L75.8622,62.5829z"/>
		</g>
		<g>
			<g>
				<g>
					<defs>
						<path id="SVGID_00000009562970696051428230000009839099261881594524_" d="M100.3815,41.5105
							c6.7041,16.8976-1.5593,36.0306-18.4568,42.7347C65.0271,90.9493,45.8941,82.6859,39.19,65.7884
							C59.3271,66.5731,79.2292,58.4306,100.3815,41.5105z"/>
					</defs>
					<clipPath id="SVGID_00000169531245182823638270000015460417837632113063_">
						<use xlink:href="#SVGID_00000009562970696051428230000009839099261881594524_"  style="overflow:visible;"/>
					</clipPath>
					<g style="clip-path:url(#SVGID_00000169531245182823638270000015460417837632113063_);">
						<path style="opacity:0.65;fill:#E09E5C;enable-background:new    ;" d="M77.8534,73.9836
							c-30.3082,12.0249-64.0536,18.4247-68.0631,8.319c-4.0091-10.1048,24.945-28.5811,55.2531-40.6059
							s64.0531-18.4245,68.0622-8.3197C137.1152,43.4827,108.1615,61.9588,77.8534,73.9836z M67.8274,48.7134
							c-23.1067,9.1676-37.301,20.3664-35.5885,24.6827c1.7125,4.3163,19.7235,2.7375,42.8302-6.4301
							c23.1062-9.1674,37.3005-20.3663,35.588-24.6825C108.9446,37.9672,90.9336,39.5459,67.8274,48.7134z"/>
						<path style="fill:#FFD4A5;" d="M64.8715,41.2632C31.3322,54.57,6.8458,72.1688,10.1795,80.5712
							c3.3338,8.4026,33.2252,4.4269,66.7645-8.8798s58.0257-30.9056,54.6919-39.3082
							C128.3022,23.9808,98.4107,27.9565,64.8715,41.2632z M74.8973,66.533c-22.1681,8.7952-41.9248,11.423-44.1283,5.8693
							s13.9809-17.1857,36.149-25.9809c22.1679-8.7951,41.9248-11.423,44.1283-5.8693S97.0652,57.7379,74.8973,66.533z"/>
						
							<ellipse transform="matrix(0.9295 -0.3688 0.3688 0.9295 -15.9271 30.1935)" style="fill:none;stroke:#FAAB5F;stroke-width:2.0235;stroke-miterlimit:9.9998;" cx="71.0199" cy="56.7607" rx="51.8158" ry="13.2884"/>
					</g>
				</g>
			</g>
		</g>
	</g>
	<g>
		<g>
			<g>
				<defs>
					
						<rect id="SVGID_00000142168939752410919380000008606894480704864675_" x="68.153" y="90.4921" width="16.5358" height="16.5358"/>
				</defs>
				<clipPath id="SVGID_00000127749885363567177070000011970047859193528717_">
					<use xlink:href="#SVGID_00000142168939752410919380000008606894480704864675_"  style="overflow:visible;"/>
				</clipPath>
				
					<circle style="clip-path:url(#SVGID_00000127749885363567177070000011970047859193528717_);fill-rule:evenodd;clip-rule:evenodd;fill:#E11D68;" cx="76.4209" cy="98.76" r="8.2679"/>
			</g>
		</g>
		<g>
			<g>
				<g>
					<g>
						<g>
							<defs>
								<circle id="SVGID_00000008121563739971736240000010512832124970106029_" cx="76.4209" cy="98.76" r="8.2679"/>
							</defs>
							<clipPath id="SVGID_00000060738078779318317380000010798162303191159956_">
								<use xlink:href="#SVGID_00000008121563739971736240000010512832124970106029_"  style="overflow:visible;"/>
							</clipPath>
							
								<path style="clip-path:url(#SVGID_00000060738078779318317380000010798162303191159956_);fill-rule:evenodd;clip-rule:evenodd;fill:#B90859;" d="
								M85.0875,96.0665c0,0-5.1822,0-6.591,0c-0.2299,0-0.4564,0.0552-0.6606,0.1608c-0.2187,0.1132-0.5103,0.2641-0.729,0.3773
								c-0.2042,0.1057-0.4307,0.1608-0.6606,0.1608c-1.6475,0-8.5522,0-8.5522,0v5.2096c0,0,4.2373,0,5.4812,0
								c0.2232,0,0.4434-0.052,0.643-0.1519c0.0752-0.0376,0.1559-0.078,0.2311-0.1156c0.1996-0.0999,0.4198-0.1519,0.643-0.1519
								c1.805,0,10.195,0,10.195,0L85.0875,96.0665L85.0875,96.0665z"/>
						</g>
					</g>
					<g>
						<g>
							<defs>
								<circle id="SVGID_00000048478206476654639870000007247531691897342122_" cx="76.4209" cy="98.76" r="8.2679"/>
							</defs>
							<clipPath id="SVGID_00000089556050868343875070000005456585688843361443_">
								<use xlink:href="#SVGID_00000048478206476654639870000007247531691897342122_"  style="overflow:visible;"/>
							</clipPath>
							
								<polygon style="opacity:0.4;clip-path:url(#SVGID_00000089556050868343875070000005456585688843361443_);fill-rule:evenodd;clip-rule:evenodd;fill:#B90859;enable-background:new    ;" points="
								84.6889,107.0279 68.153,90.4921 68.153,107.0279 							"/>
						</g>
					</g>
				</g>
			</g>
		</g>
	</g>
</g>
</svg>
