<?xml version="1.0" encoding="utf-8"?>
<!-- Generator: Adobe Illustrator 27.7.0, SVG Export Plug-In . SVG Version: 6.00 Build 0)  -->
<svg version="1.1" id="Layer_1" xmlns="http://www.w3.org/2000/svg" xmlns:xlink="http://www.w3.org/1999/xlink" x="0px" y="0px"
	 width="150px" height="150px" viewBox="0 0 150 150" style="enable-background:new 0 0 150 150;" xml:space="preserve">
<g>
	<g>
		<g>
			<g>
				<circle style="fill:#DCE7F7;" cx="75" cy="75" r="50"/>
				<circle style="fill:#A3BBD8;" cx="75" cy="74.9998" r="34"/>
			</g>
		</g>
		<g>
			<g>
				<defs>
					<circle id="SVGID_1_" cx="75" cy="75" r="50"/>
				</defs>
				<clipPath id="SVGID_00000160870200031253709820000007264577776585683118_">
					<use xlink:href="#SVGID_1_"  style="overflow:visible;"/>
				</clipPath>
				
					<rect x="24.7557" y="25" style="opacity:0.4;clip-path:url(#SVGID_00000160870200031253709820000007264577776585683118_);fill:#7C92B5;enable-background:new    ;" width="50" height="100"/>
			</g>
		</g>
	</g>
	<g>
		<g>
			<defs>
				<path id="SVGID_00000109735103751080877000000010970011571096533386_" d="M34.6391,18.3556l-1.4473,15.0923l7.8397,42.9424
					h0.0038C41.7681,94.4953,56.7188,108.9997,75,108.9997c18.2817,0,33.2319-14.5044,33.9647-32.6094H109l6.3609-35.0626
					l1.4473-15.0923L34.6391,18.3556z"/>
			</defs>
			<clipPath id="SVGID_00000011014163525036868370000018313560976543586715_">
				<use xlink:href="#SVGID_00000109735103751080877000000010970011571096533386_"  style="overflow:visible;"/>
			</clipPath>
			<g style="clip-path:url(#SVGID_00000011014163525036868370000018313560976543586715_);">
				<g>
					<g>
						<g>
							<defs>
								
									<line id="SVGID_00000044860412290665221620000009106499819213755806_" x1="99.7502" y1="110.3386" x2="110.4824" y2="99.6064"/>
							</defs>
							<clipPath id="SVGID_00000156585800766282182100000013451249603841476021_">
								<use xlink:href="#SVGID_00000044860412290665221620000009106499819213755806_"  style="overflow:visible;"/>
							</clipPath>
							
								<polygon style="clip-path:url(#SVGID_00000156585800766282182100000013451249603841476021_);fill-rule:evenodd;clip-rule:evenodd;fill:#413D67;" points="
								110.4824,96.7359 110.5513,123.6224 119.0001,131.7291 118.9312,104.8426 							"/>
						</g>
					</g>
					<path style="fill-rule:evenodd;clip-rule:evenodd;fill:#EAE1EF;" d="M112.0614,103.1904c0-1.4709-0.5842-2.8816-1.6244-3.9215
						c-1.0399-1.0403-2.4507-1.6244-3.9215-1.6244c-14.4904,0-53.3085,0-67.0455,0c-2.7065,0-4.9007,2.1939-4.9007,4.9007
						c0,6.8401,0,19.4212,0,28.4244c0,2.778,1.1036,5.4424,3.0678,7.4069c1.9645,1.9642,4.6289,3.0678,7.4069,3.0678
						c21.1625,0,67.0174,0,67.0174,0S112.0614,114.9759,112.0614,103.1904z"/>
					<g>
						<g>
							<defs>
								<path id="SVGID_00000117668890265531045250000002015081286993511590_" d="M112.0614,103.1904
									c0-1.4709-0.5842-2.8816-1.6244-3.9215c-1.0399-1.0403-2.4507-1.6244-3.9215-1.6244c-14.4904,0-53.3085,0-67.0455,0
									c-2.7065,0-4.9007,2.1939-4.9007,4.9007c0,6.8401,0,19.4212,0,28.4244c0,2.778,1.1036,5.4424,3.0678,7.4069
									c1.9645,1.9642,4.6289,3.0678,7.4069,3.0678c21.1625,0,67.0174,0,67.0174,0S112.0614,114.9759,112.0614,103.1904z"/>
							</defs>
							<clipPath id="SVGID_00000181064884623452450540000004898398940019715757_">
								<use xlink:href="#SVGID_00000117668890265531045250000002015081286993511590_"  style="overflow:visible;"/>
							</clipPath>
							
								<rect x="34.5692" y="134.7059" style="clip-path:url(#SVGID_00000181064884623452450540000004898398940019715757_);fill-rule:evenodd;clip-rule:evenodd;fill:#FFFFFF;" width="80.8616" height="11.7923"/>
						</g>
						<g>
							<defs>
								<path id="SVGID_00000134212653202888828960000005050250706977525133_" d="M112.0614,103.1904
									c0-1.4709-0.5842-2.8816-1.6244-3.9215c-1.0399-1.0403-2.4507-1.6244-3.9215-1.6244c-14.4904,0-53.3085,0-67.0455,0
									c-2.7065,0-4.9007,2.1939-4.9007,4.9007c0,6.8401,0,19.4212,0,28.4244c0,2.778,1.1036,5.4424,3.0678,7.4069
									c1.9645,1.9642,4.6289,3.0678,7.4069,3.0678c21.1625,0,67.0174,0,67.0174,0S112.0614,114.9759,112.0614,103.1904z"/>
							</defs>
							<clipPath id="SVGID_00000069366084435501122330000004831852849064192917_">
								<use xlink:href="#SVGID_00000134212653202888828960000005050250706977525133_"  style="overflow:visible;"/>
							</clipPath>
							
								<path style="opacity:0.3488;clip-path:url(#SVGID_00000069366084435501122330000004831852849064192917_);fill:none;stroke:#A096CB;stroke-width:1.3069;stroke-linejoin:round;stroke-miterlimit:10;enable-background:new    ;" d="
								M82.2919,97.6444c0,0,0,18.1042,0,31.469c0,7.7405,6.2749,14.0154,14.0153,14.0154c0.7158,0,1.1461,0,1.1461,0"/>
						</g>
						<g>
							<defs>
								<path id="SVGID_00000042708985143866350240000012125650098132246151_" d="M112.0614,103.1904
									c0-1.4709-0.5842-2.8816-1.6244-3.9215c-1.0399-1.0403-2.4507-1.6244-3.9215-1.6244c-14.4904,0-53.3085,0-67.0455,0
									c-2.7065,0-4.9007,2.1939-4.9007,4.9007c0,6.8401,0,19.4212,0,28.4244c0,2.778,1.1036,5.4424,3.0678,7.4069
									c1.9645,1.9642,4.6289,3.0678,7.4069,3.0678c21.1625,0,67.0174,0,67.0174,0S112.0614,114.9759,112.0614,103.1904z"/>
							</defs>
							<clipPath id="SVGID_00000065037359654307703990000005682561936500265885_">
								<use xlink:href="#SVGID_00000042708985143866350240000012125650098132246151_"  style="overflow:visible;"/>
							</clipPath>
							
								<path style="opacity:0.3488;clip-path:url(#SVGID_00000065037359654307703990000005682561936500265885_);fill:none;stroke:#A096CB;stroke-width:1.3069;stroke-linejoin:round;stroke-miterlimit:10;enable-background:new    ;" d="
								M37.49,97.6444c0,0,0,18.1042,0,31.469c0,7.7405,6.2749,14.0154,14.0153,14.0154c0.7158,0,1.1461,0,1.1461,0"/>
						</g>
					</g>
					<path style="fill-rule:evenodd;clip-rule:evenodd;fill:#BAAED6;" d="M112.0614,102.5451c0-1.3-0.5162-2.5464-1.4352-3.4654
						c-0.919-0.919-2.1655-1.4353-3.4654-1.4356c-7.7715,0.0003-22.0532,0.0003-22.0532,0.0003s0,16.4337,0,29.1687
						c0,3.8804,1.5418,7.602,4.2855,10.3457c2.7437,2.7441,6.4653,4.2855,10.3457,4.2855c6.3327,0,12.3227,0,12.3227,0
						S112.0614,113.9769,112.0614,102.5451z"/>
					<g>
						<g>
							<defs>
								<path id="SVGID_00000155145948748852838180000015848788213750841216_" d="M104.1511,86.0672
									c-0.9192-0.9192-2.1656-1.4356-3.4652-1.4355c-1.2997,0-2.5461,0.5163-3.4655,1.4353
									c-5.495,5.4954-15.5936,15.594-15.5936,15.594s11.6203,11.6203,20.6252,20.6252c2.7438,2.7438,6.4656,4.2852,10.3457,4.2852
									c3.8804,0.0003,7.6019-1.5413,10.3457-4.2852c4.4779-4.4779,8.7134-8.7134,8.7134-8.7134S112.2345,94.1507,104.1511,86.0672
									z"/>
							</defs>
							<clipPath id="SVGID_00000029023203280318161260000009393339052557185933_">
								<use xlink:href="#SVGID_00000155145948748852838180000015848788213750841216_"  style="overflow:visible;"/>
							</clipPath>
						</g>
					</g>
					
						<path style="opacity:0.3488;fill:none;stroke:#A096CB;stroke-width:1.3069;stroke-linejoin:round;stroke-miterlimit:10;enable-background:new    ;" d="
						M54.7846,97.6444c0,0,0,18.1042,0,31.469c0,7.7405,6.2749,14.0154,14.0154,14.0154c1.6891,0,2.8306,0,2.8306,0"/>
					<path style="fill-rule:evenodd;clip-rule:evenodd;fill:#28102B;" d="M61.5711,119.0354c0-3.7196-3.0152-6.7349-6.7349-6.7349
						c-0.0026,0-0.0049,0-0.0072,0c-3.7196,0-6.7349,3.0152-6.7349,6.7349v0.0003c0,3.7196,3.0152,6.7349,6.7349,6.7349
						c0.0023,0,0.0046,0,0.0072,0c3.7196,0,6.7349-3.0152,6.7349-6.7349V119.0354z"/>
					
						<path style="fill:none;stroke:#A0C819;stroke-width:1.6336;stroke-linecap:round;stroke-linejoin:round;stroke-miterlimit:10;" d="
						M59.2456,119.0354c0-1.1667-0.4636-2.2854-1.2886-3.1103c-0.8249-0.8249-1.9436-1.2886-3.1103-1.2886
						c-0.0095,0-0.019,0-0.0281,0c-1.1667,0-2.2857,0.4636-3.1106,1.2886c-0.825,0.825-1.2882,1.9436-1.2882,3.1103
						c0,1.1667,0.4633,2.2857,1.2882,3.1106c0.825,0.825,1.9439,1.2882,3.1106,1.2882c0.0091,0,0.0186,0,0.0281,0
						c1.1667,0,2.2854-0.4633,3.1103-1.2882C58.7819,121.321,59.2456,120.202,59.2456,119.0354z"/>
					<rect x="48.0461" y="45.4213" style="fill-rule:evenodd;clip-rule:evenodd;fill:#EAE1EF;" width="53.9077" height="52.2232"/>
					<rect x="51.4152" y="45.4213" style="fill-rule:evenodd;clip-rule:evenodd;fill:#FAF4FF;" width="10.1077" height="48.8538"/>
					<rect x="78.3691" y="45.4213" style="fill-rule:evenodd;clip-rule:evenodd;fill:#D0BBDD;" width="23.5846" height="52.2232"/>
					<g>
						<g>
							<defs>
								
									<rect id="SVGID_00000005243076845049716930000010352124397328050564_" x="78.3691" y="45.4213" width="23.5846" height="52.2232"/>
							</defs>
							<clipPath id="SVGID_00000129888521399352128170000003810966280142553475_">
								<use xlink:href="#SVGID_00000005243076845049716930000010352124397328050564_"  style="overflow:visible;"/>
							</clipPath>
							
								<line style="opacity:0.3488;clip-path:url(#SVGID_00000129888521399352128170000003810966280142553475_);fill:none;stroke:#A096CB;stroke-width:1.3069;stroke-linejoin:round;stroke-miterlimit:10;enable-background:new    ;" x1="98.5845" y1="45.4213" x2="98.5845" y2="105.0974"/>
						</g>
					</g>
					<rect x="48.0461" y="94.2752" style="fill-rule:evenodd;clip-rule:evenodd;fill:#6B6390;" width="53.9077" height="3.3692"/>
					<rect x="57.3114" y="35.3136" style="fill-rule:evenodd;clip-rule:evenodd;fill:#6B6390;" width="35.3769" height="10.1077"/>
					<rect x="57.3114" y="35.3135" style="fill-rule:evenodd;clip-rule:evenodd;fill:#413D67;" width="35.3769" height="4.4412"/>
					
						<rect x="67.4215" y="-11.4265" transform="matrix(0.0955 -0.9954 0.9954 0.0955 38.1302 101.6543)" style="fill-rule:evenodd;clip-rule:evenodd;fill:#EAE1EF;" width="15.1612" height="82.5437"/>
					
						<rect x="104.2626" y="29.1154" transform="matrix(0.0955 -0.9954 0.9954 0.0955 67.9349 141.5236)" style="fill-rule:evenodd;clip-rule:evenodd;fill:#D0BBDD;" width="15.1612" height="8.5283"/>
					
						<rect x="64.0673" y="7.6241" transform="matrix(0.0955 -0.9954 0.9954 0.0955 35.4167 98.0244)" style="fill-rule:evenodd;clip-rule:evenodd;fill:#FAF4FF;" width="15.1612" height="43.7989"/>
					
						<rect x="111.7108" y="37.3123" transform="matrix(0.0955 -0.9954 0.9954 0.0955 65.8768 148.8089)" style="fill-rule:evenodd;clip-rule:evenodd;fill:#B5A0CD;" width="6.2244" height="1.6846"/>
					<rect x="46.3616" y="141.4444" style="fill-rule:evenodd;clip-rule:evenodd;fill:#413D67;" width="57.2735" height="5.0538"/>
					<g>
						<circle style="fill-rule:evenodd;clip-rule:evenodd;fill:#6B6390;" cx="60.6649" cy="28.4239" r="2.3425"/>
						<g>
							<path style="fill-rule:evenodd;clip-rule:evenodd;fill:#413D67;" d="M87.8502,30.0916L86.143,31.5
								c-0.3773,0.3113-0.9407,0.2573-1.252-0.1201l0,0c-0.3113-0.3773-0.2573-0.9407,0.1201-1.252l1.7072-1.4084
								c0.3773-0.3113,0.9407-0.2573,1.252,0.1201l0,0C88.2815,29.2169,88.2275,29.7804,87.8502,30.0916z"/>
							<path style="fill-rule:evenodd;clip-rule:evenodd;fill:#413D67;" d="M84.8905,31.3845l1.4084,1.7072
								c0.3113,0.3773,0.8747,0.4314,1.252,0.1201l0,0c0.3773-0.3113,0.4314-0.8747,0.1201-1.252l-1.4084-1.7072
								c-0.3113-0.3773-0.8747-0.4314-1.252-0.1201l0,0C84.6333,30.4438,84.5792,31.0072,84.8905,31.3845z"/>
							<path style="fill-rule:evenodd;clip-rule:evenodd;fill:#6B6390;" d="M89.0695,32.0413l-3.5763-0.343
								c-0.4869-0.0467-0.8471-0.4833-0.8004-0.9702l0,0c0.0467-0.4869,0.4833-0.8471,0.9702-0.8004l3.5763,0.343
								c0.4869,0.0467,0.8471,0.4833,0.8004,0.9702l0,0C89.9931,31.7278,89.5565,32.088,89.0695,32.0413z"/>
						</g>
						
							<path style="fill:none;stroke:#B5A0CD;stroke-width:1.9684;stroke-linecap:round;stroke-linejoin:round;stroke-miterlimit:10;" d="
							M77.0702,29.6489c-1.7979,1.4833-4.4578,1.2282-5.9411-0.5697"/>
					</g>
				</g>
			</g>
		</g>
	</g>
</g>
</svg>
